<?xml version="1.0" encoding="UTF-8"?><svg id="Capa_1" xmlns="http://www.w3.org/2000/svg" xmlns:xlink="http://www.w3.org/1999/xlink" viewBox="0 0 800 800"><defs><clipPath id="clippath"><ellipse cx="498.5" cy="124.5" rx="229.5" ry="174.5" style="fill:none; stroke-width:0px;"/></clipPath></defs><path d="M631.29,2.22c-8.6.66-211.7,16.92-289.43,71.74-28.75,20.26-45.98,48.97-48.61,80.88-2.47,30.28,8.79,59.52,31.58,82.56v83.09c-1.15-.8-2.07-1.71-3.32-2.43-39.51-23.63-140.99-26.67-140.99-26.67,0,0,34.15,80.96,73.7,104.56,21.92,13.06,50.89,11.43,70.61-2.34v43.2h-137.21v92.8c-27.55,8.11-47.97,35.11-47.97,67.38,0,38.7,29.16,70.18,65.01,70.18s65.01-31.48,65.01-70.18c0-30.62-18.4-56.46-43.8-65.99v-55.9h98.91v186.35c-29.05,7.03-50.84,34.96-50.84,68.35,0,38.7,29.17,70.18,65.03,70.18s65.01-31.48,65.01-70.18c0-29.46-17-54.63-40.93-65.02v-189.68h93.05v54.35c-27.86,7.91-48.53,35.05-48.53,67.54,0,38.7,29.15,70.18,65,70.18s65.02-31.48,65.02-70.18c0-30.36-18.1-56.08-43.24-65.81v-94.37h-131.29v-172.85c19.55,9.09,41.62,14.14,64.44,14.14,31.17,0,61.55-9.32,85.57-26.26,78.48-55.33,135.33-217.38,137.72-224.26l9.57-27.6-29.07,2.22ZM204.67,628.86c-14.76,0-26.72-14.32-26.72-31.89s12-31.86,26.72-31.86,26.73,14.29,26.73,31.86c0,17.58-11.97,31.89-26.73,31.89ZM339.01,761.67c-14.76,0-26.72-14.28-26.72-31.86s12-31.89,26.72-31.89,26.73,14.32,26.73,31.89c0,17.58-11.95,31.86-26.73,31.86ZM472.64,628.86c-14.75,0-26.71-14.32-26.71-31.89s11.98-31.86,26.71-31.86,26.74,14.29,26.74,31.86-11.98,31.89-26.74,31.89ZM491.03,220.53c-17.61,12.42-40.16,19.26-63.47,19.26-17.14,0-33.43-4-47.88-10.69l96.54-84.28-25.13-28.85-102.91,89.78c-12-14.13-18.16-30.76-16.75-47.84,1.64-20.38,13.17-39.09,32.47-52.68,52.75-37.17,181.01-55.29,239.89-61.85-19.27,47.55-62.22,141.55-112.77,177.16Z" style="fill:#000; stroke-width:0px;"/><g style="clip-path:url(#clippath);"><path d="M631.29,2.22c-8.6.66-211.7,16.92-289.43,71.74-28.75,20.26-45.98,48.97-48.61,80.88-2.47,30.28,8.79,59.52,31.58,82.56v83.09c-1.15-.8-2.07-1.71-3.32-2.43-39.51-23.63-140.99-26.67-140.99-26.67,0,0,34.15,80.96,73.7,104.56,21.92,13.06,50.89,11.43,70.61-2.34v43.2h-137.21v92.8c-27.55,8.11-47.97,35.11-47.97,67.38,0,38.7,29.16,70.18,65.01,70.18s65.01-31.48,65.01-70.18c0-30.62-18.4-56.46-43.8-65.99v-55.9h98.91v186.35c-29.05,7.03-50.84,34.96-50.84,68.35,0,38.7,29.17,70.18,65.03,70.18s65.01-31.48,65.01-70.18c0-29.46-17-54.63-40.93-65.02v-189.68h93.05v54.35c-27.86,7.91-48.53,35.05-48.53,67.54,0,38.7,29.15,70.18,65,70.18s65.02-31.48,65.02-70.18c0-30.36-18.1-56.08-43.24-65.81v-94.37h-131.29v-172.85c19.55,9.09,41.62,14.14,64.44,14.14,31.17,0,61.55-9.32,85.57-26.26,78.48-55.33,135.33-217.38,137.72-224.26l9.57-27.6-29.07,2.22ZM204.67,628.86c-14.76,0-26.72-14.32-26.72-31.89s12-31.86,26.72-31.86,26.73,14.29,26.73,31.86c0,17.58-11.97,31.89-26.73,31.89ZM339.01,761.67c-14.76,0-26.72-14.28-26.72-31.86s12-31.89,26.72-31.89,26.73,14.32,26.73,31.89c0,17.58-11.95,31.86-26.73,31.86ZM472.64,628.86c-14.75,0-26.71-14.32-26.71-31.89s11.98-31.86,26.71-31.86,26.74,14.29,26.74,31.86-11.98,31.89-26.74,31.89ZM491.03,220.53c-17.61,12.42-40.16,19.26-63.47,19.26-17.14,0-33.43-4-47.88-10.69l96.54-84.28-25.13-28.85-102.91,89.78c-12-14.13-18.16-30.76-16.75-47.84,1.64-20.38,13.17-39.09,32.47-52.68,52.75-37.17,181.01-55.29,239.89-61.85-19.27,47.55-62.22,141.55-112.77,177.16Z" style="fill:#11bf00; stroke-width:0px;"/></g></svg>
