<?xml version="1.0" encoding="UTF-8"?>
<svg id="uuid-bb361475-9477-45f8-b91f-0ca9be238c79" data-name="Layer 1" xmlns="http://www.w3.org/2000/svg" viewBox="0 0 800 600">
  <g>
    <polygon points="628.5 489.5 628.4 489.7 639.7 608.3 557.8 608.3 547.2 535.5 542.5 606.5 458.4 605.5 467.4 512.3 475 469.1 475 469.1 476.1 462.6 626.2 462.6 626.4 465 628.5 489.5" style="fill: #2f2e41; stroke-width: 0px;"/>
    <path d="M412.1,558.3c8.7,1.6,17.7-8.2,20.2-21.8,1.1-6,.7-11.7-.7-16.4l1.3-7.9,22.3-105.7s41.1-82.2,41.1-96.4-11.9-21.3-11.9-21.3l-16.1.2-50.4,123.2-9.1,91-1.5,12.5c-3,3.9-5.4,9.1-6.4,15-2.5,13.6,2.5,26,11.2,27.5h0Z" style="fill: #ffb6b6; stroke-width: 0px;"/>
    <polygon points="575.7 238 560.7 203.4 512.2 211.8 508.9 252.5 575.7 238" style="fill: #ffb6b6; stroke-width: 0px;"/>
    <polygon points="575.7 238 560.7 203.4 512.2 211.8 508.9 252.5 575.7 238" style="fill: #000; isolation: isolate; opacity: .1; stroke-width: 0px;"/>
    <path d="M681.2,309.9s-34.6-64.5-41.1-71c-2.9-2.9-7.5-3-11.7-2.1l-48.1-16.6-16.3-9.2-1.1,17.4-53.5,9.6c.3-10.6,1.8-14.7,1.8-14.7l-19.6,23-38.3,18.7v.2c-2.8,1-5.5,2.7-7.5,5.4-7.5,10.3-28,135.4-28,135.4l43.9,9.3,6-37.5,4.3,33.8,3.3,63.1s59.8,51.4,88.7,32.7c29-18.7,64.5-17.7,64.5-17.7l.9-29.2c.6-1,1-1.6,1-1.6l-.9-103.7v-27.6c7.1,9.9,15.7,18.4,25.7,22.4,32.7,13.1,26.2-40.2,26.2-40.2h-.2Z" style="fill: #e6e6e6; stroke-width: 0px;"/>
    <circle cx="531.4" cy="173.2" r="44.7" style="fill: #ffb6b6; stroke-width: 0px;"/>
    <path d="M563.4,185.8s3.9-13.6,12.6-12.6,10.7-6.8,8.7-10.7-5.8-23.3-5.8-23.3c0,0,1.9-13.6-9.7-15.5-11.7-1.9-15.5-3.9-17.5-7.8-1.9-3.9-31.1-7.8-40.8-1.9-9.7,5.8-17.5,17-24.3,20.2-6.8,3.2-12.6,9-8.7,18.7s9.5,28.7,9.5,28.7c0,0,9.9-3.5,11.9,2.4s-5.8-1.9,3.9-17.5c9.7-15.5,9.7-31.1,25.3-25.3,15.5,5.8,33,3.9,31.1,15.5-1.9,11.7,3.9,29.1,3.9,29.1h0Z" style="fill: #2f2e41; stroke-width: 0px;"/>
    <g>
      <ellipse cx="602.1" cy="176.8" rx="45.5" ry="44.6" style="fill: #446eb1; stroke-width: 0px;"/>
      <path d="M617.5,154.3c-6.1,11-12.1,22.1-18.2,33.1-3.9-6.8-7.7-13.7-11.6-20.5-1.3-2.4-5-.2-3.6,2.1,4.5,7.9,8.9,15.8,13.4,23.7.8,1.4,2.9,1.4,3.6,0,6.7-12.1,13.3-24.2,20-36.4,1.3-2.4-2.3-4.5-3.6-2.1h0Z" style="fill: #fff; stroke-width: 0px;"/>
    </g>
    <path d="M664.9,294.2l-45.3-21.7s-1.8-14.5-10.3-19.7c-1.4-3.4-3.1-7.2-4.6-10.2-3.7-7.4,1.9-21.4-2.8-21.4s-11.6,14.7-11.2,18.7c.3,3,2.8,8.3,3.3,12.9-5.7,2.1-10.3,5.8-13.3,8.8-2.6,2.5-3.6,6.3-2.6,9.8,3,10.1,10.4,31.1,21,31.1s17.7-2.8,17.7-2.8c0,0,29,36.4,50.4,39.2s-2.3-44.6-2.3-44.6h0Z" style="fill: #ffb6b6; stroke-width: 0px;"/>
  </g>
  <g>
    <path d="M115.3,262.8h377.9v206.7H115.3v-206.7h0Z" style="fill: #e1f0ff; stroke-width: 0px;"/>
    <path d="M115.3,253h377.9v39.4H115.3v-39.4h0ZM493.1,253h15.8v216.6h-15.8v-216.6h0ZM99.5,253h15.8v216.6h-15.8v-216.6h0Z" style="fill: #446eb1; stroke-width: 0px;"/>
    <path d="M115.3,341.6h377.9v9.9H115.3v-9.9h0ZM115.3,400.7h377.9v9.9H115.3v-9.9h0Z" style="fill: #6d9ee8; stroke-width: 0px;"/>
    <path d="M225.5,292.4h15.8v167.3h-15.8v-167.3h0ZM367.2,292.4h15.8v167.3h-15.8v-167.3h0Z" style="fill: #6d9ee8; stroke-width: 0px;"/>
    <path d="M115.3,459.7h377.9v9.9H115.3v-9.9h0Z" style="fill: #446eb1; stroke-width: 0px;"/>
  </g>
</svg>