<?xml version="1.0" encoding="UTF-8"?>
<svg id="uuid-0b328733-980c-4359-9b13-9432b4747e14" data-name="Layer 1" xmlns="http://www.w3.org/2000/svg" viewBox="0 0 800 600">
  <path d="M797.2,282.2c-14,105.6-87.3,199.3-181,260.2-7.6,4.9-15.4,9.7-23.4,14.2-1,.6-2,1.1-3,1.7-55.7,31.1-119.5,51.1-183.7,44.8-52.1-5-103.2-30.8-133.8-69.4-.6-.7-1.2-1.5-1.7-2.2-12.4-16.1-20.9-34.5-24.7-54-5.5-28.8-1.2-60.7-18.3-85.3-22.1-31.9-69.5-37.1-110.3-35.9-38.1,1.1-76.1,4.9-114.2,6.9-.8,0-1.6,0-2.4.1V24.4C.7,10.7,12.7-.5,27.4-.5h165.8c8,1,13.7,16,21.7,16.4,3.5.2,6.9.4,10.4.5,18.2.7,36.3.4,54.5-.5,10.6-.5,23.5-15.6,34.1-16.4h306.1c2.3.7,4.5,1.4,6.8,2.2,9.7,3.3,19.3,7.1,28.5,11.4,102,48.2,155.9,163.5,141.9,269.1h0Z" style="fill: #3f3d56; stroke-width: 0px;"/>
  <path d="M669.1,141.1c-47.5,41.1-110.3,67.5-174.9,73.8-6.3.6-12.7,1.1-19.1,1.3-1.4,0-2.8,0-4.3.1h-6.9c-2.3,0-5.5,0-8.3-.1-16-.4-32-2.1-47.7-4.9-.6-.1-1.1-.2-1.7-.3-2.5-.4-5-.9-7.4-1.4-4.7-1-9.4-2.1-14.1-3.2-1.5-.4-3-.8-4.6-1.2-2.2-.6-4.3-1.2-6.5-1.8-.8-.2-1.6-.5-2.4-.7s-1.6-.5-2.5-.8c-5-1.5-10-3.2-15-5-28.2-10.1-54.5-24.1-78.2-41.6-3.3-2.4-6.6-5-9.8-7.4-17.2-13.2-35-26.9-56.7-29.9-23.4-3.2-46,6.7-67.7,16.3-7.4,3.3-15,6.6-22.6,9.4-36.9,13.5-77.5,15.3-115.5,5.1l-2.4-.6v-2.3l2.4.6c37.8,10.2,78.1,8.5,114.7-4.9,7.5-2.8,15.1-6.1,22.4-9.4,22.1-9.7,44.9-19.8,69.1-16.5,22.4,3.1,40.4,16.9,57.9,30.4,3.2,2.5,6.5,5,9.8,7.4,23.5,17.3,49.7,31.2,77.7,41.3h0c4.7,1.7,9.5,3.3,14.3,4.8.7.2,1.4.4,2.1.6.8.2,1.6.5,2.3.7,2,.6,4,1.2,6,1.7s3.9,1.1,5.9,1.6h0c5.1,1.3,10.2,2.4,15.3,3.5,2.3.5,4.6.9,7,1.3.5,0,1,.2,1.5.3,15.1,2.7,30.4,4.2,45.8,4.7h0c5.3.2,10.7.2,16,0,1.4,0,2.8,0,4.1-.1,6-.2,12-.6,18-1.2h0c64.4-6.1,127.1-32.4,174.4-73.4.5-.4,1.2-.4,1.7,0,.4.4.4,1.1,0,1.5h0v.3h-.1Z" style="fill: #446eb1; stroke-width: 0px;"/>
  <ellipse cx="589.7" cy="318" rx="4" ry="6.1" transform="translate(157.9 830.2) rotate(-78.2)" style="fill: #fff; stroke-width: 0px;"/>
  <ellipse cx="550" cy="317.8" rx="4" ry="6.1" transform="translate(126.5 791.2) rotate(-78.2)" style="fill: #3f3d56; stroke-width: 0px;"/>
  <ellipse cx="597.3" cy="348.7" rx="4" ry="6.1" transform="translate(133.8 862.1) rotate(-78.2)" style="fill: #ff6584; stroke-width: 0px;"/>
  <ellipse cx="609.5" cy="361.8" rx="3.6" ry="2.7" transform="translate(166.5 915) rotate(-82)" style="fill: #e6e6e6; stroke-width: 0px;"/>
  <ellipse cx="612.9" cy="385" rx="3.6" ry="2.7" transform="translate(146.3 938.3) rotate(-82)" style="fill: #3f3d56; stroke-width: 0px;"/>
  <ellipse cx="572.1" cy="340.8" rx="3.6" ry="2.7" transform="translate(155 859.9) rotate(-82)" style="fill: #e6e6e6; stroke-width: 0px;"/>
  <ellipse cx="592.1" cy="333.7" rx="3.6" ry="2.7" transform="translate(179.2 873.5) rotate(-82)" style="fill: #ff6584; stroke-width: 0px;"/>
  <ellipse cx="567.3" cy="314.8" rx="3.6" ry="2.7" transform="translate(176.6 832.8) rotate(-82)" style="fill: #3f3d56; stroke-width: 0px;"/>
  <ellipse cx="35.2" cy="68.9" rx="4" ry="6.1" transform="translate(-39.4 89.3) rotate(-78.2)" style="fill: #fff; stroke-width: 0px;"/>
  <ellipse cx="42.8" cy="99.7" rx="4" ry="6.1" transform="translate(-63.5 121.2) rotate(-78.2)" style="fill: #ff6584; stroke-width: 0px;"/>
  <ellipse cx="54.5" cy="112.4" rx="3.6" ry="2.7" transform="translate(-64.4 150.7) rotate(-82)" style="fill: #e6e6e6; stroke-width: 0px;"/>
  <ellipse cx="57.8" cy="135.7" rx="3.6" ry="2.7" transform="translate(-84.6 174.1) rotate(-82)" style="fill: #3f3d56; stroke-width: 0px;"/>
  <ellipse cx="37" cy="84.3" rx="3.6" ry="2.7" transform="translate(-51.6 109.3) rotate(-82)" style="fill: #ff6584; stroke-width: 0px;"/>
  <ellipse cx="187.4" cy="212.4" rx="4.7" ry="4.4" style="fill: #fff; stroke-width: 0px;"/>
  <ellipse cx="53" cy="266.9" rx="2.4" ry="2.2" style="fill: #fff; stroke-width: 0px;"/>
  <ellipse cx="539.5" cy="419.6" rx="2.4" ry="2.2" style="fill: #fff; stroke-width: 0px;"/>
  <ellipse cx="235.7" cy="318.8" rx="2.4" ry="2.2" style="fill: #fff; stroke-width: 0px;"/>
  <ellipse cx="278.1" cy="89.6" rx="2.4" ry="2.2" style="fill: #fff; stroke-width: 0px;"/>
  <ellipse cx="663.2" cy="174" rx="2.4" ry="2.2" style="fill: #fff; stroke-width: 0px;"/>
  <ellipse cx="115.5" cy="59.9" rx="2.4" ry="2.2" style="fill: #fff; stroke-width: 0px;"/>
  <ellipse cx="544.3" cy="46.8" rx="4.7" ry="4.4" style="fill: #fff; stroke-width: 0px;"/>
  <path d="M755.1,629.7h-2.4c0-12.7-12.7-25-37.9-36.8-24.6-11.5-59.8-21.9-104.7-30.8-6.6-1.3-13.4-2.6-20.4-3.8-35.9-6.4-75.9-11.6-118.7-15.5-8.8-.8-17.8-1.6-26.9-2.3-2.9-.2-5.9-.5-8.9-.7-8.3-.6-16.6-1.2-25.1-1.7-44.1-2.7-90.4-4.2-137.9-4.4h-8.4c-61.8,0-75.7,5.4-76.5,10-2.1,11.5,69.3,34.7,138.4,57.1,76.5,24.8,155,50.3,181.8,72,.9.7,1.8,1.5,2.5,2.2h-3.2c-.9-.7-1.8-1.5-2.8-2.2-28.3-21-107.5-46.7-179.1-70-88.3-28.6-142.2-46.8-139.9-59.6,1-5.5,10.9-11.8,78.9-11.8s4.5,0,6.7,0c47.4,0,93.7,1.6,137.9,4.3,8.6.5,17.2,1.1,25.6,1.7,3.1.2,6.3.5,9.4.7,9.3.7,18.5,1.5,27.6,2.3,43.9,4.1,84.9,9.4,121.6,16,6.1,1.1,12,2.2,17.9,3.4,93.1,18.4,144.4,43.2,144.4,69.7v.2h0Z" style="fill: #e6e6e6; stroke-width: 0px;"/>
  <ellipse cx="425.3" cy="102.7" rx="47.1" ry="43.9" style="fill: #f2f2f2; stroke-width: 0px;"/>
  <ellipse cx="418.2" cy="106" rx="47.1" ry="43.9" style="fill: #f2f2f2; stroke-width: 0px;"/>
  <path d="M470.1,586.3h-44.2v-.5c0-8.8,7.7-16,17.2-16h0l8.1-5.7,15,5.7h3.9v16.5Z" style="fill: #f2f2f2; stroke-width: 0px;"/>
  <path d="M449.5,564.1l-37.7,21.4-.3-.4c-4.9-7.6-2.4-17.4,5.8-22h0l3.7-8.8,16-2.4,3.3-1.9,9.2,14.1h0Z" style="fill: #f2f2f2; stroke-width: 0px;"/>
  <path d="M475.4,447.6c-.2,1.3-.5,5.8-.8,12.3-1.7,31.6-4.5,111.1-4.5,111.1l-18-5.2s-21.4-60.1-17.9-93l-2.5-11.4-4.4-19.6h0l-13.3-59.6s-2.9,16.1-3.1,19.9-2.6,4.9-3.8,4.9c-5.9,0-4.1-1-3.2,4.5.6,3.9-4.5,26.3-7.4,38.5-1.1,4.8-1.9,8-1.9,8l5,10,41.4,83.1-15.7,7.8-62.4-86.2-6.2-8.5-1.3-9.5-10.4-75s-3.2-8.5,0-8.7c3.3-.2,5.1.7,4.2-2.5s17.9-57,17.9-57l97.8,19.7s9.6,17.8,5.9,26.3c-3.8,8.5,3.1,74.2-.8,77.1s-6.4.6-1,5.6c.8.8,1.8,1.5,2.9,1.9,3.3,1.4,4.6-.9,3.7,5.3l-.2.2h0Z" style="fill: #f2f2f2; stroke-width: 0px;"/>
  <ellipse cx="417.9" cy="108" rx="27.2" ry="25.3" style="fill: #a0616a; stroke-width: 0px;"/>
  <path d="M439.1,129.8l-10.8,1.9s10-15,9.4-21.9-8.6-9.4-8.6-9.4c0,0-4.5.9-9.2,1.4-.6-1.5-1.3-2.9-2.2-4.2-.2,1.7-1,3.3-2.3,4.5-1.7,0-3.5,0-5.1-.5-1.9-.8-1.8-2.2-1.2-3.4-6.1.5-12,2-17.5,4.5-.3-3.4,0-6.8.4-10.1.3,0,.5,0,.8-.2,1.6-.5,3.2-1.1,4.6-1.9-1.6-.2-3.2-.9-4.4-1.9,1-2.7,2.6-5,5.1-6.2,4.9-2.2,10.5-2.3,15.5-.4,0,0-5.8-3.9-3.6-5.5,0,0,.3.3.4.4.2.2.4.3.6.5,1.3,1,3.3-.4,3.5-1.9,0-.2,0-.4,0-.6,0-.2,0-.3,0-.4,0,0,0-.3,0-.4,3.9-.9,15.8,2.7,20.3,10.5,0,0,31.9,14.3,3.8,45.2h.2,0Z" style="fill: #3f3d56; stroke-width: 0px;"/>
  <path d="M429.2,355.3c-.8-5.3,3-10.2,8.6-11.1.6,0,1.1-.1,1.7-.1l28.4-61.4,19.5,13.6-37.9,58.2c-.4,4.4-4,8-8.7,8.8-5.5.8-10.6-2.6-11.5-7.7h0v-.3h0Z" style="fill: #446eb1; stroke-width: 0px;"/>
  <path d="M349.7,360.3c4-3.8,4-9.9,0-13.7-.4-.4-.8-.7-1.3-1l15.7-65.2-24.4.4-6,67.8c-2.5,3.8-1.8,8.7,1.5,11.8,3.9,3.7,10.3,3.7,14.2,0h0l.2-.2h.1Z" style="fill: #446eb1; stroke-width: 0px;"/>
  <path d="M506.6,251.1c-3.5,4.4-8.2-.6-3.5,5.8,3.2,4.3-15.3,45.1-27.2,70-5.4,11.3-9.4,19.3-9.4,19.3l-20-10.8-2.3-1.3s18.4-43.1,24.3-58.5c1-2.6,1.6-4.4,1.8-5.1,1.1-5.1,1.2-9.6,0-11.2-.3-.6-.5-1.2-.8-1.9-2.4-6.5-9.6-28.3-16.3-48.9-2-6.1-3.9-12-5.7-17.4-4.5-13.9-7.9-24.5-7.9-24.5l27.1,1.1s.4.7,1.2,2c1.9,3,5.7,9.3,10.2,16.8,3.2,5.4,6.8,11.5,10.1,17.4,8.6,15.2,15.9,29.8,13.7,31.8-4.7,4.4-9.5,1.9-3.6,7.5s11.8,3.4,8.3,7.8h0Z" style="fill: #f2f2f2; stroke-width: 0px;"/>
  <path d="M474.3,309.4c-7.1-6.5-5.8-36.2-5.8-36.2,0,0,7-99.7-2.5-106.4-6.6-4.4-13.6-8.3-20.9-11.5l-.6-.3-6.1-16-37.4-1.8-6.5,11.8s-1,0-2.6.3c-6,.8-20,3.5-18.8,12,1.6,10.7-9.6,76.8-13,80.1s-2.5,15.4,5.9,23c8.4,7.7,2.4,28.5-3.5,37.3-3.5,5.4-5.2,11.6-4.7,17.9,0,0,4.7,23.8,16.4,16.1,4.5-2.9,10.9-3.3,18.5-2.8h.2l-.2,1.1c10.6.7,23.8,3.2,37.9,3.1l-.4-1.1h.4c2.4,0,4.8-.1,7.2-.3,21-1.7,30.3,3.7,33-2.2,2.7-5.9,10.6-17.6,3.5-24.1Z" style="fill: #f2f2f2; stroke-width: 0px;"/>
  <ellipse cx="418.2" cy="106" rx="35.3" ry="32.9" style="fill: #6c63ff; isolation: isolate; opacity: .3; stroke-width: 0px;"/>
  <path d="M401.2,155.7s-5.4,16.6-11.6,35.8c-2,6-4,12.3-6,18.4-6.5,19.9-12.5,37.8-13.1,38.5-1.2,1.6-1.1,6,0,11.2.2,1-.3,5-1.2,10.8-1.2,7.6-3.3,18.1-5.4,28.9-1.7,8.6-3.5,17.3-5,24.8-2.4,11.6-4.2,20-4.2,20h-22.4s4.2-87.4,8.9-93.7c4.7-6.3,0-1.4-3.5-5.8-3.5-4.4,2.4-2.2,8.3-7.8s1.1-3.1-3.6-7.5c-1.7-1.6,2.2-12,7.8-24.3,2.6-5.7,5.6-11.9,8.5-17.9,6.1-12.3,12.1-23.6,14.4-28.1h0l1.1-2,27.1-1.1v-.2h-.1Z" style="fill: #f2f2f2; stroke-width: 0px;"/>
  <path d="M450,159.7c-24.6,8.9-46.7,10.4-64.8,0v-19.7c21.3,11.9,42.9,11.6,64.8,0v19.7h0Z" style="fill: #3f3d56; stroke-width: 0px;"/>
  <path d="M468.9,285.9c-38,8.9-72.2,10.4-100.1,0v-19.7c32.9,11.9,66.3,11.6,100.1,0v19.7Z" style="fill: #3f3d56; stroke-width: 0px;"/>
  <path d="M475.4,447.6c-.2,1.3-.5,5.8-.8,12.3-14.2,2.1-28.6,2.6-42.9,1.5l-4.4-19.6c14.7,2.5,29.7,2.7,44.4.5,3.3,1.4,4.6-.9,3.7,5.3h0Z" style="fill: #3f3d56; stroke-width: 0px;"/>
  <path d="M399.5,468c-12.1,2.5-24.3,4.1-36.7,4.8l-6.2-8.5-1.3-9.5c13.9.3,27.7-1.3,41.1-4.7-1.1,4.8-1.9,8-1.9,8l5,10h0Z" style="fill: #3f3d56; stroke-width: 0px;"/>
  <path d="M402.9,201.4c0,6.1-5.3,11-11.8,11s-11.8-4.9-11.8-11,10.6-18.6,11.8-11c1.2,7.7,11.8,4.9,11.8,11Z" style="fill: #446eb1; stroke-width: 0px;"/>
  <path d="M392.4,182.8h-1.3c-10.6,0-19.4,7.8-20,17.7v2.3c.8,10.3,10.3,18,21.4,17.3,6.3-.4,12-3.6,15.4-8.5.5-.7.9-1.3,1.2-2,4.8-9.3.6-20.4-9.4-24.9-2.3-1-4.8-1.6-7.4-1.8h.1ZM406.2,211.2c-3.7,4.2-9.3,6.6-15.1,6.7-8.9,0-16.4-6.2-17.5-14.4,0-.7,0-1.4,0-2.1v-.3c.2-9,8-16.2,17.7-16.2,0,.3.2.5.3.8,5,11.1,15.9,10.2,17.3,15.7.7,2.6.3,5.4-1.2,7.8-.4.7-.9,1.4-1.4,2h0Z" style="fill: #446eb1; stroke-width: 0px;"/>
</svg>