<?xml version="1.0" encoding="UTF-8"?>
<svg id="Layer_2" data-name="Layer 2" xmlns="http://www.w3.org/2000/svg" xmlns:xlink="http://www.w3.org/1999/xlink" viewBox="0 0 190 50">
  <defs>
    <clipPath id="clippath">
      <rect width="47" height="50" style="fill: none; stroke-width: 0px;"/>
    </clipPath>
    <clipPath id="clippath-1">
      <rect x="90" y="9" width="100" height="31.2" style="fill: none; stroke-width: 0px;"/>
    </clipPath>
  </defs>
  <g id="Layer_5" data-name="Layer 5">
    <g id="airbnb">
      <g style="clip-path: url(#clippath);">
        <path d="M46.2,35.5c-.2-.6-.5-1.2-.8-1.8-.4-.9-.8-1.8-1.2-2.5h0c-3.5-7.6-7.2-15.2-11.1-22.7l-.2-.3c-.4-.8-.8-1.6-1.2-2.4-.5-.9-1-1.9-1.8-2.8C28.3,1,26,0,23.6,0s-4.8,1.1-6.4,3c-.8.9-1.3,1.9-1.8,2.8-.4.8-.8,1.6-1.2,2.4l-.2.3c-3.8,7.5-7.6,15.1-11,22.6h0c-.3.9-.8,1.8-1.2,2.7-.2.5-.5,1.1-.8,1.8-.6,1.8-.8,3.6-.6,5.4.6,3.8,3.1,6.9,6.5,8.3,1.3.5,2.7.8,4.1.8s.9,0,1.3,0c1.7-.2,3.4-.8,5-1.7,2.1-1.2,4-2.8,6.2-5.2,2.2,2.4,4.2,4,6.2,5.2,1.7.9,3.3,1.5,5,1.7h1.3c1.4,0,2.8-.2,4-.8,3.5-1.4,6-4.6,6.5-8.3.4-1.8.2-3.5-.4-5.3h0ZM23.7,38.1c-2.7-3.4-4.4-6.6-5-9.3-.2-1.1-.3-2.1-.2-3,0-.8.4-1.5.8-2.1.9-1.4,2.5-2.2,4.4-2.2s3.5.8,4.4,2.2c.4.6.7,1.3.8,2.1.2.9,0,2-.2,3-.6,2.7-2.3,5.9-5.1,9.3h0ZM43.7,40.5c-.3,2.6-2.1,4.8-4.6,5.8-1.2.5-2.5.7-3.8.5-1.2,0-2.5-.5-3.8-1.3-1.8-1-3.6-2.5-5.7-4.8,3.3-4.1,5.3-7.8,6-11.1.3-1.5.4-2.9.2-4.2-.2-1.2-.7-2.4-1.3-3.4-1.6-2.2-4.2-3.5-7.1-3.5s-5.5,1.3-7,3.5c-.7,1-1.2,2.1-1.3,3.4-.2,1.3-.2,2.8.2,4.2.8,3.3,2.8,7.1,6,11.1-2,2.3-3.9,3.8-5.7,4.8-1.3.8-2.6,1.2-3.8,1.3-1.3.2-2.7,0-3.8-.5-2.5-1-4.2-3.2-4.6-5.8-.2-1.2,0-2.5.4-3.9.2-.5.4-1,.7-1.6.3-.8.8-1.7,1.2-2.5h0c3.4-7.5,7.1-15.2,11-22.5v-.3c.5-.8.9-1.5,1.3-2.3s.8-1.6,1.4-2.2c1-1.2,2.4-1.9,4-1.9s2.9.7,4,1.9c.5.6,1,1.4,1.4,2.2.4.8.8,1.5,1.2,2.3l.2.3c3.8,7.5,7.5,15,10.9,22.5h0c.4.8.8,1.8,1.2,2.5.2.6.5,1.1.7,1.6.4,1.3.5,2.6.3,3.9h.2Z" style="fill: #ff5a5f; stroke-width: 0px;"/>
      </g>
      <g style="clip-path: url(#clippath-1);">
        <path d="M142.6,16.8c0,1.1-.9,2-2,2s-2-.9-2-2,.9-2,2-2,2,.9,2,2ZM134.2,20.9v.5s-1-1.2-3-1.2c-3.4,0-6,2.6-6,6.2s2.6,6.2,6,6.2,3-1.3,3-1.3v.5c0,.2.2.4.4.4h2.5v-11.7h-2.5c-.2,0-.4.2-.4.4ZM134.2,28.4c-.5.7-1.4,1.3-2.5,1.3-2,0-3.5-1.2-3.5-3.4s1.5-3.4,3.5-3.4,2.1.6,2.5,1.3v4.2ZM139,20.5h3v11.7h-3v-11.7ZM183.7,20.2c-2.1,0-3,1.2-3,1.2v-6.6h-3v17.4h2.5c.2,0,.4-.2.4-.4v-.5s1,1.3,3,1.3c3.4,0,6-2.6,6-6.2s-2.7-6.2-6-6.2h0ZM183.2,29.7c-1.1,0-2.1-.6-2.5-1.3v-4.2c.5-.6,1.5-1.3,2.5-1.3,2,0,3.5,1.2,3.5,3.4s-1.5,3.4-3.5,3.4ZM176.1,25.2v7h-3v-6.6c0-1.9-.6-2.7-2.3-2.7s-1.8.5-2.4,1.2v8.2h-3v-11.7h2.4c.2,0,.4.2.4.4v.5c.9-.9,2-1.2,3.2-1.2s2.4.4,3.3,1.1c1.1.9,1.5,2,1.5,4v-.2h0ZM158.2,20.2c-2.1,0-3,1.2-3,1.2v-6.6h-3v17.4h2.5c.2,0,.4-.2.4-.4v-.5s1,1.3,3,1.3c3.4,0,6.1-2.6,6.1-6.2s-2.6-6.2-6-6.2ZM157.7,29.7c-1.2,0-2.1-.6-2.5-1.3v-4.2c.5-.6,1.5-1.3,2.5-1.3,2,0,3.5,1.2,3.5,3.4s-1.5,3.4-3.5,3.4ZM149.6,20.2c.9,0,1.4.2,1.4.2v2.8s-2.5-.8-4,.9v8.2h-3v-11.7h2.5c.2,0,.4.2.4.4v.5c.6-.7,1.8-1.2,2.7-1.2h0ZM118.5,31.1c-.2-.4-.3-.8-.5-1.1-.2-.6-.5-1.1-.7-1.6h0c-2.2-4.7-4.5-9.4-6.9-14.1v-.2c-.3-.5-.6-1-.8-1.5-.3-.6-.6-1.2-1.1-1.7-1-1.2-2.4-1.9-3.9-1.9s-3,.7-4,1.9c-.5.6-.8,1.2-1.1,1.7-.2.5-.5,1-.8,1.5v.2c-2.5,4.7-4.8,9.4-7,14.1h0c-.2.6-.5,1.1-.7,1.7-.2.3-.3.7-.5,1.1-.4,1.2-.5,2.2-.4,3.4.3,2.3,1.9,4.3,4,5.2.8.3,1.7.5,2.5.5h.8c1,0,2.1-.5,3.1-1.1,1.3-.7,2.5-1.7,3.9-3.2,1.4,1.5,2.6,2.5,3.9,3.2,1,.6,2.1.9,3.1,1.1h.8c.9,0,1.8-.2,2.5-.5,2.2-.9,3.7-2.9,4.1-5.2.2-1.1,0-2.2-.3-3.3v-.2ZM104.5,32.7c-1.7-2.1-2.8-4.1-3.1-5.8-.2-.7-.2-1.3,0-1.9,0-.5.2-.9.5-1.3.6-.8,1.6-1.4,2.8-1.4s2.2.5,2.7,1.4c.2.4.4.8.5,1.3v1.9c-.4,1.7-1.5,3.6-3.1,5.8h-.3ZM116.9,34.2c-.2,1.6-1.3,3-2.8,3.6-.8.3-1.6.4-2.4.3-.8,0-1.6-.3-2.4-.8-1.1-.6-2.2-1.6-3.6-3,2.1-2.5,3.3-4.8,3.8-6.9.2-1,.2-1.8.2-2.6s-.4-1.5-.8-2.1c-1-1.4-2.6-2.2-4.4-2.2s-3.4.8-4.4,2.2c-.4.6-.7,1.3-.8,2.1,0,.8,0,1.7.2,2.6.5,2.1,1.7,4.4,3.8,6.9-1.3,1.4-2.4,2.4-3.6,3-.8.5-1.6.7-2.4.8-.8,0-1.7,0-2.4-.3-1.5-.6-2.6-2-2.8-3.6,0-.8,0-1.6.3-2.4,0-.3.2-.6.4-1,.2-.5.5-1,.7-1.6h0c2.2-4.7,4.5-9.4,6.9-14v-.2c.3-.5.6-1,.8-1.4.2-.5.5-1,.9-1.4.7-.7,1.5-1.2,2.5-1.2s1.8.4,2.5,1.2c.3.4.6.9.9,1.4.2.5.5,1,.8,1.4v.2c2.5,4.6,4.8,9.4,6.9,14h0c.2.5.5,1.1.7,1.6.2.4.3.7.4,1,.2.8.3,1.6.2,2.4h0Z" style="fill: #ff5a5f; stroke-width: 0px;"/>
      </g>
    </g>
  </g>
</svg>