<?xml version="1.0" encoding="UTF-8"?>
<svg id="Layer_2" data-name="Layer 2" xmlns="http://www.w3.org/2000/svg" xmlns:xlink="http://www.w3.org/1999/xlink" viewBox="0 0 176 50">
  <defs>
    <clipPath id="clippath">
      <rect width="50" height="50" style="fill: none; stroke-width: 0px;"/>
    </clipPath>
    <clipPath id="clippath-1">
      <rect x="76" y="16" width="100" height="17.8" style="fill: none; stroke-width: 0px;"/>
    </clipPath>
  </defs>
  <g id="Layer_5" data-name="Layer 5">
    <g id="coinbase">
      <g style="clip-path: url(#clippath);">
        <g>
          <path d="M25,0c13.8,0,25,11.2,25,25s-11.2,25-25,25S0,38.8,0,25,11.2,0,25,0Z" style="fill: #0052ff; stroke-width: 0px;"/>
          <path d="M25,33.8c-4.9,0-8.8-3.9-8.8-8.8s3.9-8.8,8.8-8.8,8,3.2,8.7,7.3h8.9c-.7-9-8.3-16.1-17.5-16.1S7.5,15.3,7.5,25s7.9,17.6,17.6,17.6,16.8-7.1,17.5-16.1h-8.9c-.7,4.1-4.3,7.3-8.7,7.3Z" style="fill: #fff; stroke-width: 0px;"/>
        </g>
      </g>
      <g style="clip-path: url(#clippath-1);">
        <path d="M96.1,21c-3.6,0-6.5,2.8-6.5,6.4s2.8,6.4,6.5,6.4,6.5-2.8,6.5-6.4-2.8-6.4-6.5-6.4ZM96.2,31.2c-2.1,0-3.6-1.6-3.6-3.8s1.5-3.8,3.5-3.8,3.6,1.6,3.6,3.8-1.5,3.8-3.6,3.8h.1ZM103.4,23.8h1.8v9.8h2.9v-12.4h-4.7v2.6ZM82.4,23.6c1.5,0,2.7.9,3.2,2.3h3c-.5-3-3-5-6.2-5s-6.5,2.8-6.5,6.4,2.8,6.4,6.5,6.4,5.6-2,6.2-5h-3c-.4,1.4-1.6,2.3-3.1,2.3s-3.6-1.6-3.6-3.8,1.5-3.8,3.5-3.8v.2h0ZM158.2,26.2l-2.1-.3c-1-.1-1.7-.5-1.7-1.3s.9-1.3,2.2-1.3,2.3.6,2.5,1.6h2.8c-.3-2.5-2.2-3.9-5.2-3.9s-5.1,1.6-5.1,3.8,1.3,3.3,4,3.7l2.1.3c1,.1,1.6.6,1.6,1.3s-1,1.4-2.4,1.4-2.7-.7-2.8-1.7h-2.8c.3,2.4,2.2,4.1,5.6,4.1s5.2-1.4,5.2-3.9-1.5-3.4-3.9-3.7h0ZM106.7,16.1c-1.1,0-1.8.8-1.8,1.8s.8,1.8,1.8,1.8,1.9-.8,1.9-1.8-.8-1.8-1.9-1.8ZM149,25.5c0-2.7-1.6-4.5-5.1-4.5s-5.1,1.7-5.5,4.2h2.9c.1-1,.9-1.8,2.5-1.8s2.2.6,2.2,1.4-1.3,1.3-3,1.5c-2.2.2-4.9,1-4.9,3.9s1.6,3.7,4.3,3.7,3.4-.9,4-2.2c.1,1.2,1,2,2.3,2h1.7v-2.6h-1.4v-5.6h0ZM146.1,28.6c0,1.7-1.4,2.9-3.2,2.9s-2-.5-2-1.4,1.5-1.6,2.8-1.7,2-.4,2.4-1v1.2ZM130.8,21c-1.6,0-3,.7-3.9,1.8v-6.8h-2.9v17.6h2.8v-1.6c1,1.2,2.3,1.9,4,1.9,3.5,0,6.1-2.7,6.1-6.4s-2.7-6.4-6.1-6.4h0ZM130.4,31.2c-2.1,0-3.6-1.6-3.6-3.8s1.5-3.8,3.6-3.8,3.6,1.6,3.6,3.8-1.5,3.8-3.6,3.8ZM117.1,21c-1.9,0-3.1.8-3.8,1.8v-1.6h-2.9v12.4h2.9v-6.7c0-1.9,1.2-3.2,3-3.2s2.7,1.2,2.7,2.9v7.1h2.9v-7.3c0-3.1-1.6-5.3-4.8-5.3h0ZM175.8,27c0-3.5-2.6-6-6.1-6s-6.4,2.8-6.4,6.4,2.9,6.4,6.5,6.4,5.4-1.8,6-4.3h-3c-.4,1.1-1.5,1.7-2.9,1.7s-3.2-1.1-3.6-3.2h9.5v-1.1h0ZM166.4,26c.5-1.7,1.8-2.6,3.2-2.6s2.9.9,3.2,2.6h-6.4Z" style="fill: #0052ff; stroke-width: 0px;"/>
      </g>
    </g>
  </g>
</svg>