<?xml version="1.0" encoding="UTF-8"?>
<svg id="Layer_2" data-name="Layer 2" xmlns="http://www.w3.org/2000/svg" viewBox="0 0 48.3 36.5">
  <g id="Layer_1-2" data-name="Layer 1">
    <g id="discord">
      <path d="M40.6,3c-3.1-1.4-6.3-2.4-9.8-3h-.1c-.4.8-.9,1.7-1.2,2.5-3.7-.6-7.4-.6-11,0-.3-.8-.8-1.7-1.2-2.5h-.2c-3.4.6-6.7,1.6-9.8,3h0C1.1,12.3-.6,21.4.2,30.3H.2c4.1,3.1,8.1,4.9,12,6.2h.2c.9-1.3,1.8-2.6,2.5-4v-.2c-1.3-.5-2.5-1.1-3.7-1.8-.1,0-.1-.2,0-.3.3-.2.5-.4.8-.6h.1c7.9,3.6,16.4,3.6,24.1,0h.2c.2.2.5.4.8.6v.3c-1.2.7-2.4,1.3-3.8,1.8,0,0-.1.1,0,.2.7,1.4,1.5,2.7,2.5,4h.2c3.9-1.2,7.9-3,12-6.1h0c1-10.5-1.7-19.4-7.1-27.4h-.4ZM16,24.9c-2.4,0-4.3-2.2-4.3-4.8s1.9-4.8,4.3-4.8,4.4,2.2,4.3,4.8c0,2.7-1.9,4.8-4.3,4.8ZM32,24.9c-2.4,0-4.3-2.2-4.3-4.8s1.9-4.8,4.3-4.8,4.3,2.2,4.3,4.8-1.9,4.8-4.3,4.8Z" style="fill: #5865f2; stroke-width: 0px;"/>
    </g>
  </g>
</svg>