<?xml version="1.0" encoding="UTF-8"?>
<svg id="Layer_2" data-name="Layer 2" xmlns="http://www.w3.org/2000/svg" xmlns:xlink="http://www.w3.org/1999/xlink" viewBox="0 0 184 50">
  <defs>
    <clipPath id="clippath">
      <rect width="50" height="50" style="fill: none; stroke-width: 0px;"/>
    </clipPath>
    <clipPath id="clippath-1">
      <rect x="84" y="15" width="100" height="20.6" style="fill: none; stroke-width: 0px;"/>
    </clipPath>
  </defs>
  <g id="Layer_5" data-name="Layer 5">
    <g id="facebook">
      <g style="clip-path: url(#clippath);">
        <g>
          <path d="M25,50c13.8,0,25-11.2,25-25S38.8,0,25,0,0,11.2,0,25s11.2,25,25,25Z" style="fill: #3c5a9a; stroke-width: 0px;"/>
          <path d="M33.1,7.7h-5.5c-3.3,0-6.9,1.4-6.9,6.1v5h-3.8v6h3.9v17.4h7.2v-17.5h4.8l.4-6h-5.3v-3.4c0-1.9,2-1.8,2.1-1.8h3.2v-6h0v.2h-.1Z" style="fill: #fff; stroke-width: 0px;"/>
        </g>
      </g>
      <g style="clip-path: url(#clippath-1);">
        <g>
          <path d="M91.8,18c-1.2,0-1.5.5-1.5,1.7v1.9h3.1l-.3,3.1h-2.8v9.3h-3.7v-9.3h-2.5v-3.1h2.5v-1.8c0-3.1,1.2-4.7,4.7-4.7s1.5,0,2.2,0v2.9h-1.7Z" style="fill: #1877f2; stroke-width: 0px;"/>
          <path d="M93.6,27.3c0-3.5,1.6-6,5.1-6s3,1,3.6,2.2v-1.9h3.6v12.4h-3.6v-1.9c-.5,1.2-1.7,2.1-3.6,2.1-3.4,0-5.1-2.6-5.1-6.1v-.8ZM97.4,28.2c0,1.8.7,3.1,2.4,3.1s2.3-1.1,2.3-2.9v-1.2c0-1.8-.8-2.9-2.3-2.9s-2.4,1.2-2.4,3.1v.9h0Z" style="fill: #1877f2; stroke-width: 0px;"/>
          <path d="M113.6,21.3c1.5,0,2.8.3,3.6.8l-.8,2.6c-.8-.4-1.6-.6-2.5-.6-2,0-2.9,1.2-2.9,3.2v.7c0,2,.9,3.2,2.9,3.2s1.7-.2,2.5-.6l.8,2.6c-.8.5-2.1.8-3.6.8-4.4,0-6.4-2.4-6.4-6.2v-.6c0-3.8,2-6.2,6.4-6.2v.3Z" style="fill: #1877f2; stroke-width: 0px;"/>
          <path d="M117.7,28.2v-1.1c0-3.5,2-5.8,6.1-5.8s5.5,2.3,5.5,5.8v2h-7.9c0,1.7.8,2.4,2.9,2.4s2.9-.3,4-.8l.7,2.6c-1,.5-3,.9-4.8.9-4.7,0-6.5-2.4-6.5-6h0ZM121.4,26.6h4.5v-.3c0-1.3-.5-2.4-2.2-2.4s-2.3,1.1-2.3,2.7h0Z" style="fill: #1877f2; stroke-width: 0px;"/>
          <path d="M143.1,28.1c0,3.5-1.7,6-5.1,6s-3.2-.9-3.7-2.1v1.9h-3.5V15.3l3.7-.3v8.3c.5-1.1,1.7-2,3.5-2,3.4,0,5.1,2.6,5.1,6.1v.8h0ZM139.4,27.3c0-1.7-.7-3-2.5-3s-2.4,1.1-2.4,2.9v1.3c0,1.8.8,2.9,2.4,2.9s2.5-1.3,2.5-3v-1.1h0Z" style="fill: #1877f2; stroke-width: 0px;"/>
          <path d="M144.4,28v-.6c0-3.6,2-6.1,6.2-6.1s6.2,2.6,6.2,6.1v.6c0,3.6-2,6.1-6.2,6.1s-6.2-2.6-6.2-6.1ZM153,27.2c0-1.6-.7-2.9-2.4-2.9s-2.4,1.3-2.4,2.9v1.1c0,1.6.7,2.9,2.4,2.9s2.4-1.3,2.4-2.9v-1.1Z" style="fill: #1877f2; stroke-width: 0px;"/>
          <path d="M157.9,28v-.6c0-3.6,2-6.1,6.2-6.1s6.2,2.6,6.2,6.1v.6c0,3.6-2,6.1-6.2,6.1s-6.2-2.6-6.2-6.1ZM166.5,27.2c0-1.6-.7-2.9-2.4-2.9s-2.4,1.3-2.4,2.9v1.1c0,1.6.7,2.9,2.4,2.9s2.4-1.3,2.4-2.9v-1.1Z" style="fill: #1877f2; stroke-width: 0px;"/>
          <path d="M175.4,27.5l3.7-5.9h4l-3.9,6.1,4,6.3h-4l-3.8-6v6h-3.7V15.4l3.7-.3v12.4Z" style="fill: #1877f2; stroke-width: 0px;"/>
        </g>
      </g>
    </g>
  </g>
</svg>