<?xml version="1.0" encoding="UTF-8"?>
<svg id="Layer_2" data-name="Layer 2" xmlns="http://www.w3.org/2000/svg" xmlns:xlink="http://www.w3.org/1999/xlink" viewBox="0 0 48 48">
  <defs>
    <clipPath id="clippath">
      <rect width="48" height="48" style="fill: none; stroke-width: 0px;"/>
    </clipPath>
  </defs>
  <g id="Layer_1-2" data-name="Layer 1">
    <g id="facebook">
      <g style="clip-path: url(#clippath);">
        <g>
          <path d="M48,24C48,10.7,37.2,0,24,0S0,10.7,0,24s8.8,21.9,20.2,23.7v-16.8h-6.1v-6.9h6.1v-5.3c0-6,3.6-9.3,9.1-9.3s5.4.5,5.4.5v5.9h-3c-3,0-3.9,1.9-3.9,3.8v4.5h6.7l-1.1,6.9h-5.6v16.8c11.5-1.8,20.2-11.7,20.2-23.7h0Z" style="fill: #1877f2; stroke-width: 0px;"/>
          <path d="M33.3,30.9l1.1-6.9h-6.7v-4.5c0-1.9.9-3.8,3.9-3.8h3v-5.9s-2.8-.5-5.4-.5c-5.5,0-9.1,3.3-9.1,9.3v5.3h-6.1v6.9h6.1v16.8c2.5.4,5,.4,7.5,0v-16.8h5.7Z" style="fill: #fff; stroke-width: 0px;"/>
        </g>
      </g>
    </g>
  </g>
</svg>