<?xml version="1.0" encoding="UTF-8"?>
<svg id="Layer_2" data-name="Layer 2" xmlns="http://www.w3.org/2000/svg" xmlns:xlink="http://www.w3.org/1999/xlink" viewBox="0 0 48 48">
  <defs>
    <clipPath id="clippath">
      <rect width="48" height="48" style="fill: none; stroke-width: 0px;"/>
    </clipPath>
  </defs>
  <g id="Layer_1-2" data-name="Layer 1">
    <g id="github">
      <g style="clip-path: url(#clippath);">
        <g>
          <path d="M24,1c-5.7,0-11.2,2-15.5,5.7S1.3,15.5.4,21.1s.2,11.3,3.2,16.2c2.9,4.8,7.5,8.5,12.9,10.3,1.2.2,1.6-.5,1.6-1.1v-4.4c-6.7,1.4-8.1-2.8-8.1-2.8-1.1-2.8-2.7-3.5-2.7-3.5-2.2-1.5.2-1.5.2-1.5,2.4.2,3.7,2.5,3.7,2.5,2.1,3.6,5.6,2.6,7,2,.2-1.5.8-2.6,1.5-3.2-5.3-.6-10.9-2.6-10.9-11.8s.9-4.7,2.5-6.4c-.2-.6-1.1-3,.2-6.3,0,0,2-.6,6.6,2.4,3.9-1.1,8.1-1.1,12,0,4.6-3.1,6.6-2.4,6.6-2.4,1.3,3.3.5,5.7.2,6.3,1.6,1.7,2.5,4,2.5,6.4,0,9.2-5.6,11.2-11,11.8.9.7,1.6,2.2,1.6,4.4v6.5c0,.7.4,1.4,1.6,1.1,5.4-1.8,10-5.4,12.9-10.3,2.9-4.8,4.1-10.6,3.2-16.2s-3.8-10.7-8.1-14.4c-4.3-3.7-9.9-5.7-15.6-5.7h0Z" style="fill: #191717; fill-rule: evenodd; stroke-width: 0px;"/>
          <path d="M9.1,35.3c0,.1-.2.2-.4,0-.1,0-.3-.2-.2-.4,0-.1.2-.2.4,0,.2,0,.3.2.2.4Z" style="fill: #191717; stroke-width: 0px;"/>
          <path d="M10.1,36.3h-.3s-.2,0-.2-.1c-.2-.2-.2-.4,0-.5s.3,0,.5.1c.2.2.2.4,0,.5Z" style="fill: #191717; stroke-width: 0px;"/>
          <path d="M11,37.7c-.1.1-.4,0-.5-.2h0v-.5h0c.1-.1.4-.1.5.1s.1.5,0,.6h0Z" style="fill: #191717; stroke-width: 0px;"/>
          <path d="M12.3,39c-.1.1-.4.1-.6,0-.2-.2-.3-.5-.1-.6.1-.1.4-.1.6,0,.2.2.3.5.1.6Z" style="fill: #191717; stroke-width: 0px;"/>
          <path d="M14.1,39.8c0,.2-.3.3-.6.2-.3,0-.5-.3-.4-.5,0-.2.3-.3.6-.2.3,0,.5.3.4.5Z" style="fill: #191717; stroke-width: 0px;"/>
          <path d="M16.1,40c0,.2-.2.4-.5.4s-.5-.2-.5-.3.2-.4.5-.4.5.1.5.3Z" style="fill: #191717; stroke-width: 0px;"/>
          <path d="M17.9,39.6c0,.2-.2.4-.4.4-.3,0-.5,0-.6-.3,0-.2.2-.4.5-.4s.5,0,.6.3h-.1Z" style="fill: #191717; stroke-width: 0px;"/>
        </g>
      </g>
    </g>
  </g>
</svg>