<?xml version="1.0" encoding="UTF-8"?>
<svg id="Layer_2" data-name="Layer 2" xmlns="http://www.w3.org/2000/svg" xmlns:xlink="http://www.w3.org/1999/xlink" viewBox="0 0 175 48.8">
  <defs>
    <clipPath id="clippath">
      <rect x="75" y="11" width="100" height="27.1" style="fill: none; stroke-width: 0px;"/>
    </clipPath>
  </defs>
  <g id="Layer_5" data-name="Layer 5">
    <g id="github">
      <path d="M25,0C11.2,0,0,11.2,0,25s7.2,20.4,17.1,23.7c1.2.2,1.7-.5,1.7-1.2v-4.7c-6.3,1.2-7.9-1.5-8.4-2.9-.3-.7-1.5-2.9-2.6-3.5-.9-.5-2.1-1.6,0-1.7,2,0,3.4,1.8,3.8,2.6,2.3,3.8,5.8,2.7,7.3,2.1.2-1.6.9-2.7,1.6-3.3-5.6-.6-11.4-2.8-11.4-12.3s1-5,2.6-6.7c-.2-.6-1.1-3.2.2-6.6,0,0,2.1-.7,6.9,2.6,2-.6,4.1-.8,6.2-.8s4.2.3,6.2.8c4.8-3.2,6.9-2.6,6.9-2.6,1.4,3.4.5,6,.2,6.6,1.6,1.8,2.6,4,2.6,6.7,0,9.6-5.8,11.7-11.4,12.3.9.8,1.7,2.3,1.7,4.6v6.9c0,.9.5,1.4,1.7,1.2,9.9-3.3,17-12.7,17-23.7S38.7,0,24.9,0h.1Z" style="fill: #1b1f23; fill-rule: evenodd; stroke-width: 0px;"/>
      <g style="clip-path: url(#clippath);">
        <g>
          <path d="M94.2,22.6h-8.4c-.2,0-.4.2-.4.4v4.1c0,.2.2.4.4.4h3.3v5.1s-.7.2-2.8.2-5.8-.9-5.8-8.2,3.5-8.3,6.8-8.3,4.1.5,4.8.7c.2,0,.5-.2.5-.4l.9-4s0-.2-.2-.3c-.3-.2-2.2-1.3-7.1-1.3s-11.3,2.4-11.3,13.8,6.6,13.2,12.1,13.2,7.4-2,7.4-2v-13.1c0-.2-.2-.4-.4-.4h.2Z" style="fill: #161312; stroke-width: 0px;"/>
          <path d="M137.5,12.4c0-.2-.2-.4-.4-.4h-4.7c-.2,0-.4.2-.4.4v9.1h-7.4v-9.1c0-.2-.2-.4-.4-.4h-4.7c-.2,0-.4.2-.4.4v24.7c0,.2.2.4.4.4h4.7c.2,0,.4-.2.4-.4v-10.6h7.4v10.6c0,.2.2.4.4.4h4.7c.2,0,.4-.2.4-.4V12.4Z" style="fill: #161312; stroke-width: 0px;"/>
          <path d="M103.2,15.6c0-1.7-1.4-3.1-3.1-3.1s-3,1.4-3,3.1,1.4,3.1,3,3.1,3.1-1.4,3.1-3.1Z" style="fill: #161312; stroke-width: 0px;"/>
          <path d="M102.8,31.9v-11.4c0-.2-.2-.4-.4-.4h-4.7c-.2,0-.4.2-.4.4v16.4c0,.5.3.6.7.6h4.2c.5,0,.6-.2.6-.6v-5h0Z" style="fill: #161312; stroke-width: 0px;"/>
          <path d="M155.5,20.1h-4.7c-.2,0-.4.2-.4.4v12.1s-1.2.9-2.9.9-2.1-.8-2.1-2.4v-10.6c0-.2-.2-.4-.4-.4h-4.8c-.2,0-.4.2-.4.4v11.4c0,4.9,2.7,6.1,6.5,6.1s5.6-1.7,5.6-1.7c0,0,0,.9.2,1,0,0,.2.2.4.2h3c.2,0,.4-.2.4-.4v-16.6c0-.2-.2-.4-.4-.4h0Z" style="fill: #161312; stroke-width: 0px;"/>
          <path d="M166.4,33.5c-1.6,0-2.7-.8-2.7-.8v-7.8s1.1-.7,2.4-.8c1.7-.2,3.3.4,3.3,4.4s-.7,5.1-3,5h0ZM168.3,19.6c-2.7,0-4.5,1.2-4.5,1.2v-8.4c0-.2-.2-.4-.4-.4h-4.7c-.2,0-.4.2-.4.4v24.7c0,.2.2.4.4.4h3.3c.2,0,.3,0,.3-.2s.2-1.1.2-1.1c0,0,1.9,1.8,5.6,1.8s6.8-2.2,6.8-9.8-4-8.6-6.6-8.6h0Z" style="fill: #161312; stroke-width: 0px;"/>
          <path d="M116.4,20.1h-3.5v-4.7c0-.2,0-.3-.3-.3h-4.8c-.2,0-.3,0-.3.3v4.8s-2.4.6-2.6.6-.3.2-.3.4v3c0,.2.2.4.4.4h2.5v7.3c0,5.4,3.8,6,6.4,6s2.6-.4,2.8-.5c0,0,.2-.2.2-.4v-3.3c0-.2-.2-.4-.4-.4h-1.3c-1.7,0-2.3-.8-2.3-1.9v-7h3.5c.2,0,.4-.2.4-.4v-3.8c0-.2-.2-.4-.4-.4v.3h0Z" style="fill: #161312; stroke-width: 0px;"/>
        </g>
      </g>
    </g>
  </g>
</svg>