<?xml version="1.0" encoding="UTF-8"?>
<svg id="Layer_2" data-name="Layer 2" xmlns="http://www.w3.org/2000/svg" viewBox="0 0 48.2 19.4">
  <g id="Layer_2-2" data-name="Layer 2">
    <g id="go">
      <path d="M27.3,6.1c-.6.1-1.1.3-1.8.5-.3,0-.4.1-.7-.3-.4-.4-.6-.7-1.1-1-1.5-.8-3-.6-4.4.4-1.6,1.1-2.5,2.8-2.5,4.8s1.4,3.7,3.3,4c1.6.2,3-.4,4.1-1.7.2-.3.4-.6.7-.9h-4.7c-.5,0-.6-.3-.5-.8.3-.8.9-2.1,1.2-2.8,0-.2.2-.4.6-.4h7.8c.3-1.2.9-2.3,1.7-3.3,1.8-2.4,3.9-3.7,6.8-4.2,2.5-.5,4.8-.2,6.9,1.3,1.9,1.4,3.1,3.2,3.4,5.7.4,3.4-.5,6.2-2.8,8.6-1.6,1.7-3.5,2.8-5.8,3.2-.4,0-.8.1-1.3.2h-.7c-2.2,0-4.2-.7-5.9-2.2-1.2-1.1-2-2.4-2.4-3.9-.3.6-.6,1.2-1,1.7-1.7,2.4-4,3.9-6.9,4.3-2.4.3-4.6-.2-6.5-1.7-1.8-1.4-2.8-3.3-3.1-5.6-.3-2.8.5-5.3,2.1-7.4,1.7-2.4,4-3.9,6.8-4.4,2.3-.4,4.4-.2,6.4,1.2,1.3.9,2.2,2.1,2.8,3.6.1.2,0,.4-.2.4-.9.2-1.5.4-2.2.6h0ZM43.2,9v.3c-.1,2.2-1.1,3.8-3.1,4.9-1.3.7-2.6.8-3.9.1-1.7-.8-2.7-2.8-2.2-4.8.5-2.4,2-3.9,4.2-4.4,2.3-.6,4.5.9,4.9,3.4v.6h.1Z" style="fill: #00acd7; fill-rule: evenodd; stroke-width: 0px;"/>
      <path d="M3.8,5.8h0c0,.1,7.2.1,7.2.1,0,0,.2,0,.2-.1l.4-.7v-.2h-7.1c-.1,0-.2,0-.3.1l-.5.7h0Z" style="fill: #00acd7; stroke-width: 0px;"/>
      <path d="M0,8.1H0c0,.1,9.9.1,9.9.1.1,0,.2,0,.2-.2l.2-.6s0-.2-.1-.2H.8s-.2,0-.3.1l-.5.7h0Z" style="fill: #00acd7; stroke-width: 0px;"/>
      <path d="M6,10.4v.2h3.7s.2,0,.2-.2v-.8h-3.3c-.1,0-.2,0-.2.2l-.3.6h-.1Z" style="fill: #00acd7; stroke-width: 0px;"/>
    </g>
  </g>
</svg>