<?xml version="1.0" encoding="UTF-8"?>
<svg id="Layer_2" data-name="Layer 2" xmlns="http://www.w3.org/2000/svg" xmlns:xlink="http://www.w3.org/1999/xlink" viewBox="0 0 187 51.1">
  <defs>
    <clipPath id="clippath">
      <rect width="50" height="51.1" style="fill: none; stroke-width: 0px;"/>
    </clipPath>
    <clipPath id="clippath-1">
      <rect x="87" y="10" width="100" height="32.6" style="fill: none; stroke-width: 0px;"/>
    </clipPath>
  </defs>
  <g id="Layer_5" data-name="Layer 5">
    <g id="google">
      <g style="clip-path: url(#clippath);">
        <g>
          <path d="M50,26.2c0-1.7-.2-3.5-.4-5.2h-24.1v9.8h13.8c-.6,3.2-2.4,5.9-5.1,7.7l8.2,6.4c4.8-4.5,7.6-11.1,7.6-18.8h0Z" style="fill: #4280ef; stroke-width: 0px;"/>
          <path d="M25.5,51.1c6.9,0,12.7-2.3,16.9-6.2l-8.2-6.3c-2.3,1.6-5.2,2.4-8.7,2.4-6.7,0-12.3-4.5-14.3-10.5l-8.4,6.5c4.3,8.6,13.1,14.1,22.8,14.1h-.1Z" style="fill: #34a353; stroke-width: 0px;"/>
          <path d="M11.2,30.4c-1.1-3.2-1.1-6.6,0-9.8L2.8,14c-3.6,7.2-3.6,15.7,0,22.9l8.4-6.6h0Z" style="fill: #f6b704; stroke-width: 0px;"/>
          <path d="M25.5,10.2c3.6,0,7.2,1.3,9.8,3.8l7.3-7.3C38,2.4,31.9,0,25.5.1,15.8.1,7.1,5.5,2.7,14.2l8.4,6.6c2.1-6.1,7.7-10.5,14.3-10.5h.1Z" style="fill: #e54335; stroke-width: 0px;"/>
        </g>
      </g>
      <g style="clip-path: url(#clippath-1);">
        <g>
          <path d="M99.3,10h.9c3.1,0,6.1,1.3,8.3,3.5-.8.8-1.6,1.6-2.4,2.4-1.2-1.1-2.7-2-4.3-2.3-2.4-.5-4.9,0-6.9,1.3-2.2,1.4-3.7,3.8-4,6.4-.4,2.6.4,5.2,2,7.2,1.6,1.9,4,3.1,6.5,3.2,2.4,0,4.8-.6,6.5-2.2,1.4-1.2,2-2.9,2.2-4.6h-8.4v-3.5h11.7c.6,3.7-.3,7.9-3.1,10.5-1.9,1.9-4.5,3-7.1,3.2-2.6.3-5.2-.2-7.5-1.5-2.7-1.5-4.9-3.9-6-6.8-1-2.7-1-5.7,0-8.4.9-2.5,2.5-4.6,4.6-6.1,2-1.5,4.5-2.3,7-2.5v.2h0Z" style="fill: #3780ff; stroke-width: 0px;"/>
          <path d="M166.6,10.9h3.6v24h-3.6V11h0Z" style="fill: #38b137; stroke-width: 0px;"/>
          <path d="M119.5,19.2c2.2-.4,4.6,0,6.4,1.4,1.7,1.2,2.8,3,3.2,5,.4,2.3-.1,4.9-1.6,6.7-1.6,2.1-4.3,3.2-6.9,3-2.4,0-4.7-1.3-6.1-3.3-1.6-2.1-2-5.1-1.1-7.6.9-2.7,3.3-4.8,6.1-5.3h0ZM120,22.4c-.9.2-1.7.8-2.3,1.5-1.6,1.9-1.5,5.1.3,6.9s2.6,1.5,4,1.2c1.3-.2,2.5-1.1,3.1-2.3,1.1-2,.8-4.7-.9-6.3-1.1-1-2.7-1.4-4.1-1.1h-.1Z" style="fill: #fa3913; stroke-width: 0px;"/>
          <path d="M137.2,19.2c2.5-.5,5.3.2,7.2,2,3.1,2.8,3.4,8,.8,11.1-1.6,2-4.2,3.1-6.7,3-2.4,0-4.8-1.3-6.3-3.3-1.6-2.2-2-5.2-1.1-7.8s3.3-4.6,6.1-5.1h0ZM137.8,22.4c-.9.2-1.8.8-2.4,1.5-1.6,1.9-1.5,5,.2,6.9,1,1.1,2.6,1.6,4.1,1.3,1.3-.3,2.5-1.1,3.1-2.3,1.1-2,.8-4.8-.9-6.3-1.1-1-2.7-1.4-4.1-1h0Z" style="fill: #fcbd06; stroke-width: 0px;"/>
          <path d="M152.3,20.2c1.9-1.2,4.5-1.5,6.6-.5.7.3,1.2.8,1.7,1.3v-1.4h3.4v14.8c0,2.2-.6,4.6-2.2,6.2-1.8,1.8-4.5,2.3-6.9,2-2.6-.4-4.9-2.3-5.9-4.7,1-.5,2.1-.9,3.1-1.3.6,1.4,1.8,2.5,3.3,2.8s3.2,0,4.2-1.3,1-3,1-4.6c-.8.8-1.7,1.4-2.7,1.7-2.3.7-4.9-.2-6.7-1.7-1.8-1.6-2.9-4-2.8-6.4,0-2.7,1.6-5.4,3.9-6.8h0ZM155.8,22.3c-1,.2-2,.7-2.6,1.5-1.6,1.9-1.6,4.9,0,6.7.9,1.1,2.4,1.7,3.8,1.5,1.3,0,2.6-1,3.2-2.1,1.1-2,.9-4.6-.6-6.3-.9-1.1-2.4-1.6-3.8-1.3h0Z" style="fill: #3780ff; stroke-width: 0px;"/>
          <path d="M174.5,21c2-1.9,5.1-2.5,7.7-1.5,2.4.9,4,3.3,4.8,5.7-3.6,1.5-7.3,3-10.9,4.5.5,1,1.3,1.8,2.3,2.2,1.5.5,3.2.3,4.4-.6.5-.4.9-.9,1.2-1.3.9.6,1.8,1.2,2.8,1.8-1.3,2-3.5,3.3-5.9,3.6-2.6.3-5.4-.7-7.1-2.7-2.8-3.2-2.5-8.6.6-11.5v-.2h0ZM176.3,24.1c-.6.8-.8,1.8-.8,2.8,2.4-1,4.9-2,7.3-3-.4-.9-1.4-1.5-2.4-1.7-1.6-.3-3.3.6-4.1,1.9Z" style="fill: #fa3913; stroke-width: 0px;"/>
        </g>
      </g>
    </g>
  </g>
</svg>