<?xml version="1.0" encoding="UTF-8"?>
<svg id="Layer_2" data-name="Layer 2" xmlns="http://www.w3.org/2000/svg" xmlns:xlink="http://www.w3.org/1999/xlink" viewBox="0 0 193 39.2">
  <defs>
    <clipPath id="clippath">
      <rect x="143" y="8.6" width="50" height="20" style="fill: none; stroke-width: 0px;"/>
    </clipPath>
  </defs>
  <g id="Layer_5" data-name="Layer 5">
    <g id="ibm">
      <g style="clip-path: url(#clippath);">
        <path d="M143.5,8.8v1.3h9.5v-1.3h-9.5ZM154.4,8.8v1.3h13.6s-1.4-1.3-3.2-1.3h-10.4ZM170.6,8.8v1.3h8.2l-.5-1.3h-7.7ZM184.8,8.8l-.5,1.3h8.1v-1.3h-7.6ZM143.5,11.4v1.3h9.5v-1.3h-9.5ZM154.4,11.4v1.3h15.2s-.2-1-.5-1.3h-14.7ZM170.6,11.4v1.3h9.1l-.4-1.3h-8.7ZM183.8,11.4l-.4,1.3h9.1v-1.3h-8.7ZM146.3,14v1.3h4.1v-1.3h-4.1ZM157.1,14v1.3h4.1v-1.3h-4.1ZM165.3,14v1.3h4.1s.3-.7.3-1.3h-4.4ZM173.4,14v1.3h7.3l-.5-1.3h-6.8ZM182.9,14l-.5,1.3h7.4v-1.3h-6.9ZM146.3,16.6v1.3h4.1v-1.3h-4.1ZM157.1,16.6v1.3h10.5s.9-.7,1.2-1.3h-11.7ZM173.4,16.6v1.3h4.1v-.8l.3.8h7.6l.3-.8v.8h4.1v-1.3h-7.8l-.4,1.1-.4-1.1h-7.8ZM146.3,19.2v1.3h4.1v-1.3h-4.1ZM157.1,19.2v1.3h11.7c-.3-.7-1.2-1.3-1.2-1.3h-10.5ZM173.4,19.2v1.3h4.1v-1.3h-4.1ZM178.3,19.2l.5,1.3h5.7l.5-1.3h-6.7ZM185.6,19.2v1.3h4.1v-1.3h-4.1ZM146.3,21.8v1.3h4.1v-1.3h-4.1ZM157.1,21.8v1.3h4.1v-1.3h-4.1ZM165.3,21.8v1.3h4.4c0-.6-.3-1.3-.3-1.3h-4.1,0ZM173.4,21.8v1.3h4.1v-1.3h-4.1ZM179.2,21.8l.5,1.3h3.8l.5-1.3h-4.8ZM185.6,21.8v1.3h4.1v-1.3h-4.1ZM143.6,24.4v1.3h9.5v-1.3h-9.5ZM154.4,24.4v1.3h14.7c.3-.3.5-1.3.5-1.3h-15.2ZM170.7,24.4v1.3h6.8v-1.3h-6.8ZM180.1,24.4l.5,1.3h1.9l.5-1.3h-2.9ZM185.6,24.4v1.3h6.9v-1.3h-6.9ZM143.6,27v1.3h9.5v-1.3h-9.5ZM154.4,27v1.3h10.4c1.8,0,3.2-1.3,3.2-1.3h-13.6,0ZM170.7,27v1.3h6.8v-1.3h-6.8ZM181.1,27l.5,1.3h0l.5-1.3h-1ZM185.6,27v1.3h6.9v-1.3h-6.9Z" style="fill: #000; stroke-width: 0px;"/>
      </g>
      <path d="M0,0v2.7h19.1V0H0ZM21.8,0v2.7h27.2s-2.8-2.7-6.4-2.7h-20.8ZM54.3,0v2.7h16.4l-1-2.7h-15.5.1ZM82.5,0l-1,2.7h16.3V0h-15.3ZM0,5.2v2.7h19.1v-2.7H0ZM21.8,5.2v2.7h30.3s-.4-2.1-1-2.7h-29.3ZM54.3,5.2v2.7h18.2l-.9-2.7h-17.3ZM80.6,5.2l-.9,2.7h18.2v-2.7h-17.3ZM5.5,10.4v2.7h8.2v-2.7H5.5ZM27.3,10.4v2.7h8.3v-2.7h-8.3ZM43.6,10.4v2.7h8.3s.5-1.4.5-2.7h-8.8ZM59.8,10.4v2.7h14.6l-1-2.7h-13.6ZM78.8,10.4l-1,2.7h14.7v-2.7h-13.7ZM5.5,15.7v2.7h8.3v-2.7H5.5ZM27.3,15.7v2.7h21.1s1.8-1.4,2.3-2.7h-23.4ZM59.8,15.7v2.7h8.3v-1.5l.5,1.5h15.1l.6-1.5v1.5h8.3v-2.7h-15.5l-.8,2.3-.8-2.3h-15.7ZM5.5,20.9v2.7h8.2v-2.7H5.5ZM27.3,20.9v2.7h23.4c-.6-1.3-2.3-2.7-2.3-2.7h-21.1,0ZM59.8,20.9v2.7h8.3v-2.7h-8.3ZM69.5,20.9l1,2.7h11.3l.9-2.7h-13.3.1ZM84.2,20.9v2.7h8.2v-2.7h-8.2ZM5.5,26.1v2.7h8.3v-2.7H5.5ZM27.3,26.1v2.7h8.2v-2.7h-8.2ZM43.6,26.1v2.7h8.8c0-1.3-.5-2.7-.5-2.7h-8.3ZM59.8,26.1v2.7h8.3v-2.7h-8.3ZM71.4,26.1l1,2.7h7.6l1-2.7h-9.6ZM84.2,26.1v2.7h8.2v-2.7h-8.2ZM.2,31.3v2.7h19.1v-2.7H.2ZM21.8,31.3v2.7h29.3c.6-.6,1-2.7,1-2.7h-30.3ZM54.4,31.3v2.7h13.6v-2.7h-13.6ZM73.3,31.3l1,2.7h3.9l.9-2.7h-5.8,0ZM84.2,31.3v2.7h13.7v-2.7h-13.7ZM.2,36.5v2.7h19.1v-2.7H.2ZM21.8,36.5v2.7h20.7c3.7,0,6.4-2.7,6.4-2.7h-27.2.1ZM54.4,36.5v2.7h13.6v-2.7h-13.6ZM75.2,36.5l1,2.7h.2l1-2.7h-2.2ZM84.2,36.5v2.7h13.7v-2.7h-13.7Z" style="fill: #000; stroke-width: 0px;"/>
    </g>
  </g>
</svg>