<?xml version="1.0" encoding="UTF-8"?>
<svg id="Layer_2" data-name="Layer 2" xmlns="http://www.w3.org/2000/svg" xmlns:xlink="http://www.w3.org/1999/xlink" viewBox="0 0 185 49.2">
  <defs>
    <clipPath id="clippath">
      <rect width="50" height="49.2" style="fill: none; stroke-width: 0px;"/>
    </clipPath>
    <clipPath id="clippath-1">
      <rect x="85" y="12" width="100" height="25.4" style="fill: none; stroke-width: 0px;"/>
    </clipPath>
  </defs>
  <g id="Layer_5" data-name="Layer 5">
    <g id="linkedin">
      <g style="clip-path: url(#clippath);">
        <path d="M42.5,41.8h-7.3v-11.4c0-2.7,0-6.2-3.8-6.2s-4.4,3-4.4,6v11.6h-7.3v-23.4h7v3.2h0c.7-1.2,1.7-2.2,2.9-2.8,1.2-.7,2.6-1,4-.9,7.4,0,8.7,4.8,8.7,11.2v12.8h.2ZM11.6,15.2c-.8,0-1.7-.2-2.3-.7-.7-.5-1.2-1.1-1.6-1.9-.3-.8-.4-1.6-.2-2.4.2-.8.6-1.6,1.2-2.2s1.3-1,2.2-1.2c.8-.2,1.7,0,2.4.2.8.3,1.4.9,1.9,1.6s.7,1.5.7,2.3,0,1.1-.3,1.6c-.2.5-.5,1-.9,1.4s-.9.7-1.4.9c-.5.2-1.1.3-1.6.3h0ZM15.2,41.8h-7.3v-23.4h7.3v23.4ZM46.1,0H4.3c-1,0-1.9.4-2.6,1-.7.7-1.1,1.6-1.1,2.5v42c0,.9.4,1.9,1.1,2.5.7.7,1.6,1,2.6,1h41.8c1,0,1.9-.3,2.6-1s1.1-1.6,1.1-2.5V3.5c0-1-.4-1.9-1.1-2.5-.7-.7-1.6-1-2.6-1h0Z" style="fill: #0a66c2; stroke-width: 0px;"/>
      </g>
      <g style="clip-path: url(#clippath-1);">
        <path d="M181.1,33.6h-3.8v-5.9c0-1.4,0-3.2-1.9-3.2s-2.3,1.5-2.3,3.1v6h-3.8v-12.1h3.6v1.7h0c.4-.6.9-1.1,1.5-1.5.6-.3,1.3-.5,2.1-.5,3.8,0,4.5,2.5,4.5,5.8v6.6h.1ZM165.2,19.8c-.4,0-.8,0-1.2-.4-.3-.2-.6-.6-.8-1-.2-.4-.2-.8,0-1.2,0-.4.3-.8.6-1.1s.7-.5,1.1-.6h1.3c.4.2.7.4,1,.8.2.4.4.8.4,1.2s0,.6-.2.8c0,.3-.3.5-.5.7s-.4.4-.7.5c-.3,0-.6.2-.8.2h-.2ZM167.1,33.6h-3.8v-12.1h3.8v12.1ZM183,12h-21.6c-.5,0-1,.2-1.3.5s-.6.8-.6,1.3v21.7c0,.5.2,1,.6,1.3.3.3.8.5,1.3.5h21.6c.5,0,1-.2,1.3-.5s.5-.8.6-1.3V13.8c0-.5-.2-.9-.6-1.3-.4-.3-.8-.5-1.3-.5h0ZM149.4,24.4c-1.9,0-3,1.2-3,3.1s1.1,3.1,3,3.1,3-1.2,3-3.1-1.1-3.1-3-3.1ZM155.8,33.6h-3.5v-1.6h0c-.4.6-1,1.1-1.6,1.4-.7.3-1.4.5-2.1.5-3.6,0-6-2.6-6-6.3s2.1-6.5,5.6-6.5,3,.4,3.8,1.6h0v-7h3.8v17.8h0ZM137.8,26.1c0-.3,0-.6-.2-.9,0-.3-.3-.5-.5-.8-.2-.2-.5-.4-.8-.5s-.6-.2-.9-.2c-.7,0-1.3.2-1.8.6s-.8,1-.8,1.7h5ZM141,31.5c-.6.8-1.4,1.4-2.3,1.8s-1.9.6-2.8.6c-3.8,0-6.8-2.5-6.8-6.4s3-6.4,6.8-6.4,5.7,2.5,5.7,6.4v1.2h-8.7c0,.7.5,1.3,1,1.7.5.4,1.2.7,1.8.7s1.1,0,1.5-.4c.5-.3.9-.6,1.2-1.1l2.6,1.9h0ZM103.7,21.5h3.6v1.7h0c.4-.6.9-1.1,1.5-1.5s1.3-.5,2.1-.5c3.8,0,4.5,2.5,4.5,5.8v6.6h-3.8v-5.9c0-1.4,0-3.2-2-3.2s-2.2,1.5-2.2,3.1v6h-3.8v-12.1h.1ZM117.3,15.7h3.8v10.7l4.2-4.9h4.6l-4.9,5.6,4.8,6.5h-4.7l-4-6h0v6h-3.8V15.8h0ZM97.9,21.5h3.8v12.1h-3.8v-12.1ZM99.7,15.5c.4,0,.8,0,1.2.4.4.2.6.6.8,1,.2.4.2.8,0,1.3,0,.4-.3.8-.6,1.1s-.7.5-1.1.6h-1.2c-.4-.2-.7-.4-1-.8-.2-.3-.4-.8-.4-1.2s0-.6.2-.8c0-.3.3-.5.5-.7s.4-.4.7-.5c.3,0,.5-.2.8-.2h0v-.2ZM85,15.7h3.9v14.2h7.2v3.6h-11.1V15.7h0Z" style="fill: #0a66c2; stroke-width: 0px;"/>
      </g>
    </g>
  </g>
</svg>