<?xml version="1.0" encoding="UTF-8"?>
<svg id="Layer_2" data-name="Layer 2" xmlns="http://www.w3.org/2000/svg" xmlns:xlink="http://www.w3.org/1999/xlink" viewBox="0 0 48 48">
  <defs>
    <clipPath id="clippath">
      <rect width="48" height="48" style="fill: none; stroke-width: 0px;"/>
    </clipPath>
  </defs>
  <g id="Layer_1-2" data-name="Layer 1">
    <g id="linkedin">
      <g style="clip-path: url(#clippath);">
        <path d="M44.5,0H3.6c-.9,0-1.8.4-2.5,1C.4,1.7.1,2.6.1,3.5v40.9c0,.9.4,1.8,1,2.5.7.7,1.6,1,2.5,1h40.9c.9,0,1.8-.4,2.5-1,.7-.7,1-1.6,1-2.5V3.5c0-.9-.4-1.8-1-2.5-.7-.7-1.6-1-2.5-1ZM14.3,40.9h-7.2v-22.9h7.2v22.9ZM10.7,14.8c-.8,0-1.6-.3-2.3-.7-.7-.5-1.2-1.1-1.5-1.9-.3-.8-.4-1.6-.2-2.4.2-.8.6-1.5,1.1-2.1.6-.6,1.3-1,2.1-1.1.8-.2,1.6,0,2.4.2.8.3,1.4.8,1.9,1.5s.7,1.5.7,2.3,0,1.1-.3,1.6-.5,1-.9,1.4-.9.7-1.4.9c-.5.2-1,.3-1.6.3h0ZM40.9,40.9h-7.2v-12.5c0-3.7-1.6-4.8-3.6-4.8s-4.2,1.6-4.2,4.9v12.4h-7.2v-22.9h6.9v3.2h0c.7-1.4,3.1-3.8,6.9-3.8s8.4,2.4,8.4,9.4v14.2h0Z" style="fill: #0a66c2; stroke-width: 0px;"/>
      </g>
    </g>
  </g>
</svg>