<?xml version="1.0" encoding="UTF-8"?>
<svg id="Layer_2" data-name="Layer 2" xmlns="http://www.w3.org/2000/svg" xmlns:xlink="http://www.w3.org/1999/xlink" viewBox="0 0 191 50">
  <defs>
    <clipPath id="clippath">
      <rect width="50" height="50" style="fill: none; stroke-width: 0px;"/>
    </clipPath>
    <clipPath id="clippath-1">
      <rect x="91" y="14" width="100" height="21.3" style="fill: none; stroke-width: 0px;"/>
    </clipPath>
  </defs>
  <g id="Layer_5" data-name="Layer 5">
    <g id="microsoft">
      <g style="clip-path: url(#clippath);">
        <g>
          <path d="M23.8,0H0v23.8h23.8V0Z" style="fill: #f25022; stroke-width: 0px;"/>
          <path d="M50,0h-23.8v23.8h23.8V0Z" style="fill: #7fba00; stroke-width: 0px;"/>
          <path d="M23.8,26.2H0v23.8h23.8v-23.8Z" style="fill: #00a4ef; stroke-width: 0px;"/>
          <path d="M50,26.2h-23.8v23.8h23.8v-23.8Z" style="fill: #ffb900; stroke-width: 0px;"/>
        </g>
      </g>
      <g style="clip-path: url(#clippath-1);">
        <g>
          <path d="M132.5,18.3v12.8h-2.2v-10h0l-4,10h-1.5l-4.1-10h0v10h-2v-12.8h3.2l3.7,9.5h0l3.9-9.5h3ZM134.4,19.2c0-.4.1-.7.4-.9.3-.2.6-.4.9-.4s.7,0,.9.4c.2.2.4.5.4.9s-.1.7-.4.9c-.3.2-.6.4-.9.4s-.7,0-.9-.4-.4-.6-.4-.9ZM136.8,21.9v9.2h-2.2v-9.2h2.2ZM143.3,29.5c.3,0,.7,0,1.1-.2.4-.2.7-.4,1.1-.6v2c-.4.2-.7.3-1.2.4-.4,0-.9.2-1.4.2-1.4,0-2.5-.4-3.3-1.3-.9-.9-1.3-2-1.3-3.3s.4-2.7,1.3-3.6c.9-.9,2.1-1.4,3.7-1.4s.8,0,1.2.2c.4,0,.7.2,1,.4v2.1c-.3-.2-.7-.4-1-.6-.3,0-.7-.2-1.1-.2-.9,0-1.5.3-2.1.8-.5.6-.8,1.3-.8,2.2s.3,1.7.8,2.2,1.2.8,2,.8h0ZM151.6,21.7h.8v2.2c-.1,0-.3-.2-.5-.2h-.8c-.5,0-1,.2-1.3.7-.4.5-.6,1.1-.6,2.1v4.6h-2.2v-9.2h2.2v1.4h0c.2-.5.5-.9.9-1.2.4-.3.9-.4,1.4-.4h.1ZM152.5,26.6c0-1.5.4-2.7,1.3-3.6.9-.9,2-1.3,3.6-1.3s2.5.4,3.3,1.3,1.2,2,1.2,3.5-.4,2.7-1.3,3.5c-.9.9-2,1.3-3.5,1.3s-2.5-.4-3.4-1.2c-.8-.9-1.2-2-1.2-3.4h0ZM154.8,26.5c0,.9.2,1.7.6,2.2.4.5,1.1.8,1.9.8s1.4-.2,1.8-.8c.4-.5.6-1.2.6-2.2s-.2-1.7-.6-2.2c-.4-.5-1-.8-1.8-.8s-1.4.3-1.8.8c-.5.6-.7,1.3-.7,2.3h0ZM165.1,24.3c0,.3,0,.6.3.7.2.2.6.4,1.3.6.9.4,1.5.7,1.8,1.2.4.4.5,1,.5,1.6s-.3,1.5-1,2.1c-.7.5-1.6.8-2.7.8s-.8,0-1.3-.2c-.5,0-.9-.2-1.2-.3v-2.1c.4.3.8.5,1.3.7.4,0,.9.2,1.2.2s.9,0,1.1-.2c.2-.2.4-.4.4-.7s-.1-.5-.4-.8c-.2-.2-.7-.4-1.4-.7-.8-.3-1.4-.7-1.7-1.1s-.5-.9-.5-1.6.3-1.5,1-2,1.5-.8,2.5-.8h1.1c.4,0,.7.2,1,.3v2.1c-.3-.2-.6-.4-1-.5-.4-.2-.8-.2-1.1-.2s-.7,0-.9.2-.3.4-.3.7h0ZM170,26.6c0-1.5.4-2.7,1.3-3.6.9-.9,2-1.3,3.6-1.3s2.5.4,3.3,1.3,1.2,2,1.2,3.5-.4,2.7-1.3,3.5c-.9.9-2,1.3-3.5,1.3s-2.5-.4-3.4-1.2c-.8-.9-1.2-2-1.2-3.4h0ZM172.2,26.5c0,.9.2,1.7.7,2.2.4.5,1.1.8,1.9.8s1.4-.2,1.8-.8c.4-.5.6-1.2.6-2.2s-.2-1.7-.6-2.2c-.4-.5-1-.8-1.8-.8s-1.4.3-1.8.8c-.5.6-.7,1.3-.7,2.3h0ZM186.5,23.6h-3.2v7.4h-2.2v-7.4h-1.5v-1.8h1.5v-1.3c0-.9.3-1.8.9-2.4.6-.6,1.4-.9,2.4-.9s.5,0,.7,0h.5v1.9h-1c-.4,0-.8.2-1,.4-.2.3-.3.7-.3,1.2v1.1h3.2v-2.1l2.2-.7v2.7h2.2v1.8h-2.2v4.3c0,.6.1.9.3,1.2.2.2.5.3,1,.3s.3,0,.4,0c.2,0,.3,0,.4-.2v1.8c-.2,0-.4,0-.7.2h-.9c-.9,0-1.6-.2-2.1-.7-.4-.5-.7-1.2-.7-2.2v-4.7h.1Z" style="fill: #737373; stroke-width: 0px;"/>
          <path d="M101.1,14h-10.1v10.1h10.1v-10.1Z" style="fill: #f25022; stroke-width: 0px;"/>
          <path d="M112.3,14h-10.1v10.1h10.1v-10.1Z" style="fill: #7fba00; stroke-width: 0px;"/>
          <path d="M101.1,25.2h-10.1v10.1h10.1v-10.1Z" style="fill: #00a4ef; stroke-width: 0px;"/>
          <path d="M112.3,25.2h-10.1v10.1h10.1v-10.1Z" style="fill: #ffb900; stroke-width: 0px;"/>
        </g>
      </g>
    </g>
  </g>
</svg>