<?xml version="1.0" encoding="UTF-8"?>
<svg id="Layer_2" data-name="Layer 2" xmlns="http://www.w3.org/2000/svg" xmlns:xlink="http://www.w3.org/1999/xlink" viewBox="0 0 176 35">
  <defs>
    <clipPath id="clippath">
      <rect width="50" height="35" style="fill: none; stroke-width: 0px;"/>
    </clipPath>
    <clipPath id="clippath-1">
      <rect x="76" y="6" width="100" height="22.8" style="fill: none; stroke-width: 0px;"/>
    </clipPath>
  </defs>
  <g id="Layer_5" data-name="Layer 5">
    <g id="salesforce">
      <g style="clip-path: url(#clippath);">
        <g>
          <path d="M20.7,3.9c1.6-1.7,3.8-2.7,6.3-2.7s6.2,1.8,7.7,4.6c1.4-.6,2.8-.9,4.3-.9,5.9,0,10.8,4.8,10.8,10.8s-4.8,10.8-10.8,10.8-1.4,0-2.1-.2c-1.3,2.4-3.9,4-6.8,4s-2.4-.3-3.4-.8c-1.4,3.2-4.5,5.5-8.2,5.5s-7.1-2.4-8.4-5.9c-.6.1-1.1.2-1.7.2C3.8,29.3.1,25.5.1,20.9s1.7-5.8,4.2-7.3c-.5-1.2-.8-2.5-.8-3.9C3.5,4.3,7.8,0,13.2,0s5.9,1.5,7.7,3.8" style="fill: #00a1e0; fill-rule: evenodd; stroke-width: 0px;"/>
          <path d="M7.2,18.2h0c0,.1.2.2.3.3.5.3,1,.4,1.5.4,1,0,1.7-.5,1.7-1.4h0c0-.8-.7-1.1-1.4-1.3h0c-.5-.2-.9-.3-.9-.7h0c0-.3.3-.5.7-.5s1,.1,1.3.3h.1s.2-.5.2-.6h0c-.4-.3-.9-.5-1.5-.5h-.1c-.9,0-1.6.6-1.6,1.4h0c0,.9.7,1.1,1.4,1.3h.1c.5.2.9.3.9.7h0c0,.3-.3.6-.7.6s-.7,0-1.3-.4h-.3l-.2.6h0l-.2-.2h0ZM22.2,18.2h0c0,.1.2.2.3.3.5.3,1,.4,1.5.4,1,0,1.7-.6,1.7-1.4h0c0-.8-.7-1.1-1.4-1.3h0c-.5-.2-.9-.3-.9-.7h0c0-.3.3-.5.7-.5s1,.2,1.3.3h0s.2-.5.2-.6h0c-.4-.3-.9-.5-1.5-.5h0c-.9,0-1.6.6-1.6,1.4h0c0,.9.7,1.1,1.4,1.3h0c.5.2.9.3.9.7h0c0,.3-.3.6-.7.6s-.7,0-1.3-.4h-.3l-.2.6h0l-.2-.2h0ZM32.4,16.5c0,.5,0,.9-.3,1.2-.2.3-.5.4-.8.4s-.7-.1-.8-.4c-.2-.3-.3-.7-.3-1.2s0-.9.3-1.1c.2-.3.4-.4.8-.4s.7.1.8.4c.2.3.3.7.3,1.1h0ZM33.3,15.6c0-.3-.2-.5-.4-.7s-.4-.4-.7-.5-.6-.2-.9-.2-.7,0-.9.2c-.3.1-.5.3-.7.5s-.3.5-.4.7v1.8c0,.3.2.5.4.7s.4.4.7.5.6.2.9.2.7,0,.9-.2c.3-.1.5-.3.7-.5s.3-.5.4-.7v-1.8h0ZM40.3,17.9h0s-.3,0-.4.1h-.5c-.4,0-.7-.1-1-.4-.2-.2-.4-.6-.4-1.2s0-.8.3-1.1.5-.4.9-.4.6,0,.9.1h0c0-.2,0-.4.2-.6h0s-.4-.1-.6-.2h-.6c-.4,0-.7,0-1,.2-.3.1-.5.3-.7.5s-.3.5-.4.7v.9c0,.7.2,1.3.6,1.7.4.4.9.6,1.7.6s.9,0,1.2-.2h0c0-.1-.2-.7-.2-.7h.2-.2ZM41.8,16c0-.3,0-.5.2-.7.2-.3.4-.4.8-.4s.6.2.8.4c0,.2.2.4.2.7h-2.1,0ZM44.6,15.4c0-.3-.3-.5-.4-.7-.2-.2-.4-.3-.5-.4-.3-.1-.5-.2-.8-.2s-.7,0-1,.2c-.3.1-.5.3-.7.5s-.3.5-.4.8v1.8c0,.3.2.5.4.7s.4.4.7.5.6.2,1,.2c.8,0,1.3-.2,1.5-.3h0c0-.1-.2-.6-.2-.6h0c-.2,0-.5.2-1.2.2s-.8-.1-1-.3-.3-.5-.3-1h2.9v-1.2h0v-.2h0ZM18.6,16c0-.3,0-.5.2-.7.2-.3.4-.4.8-.4s.6.2.8.4c0,.2.2.4.2.7h-2.1,0ZM21.5,15.4c0-.3-.3-.5-.4-.7-.2-.2-.4-.3-.5-.4-.3-.1-.5-.2-.8-.2s-.7,0-1,.2c-.3.1-.5.3-.7.5s-.3.5-.4.8v1.8c0,.3.2.5.4.7s.4.4.7.5.6.2,1,.2c.8,0,1.3-.2,1.5-.3h0c0-.1-.2-.6-.2-.6h0c-.2,0-.5.2-1.2.2s-.8-.1-1-.3-.3-.5-.3-1h2.9v-1.2h0v-.2h0ZM12.4,17.9s0-.1-.2-.2v-.4c0-.2,0-.4.3-.6,0,0,.2-.2.8-.2h.8v1.3h0s-.4,0-.8.1c-.6,0-.8-.2-.8-.2h0v.2h0ZM13.5,15.9h-1.2c-.2,0-.4.2-.6.3s-.3.3-.4.5-.2.4-.2.7,0,.5.1.7c0,.2.2.3.4.4.2.1.4.2.6.2h1.7c.2,0,.5,0,.7-.1h.2v-2.7c0-.6-.2-1-.5-1.3s-.7-.4-1.3-.4h-.8s-.6.1-.9.3h0c0,.1.2.7.2.7h0c.6-.3,1.3-.3,1.3-.3.3,0,.6,0,.7.2.2.1.2.3.2.7h-.5.3,0ZM36.8,14.4h-.5c-.4,0-.6,0-.7.1-.2,0-.4.2-.5.4v-.3h-.7v4.3h.8v-3c0-.2,0-.3.3-.4,0-.1.2-.2.4-.2h.8c0-.1.2-.5.2-.6" style="fill: #fffffe; fill-rule: evenodd; stroke-width: 0px;"/>
          <path d="M29.7,12.4h-.7c-.5,0-.9.1-1.2.4-.3.3-.5.7-.6,1.3v.2h-.7v.6h0c0,.1.6.1.6.1l-.6,3.6c0,.3,0,.5-.2.7,0,.2,0,.3-.2.4,0,0,0,.2-.3.2h-.8s-.2.5-.2.6h0q0,.1.3.1h.4c.3,0,.5,0,.7-.1.2,0,.4-.2.5-.4.2-.2.3-.4.4-.7,0-.3.2-.6.3-1l.7-3.7h1v-.6h-.9s0-.3.2-.6c0-.1,0-.2.2-.3h.2c0-.1.2-.1.3-.1h.4l.2-.6h0ZM16.8,18.6h-.8v-6.2h.8v6.2Z" style="fill: #fffffe; fill-rule: evenodd; stroke-width: 0px;"/>
        </g>
      </g>
      <g style="clip-path: url(#clippath-1);">
        <g>
          <path d="M76.2,21.7v.3c.2.2.5.3.8.5,1.3.7,2.6.9,4,.9,2.7,0,4.4-1.4,4.4-3.8h0c0-2.2-1.9-3-3.7-3.5h-.2c-1.3-.5-2.5-.9-2.5-1.8h0c0-.8.7-1.4,1.7-1.4s2.6.4,3.4.9c0,0,.3.2.4,0,0-.1.5-1.3.6-1.5v-.3c-1-.6-2.4-1.1-3.9-1.1h-.3c-2.5,0-4.2,1.5-4.2,3.7h0c0,2.3,1.9,3.1,3.7,3.6h.3c1.3.5,2.4.8,2.4,1.8h0c0,.9-.7,1.5-1.9,1.5s-1.9,0-3.5-1c-.2-.1-.3-.2-.4-.3,0,0-.3-.1-.4.1l-.5,1.5h-.2ZM115.9,21.7v.3c.2.2.5.3.8.5,1.3.7,2.6.9,4,.9,2.7,0,4.4-1.4,4.4-3.8h0c0-2.2-1.9-3-3.7-3.5h-.2c-1.3-.5-2.5-.9-2.5-1.8h0c0-.8.7-1.4,1.7-1.4s2.5.4,3.4.9c0,0,.3.2.4,0,0-.1.5-1.3.5-1.5s0-.2-.1-.3c-1-.6-2.4-1-3.9-1h-.3c-2.5,0-4.2,1.5-4.2,3.7h0c0,2.3,1.9,3,3.7,3.6h.3c1.3.5,2.4.8,2.4,1.8h0c0,.9-.7,1.5-1.9,1.5s-1.9,0-3.5-1c-.2-.1-.3-.2-.4-.3,0,0-.3-.1-.4.1l-.5,1.5h0v-.2ZM142.9,17.1c0,1.3-.2,2.3-.7,3.1-.5.7-1.2,1.1-2.2,1.1s-1.7-.4-2.2-1.1c-.5-.7-.7-1.8-.7-3.1s.2-2.3.7-3.1c.5-.7,1.2-1.1,2.2-1.1s1.7.4,2.2,1.1c.5.7.7,1.8.7,3.1h0ZM145.2,14.7c-.2-.8-.6-1.4-1-2-.5-.6-1-1-1.7-1.3s-1.5-.5-2.4-.5-1.7.2-2.4.5-1.3.8-1.7,1.3c-.5.6-.8,1.2-1,2-.2.7-.3,1.6-.3,2.4s.1,1.7.3,2.4c.2.8.6,1.4,1,2,.5.6,1,1,1.7,1.3s1.5.5,2.4.5,1.7-.2,2.4-.5,1.3-.8,1.7-1.3c.5-.6.8-1.2,1-2s.3-1.6.3-2.4-.1-1.7-.3-2.4h0ZM163.8,20.9c0-.2-.3-.1-.3-.1-.3.1-.7.2-1.1.3h-1.2c-1.1,0-2-.3-2.6-1-.6-.6-1-1.7-1-3.1s.3-2.2.9-3c.5-.7,1.4-1.1,2.5-1.1s1.6.1,2.4.3c0,0,.2,0,.3-.2.2-.6.3-.9.6-1.6,0-.1,0-.2-.1-.3-.3-.1-1-.3-1.5-.4-.5,0-1.1-.1-1.7-.1-1,0-1.8.2-2.5.5s-1.3.8-1.8,1.3c-.5.6-.9,1.2-1.1,2-.2.8-.4,1.6-.4,2.4,0,1.9.5,3.4,1.5,4.5s2.5,1.7,4.5,1.7,2.4-.2,3.2-.6c0,0,.2,0,0-.3l-.6-1.5h0v.3h0ZM167.7,15.9c.1-.7.3-1.3.6-1.8.5-.7,1.2-1.1,2.2-1.1s1.7.4,2.1,1.1c.3.5.5,1.1.5,1.8h-5.5,0ZM175.4,14.3c-.2-.7-.7-1.5-1-1.8-.5-.5-1-.9-1.5-1.1-.7-.3-1.4-.5-2.2-.4-1,0-1.8.2-2.5.5s-1.3.8-1.8,1.3c-.5.6-.8,1.2-1,2s-.3,1.6-.3,2.4.1,1.7.3,2.4c.2.8.6,1.4,1.1,2,.5.5,1.2,1,1.9,1.3.8.3,1.7.5,2.8.4,2.2,0,3.4-.5,3.9-.8,0,0,.2-.1,0-.4l-.5-1.4c0-.2-.3-.1-.3-.1-.5.2-1.3.6-3.1.6s-2.1-.3-2.6-.9c-.6-.6-.8-1.4-.9-2.6h7.7s.2,0,.2-.2c0,0,.3-1.6-.2-3.3h0ZM106.4,15.9c0-.7.3-1.3.6-1.8.5-.7,1.2-1.1,2.2-1.1s1.7.4,2.1,1.1c.3.5.5,1.1.5,1.8h-5.5,0ZM114.1,14.3c-.2-.7-.7-1.5-1-1.8-.5-.5-1-.9-1.5-1.1-.7-.3-1.4-.5-2.2-.4-1,0-1.8.2-2.5.5s-1.3.8-1.8,1.3c-.5.6-.8,1.2-1,2s-.3,1.6-.3,2.4,0,1.7.3,2.4c.2.8.6,1.4,1.1,2,.5.5,1.2,1,1.9,1.3.8.3,1.7.5,2.8.4,2.2,0,3.4-.5,3.9-.8,0,0,.2-.1,0-.4l-.5-1.4c0-.2-.3-.1-.3-.1-.5.2-1.3.6-3.1.6s-2.1-.3-2.6-.9c-.6-.6-.8-1.4-.9-2.6h7.7s.2,0,.2-.2c0,0,.3-1.6-.2-3.3h0ZM89.9,20.9c-.3-.2-.3-.3-.4-.5-.2-.2-.2-.6-.2-1,0-.7.2-1.1.7-1.5,0,0,.7-.6,2.2-.6s1.4,0,2.1.2v3.5h0s-1,.2-2.1.3c-1.6,0-2.2-.4-2.2-.4h0ZM92.9,15.5h-1.2c-.5,0-1.3,0-1.9.2s-1.1.4-1.6.7-.8.8-1.1,1.3c-.3.5-.4,1.1-.4,1.8s0,1.3.4,1.8c.2.5.6.9,1,1.2s1,.5,1.6.7c.6.1,1.3.2,2,.2s1.6,0,2.3-.2c.6-.1,1.3-.2,1.9-.4.3,0,.5-.1.5-.1.2,0,.2-.2.2-.2v-7c0-1.5-.4-2.7-1.2-3.4-.8-.7-2-1.1-3.5-1.1s-1.5,0-2.1.2c0,0-1.7.3-2.4.9,0,0-.2,0,0,.3l.5,1.4c0,.2.3.1.3.1h0c1.5-.8,3.3-.8,3.3-.8.8,0,1.5.2,1.9.5s.6.8.6,1.8v.3c-.7,0-1.3-.1-1.3-.1h.2ZM154.6,11.5h0c-.1,0-.8-.2-1.3-.2-1,0-1.5,0-2,.3-.5.2-1,.6-1.3,1v-.9c0-.1,0-.2-.2-.2h-2c-.1,0-.2.1-.2.2v11.6h2.4v-5.9c0-.8,0-1.5.3-2,.2-.5.4-.9.7-1.1.3-.3.6-.5.9-.6.3-.1.7-.2,1-.2s.8.1.8.1c.1,0,.2,0,.3-.2.1-.4.5-1.4.6-1.6" style="fill: #00a1e0; fill-rule: evenodd; stroke-width: 0px;"/>
          <path d="M135.8,6.3c-.2,0-.5-.1-.8-.2h-1c-1.4,0-2.5.4-3.2,1.2-.8.8-1.3,1.9-1.5,3.5v.5h-1.8s-.2,0-.3.2l-.3,1.6c0,.1,0,.2.2.2h1.7l-1.7,9.6c-.1.8-.3,1.4-.5,1.9s-.3.8-.5,1.1c-.2.2-.4.4-.7.5-.3,0-.6.1-.9.1h-.6c-.2,0-.3,0-.4-.1,0,0-.2,0-.3.1,0,.2-.5,1.4-.6,1.6,0,.2,0,.3.1.3.2,0,.4.1.7.2.4.1.8.1,1.1.1.7,0,1.3-.1,1.9-.3.5-.2,1-.5,1.4-1s.7-1,1-1.7.5-1.6.7-2.6l1.7-9.8h2.5s.2,0,.3-.2l.3-1.6c0-.1,0-.2-.2-.2h-2.4s.1-.9.4-1.7c.1-.3.3-.6.5-.8s.4-.3.6-.4c.3,0,.5-.1.8-.1h1c.2,0,.3,0,.3-.1l.6-1.6c0-.1,0-.2-.1-.3ZM101.6,22.8c0,.1,0,.2-.2.2h-2s-.2-.1-.2-.2V6.5c0-.1,0-.2.2-.2h2s.2.1.2.2v16.3Z" style="fill: #00a1e0; fill-rule: evenodd; stroke-width: 0px;"/>
        </g>
      </g>
    </g>
  </g>
</svg>