<?xml version="1.0" encoding="UTF-8"?>
<svg id="Layer_2" data-name="Layer 2" xmlns="http://www.w3.org/2000/svg" xmlns:xlink="http://www.w3.org/1999/xlink" viewBox="0 0 184 41.7">
  <defs>
    <clipPath id="clippath">
      <rect x="134" y="11" width="50" height="20.8" style="fill: none; stroke-width: 0px;"/>
    </clipPath>
    <clipPath id="clippath-1">
      <rect width="100" height="41.7" style="fill: none; stroke-width: 0px;"/>
    </clipPath>
  </defs>
  <g id="Layer_5" data-name="Layer 5">
    <g id="stripe">
      <g style="clip-path: url(#clippath);">
        <g>
          <path d="M184,21.8c0-3.6-1.7-6.4-5-6.4s-5.3,2.8-5.3,6.3,2.4,6.3,5.8,6.3,2.9-.4,3.8-.9v-2.8c-.9.5-2,.8-3.4.8s-2.5-.5-2.7-2.1h6.8v-1.2h0ZM177.1,20.4c0-1.6,1-2.2,1.8-2.2s1.8.7,1.8,2.2h-3.6Z" style="fill: #635bff; fill-rule: evenodd; stroke-width: 0px;"/>
          <path d="M168.3,15.4c-1.4,0-2.2.6-2.7,1.1l-.2-.9h-3.1v16.2l3.5-.7v-3.9c.5.4,1.2.9,2.5.9,2.5,0,4.8-2,4.8-6.4s-2.3-6.2-4.7-6.2h-.1ZM167.5,25c-.8,0-1.3-.3-1.6-.6v-5.2c.3-.4.8-.7,1.6-.7,1.3,0,2.1,1.4,2.1,3.2s-.9,3.2-2.1,3.2h0Z" style="fill: #635bff; fill-rule: evenodd; stroke-width: 0px;"/>
          <path d="M157.6,14.6l3.5-.8v-2.8l-3.5.7v2.8h0Z" style="fill: #635bff; fill-rule: evenodd; stroke-width: 0px;"/>
          <path d="M161.1,15.6h-3.5v12.2h3.5v-12.2Z" style="fill: #635bff; stroke-width: 0px;"/>
          <path d="M153.8,16.6l-.2-1h-3v12.2h3.5v-8.2c.8-1.1,2.2-.9,2.6-.7v-3.2c-.4-.2-2.1-.5-2.9,1h0Z" style="fill: #635bff; fill-rule: evenodd; stroke-width: 0px;"/>
          <path d="M146.9,12.6l-3.4.7v11.1c0,2.1,1.5,3.6,3.6,3.6s2-.2,2.4-.5v-2.8c-.4.2-2.6.8-2.6-1.2v-4.9h2.6v-3h-2.6v-3h0Z" style="fill: #635bff; fill-rule: evenodd; stroke-width: 0px;"/>
          <path d="M137.5,19.1c0-.5.4-.8,1.2-.8s2.4.3,3.4.9v-3.3c-1.2-.5-2.3-.6-3.4-.6-2.8,0-4.7,1.5-4.7,3.9,0,3.8,5.3,3.2,5.3,4.9s-.6.9-1.3.9c-1.2,0-2.6-.5-3.8-1.1v3.3c1.3.6,2.6.8,3.8.8,2.9,0,4.9-1.4,4.9-3.9,0-4.1-5.3-3.4-5.3-5h0Z" style="fill: #635bff; fill-rule: evenodd; stroke-width: 0px;"/>
        </g>
      </g>
      <g style="clip-path: url(#clippath-1);">
        <g>
          <path d="M100,21.5c0-7.1-3.4-12.7-10-12.7s-10.6,5.6-10.6,12.7,4.7,12.6,11.5,12.6,5.8-.8,7.7-1.8v-5.6c-1.9.9-4.1,1.5-6.8,1.5s-5.1-.9-5.4-4.2h13.6c0-.4,0-1.8,0-2.5ZM86.3,18.9c0-3.1,1.9-4.4,3.7-4.4s3.5,1.3,3.5,4.4h-7.2Z" style="fill: #635bff; fill-rule: evenodd; stroke-width: 0px;"/>
          <path d="M68.6,8.8c-2.7,0-4.5,1.3-5.4,2.2l-.4-1.7h-6.1v32.4l6.9-1.5v-7.9c1,.7,2.5,1.8,4.9,1.8,5,0,9.5-4,9.5-12.8s-4.6-12.4-9.5-12.4h0ZM67,27.9c-1.6,0-2.6-.6-3.3-1.3v-10.3c.7-.8,1.7-1.4,3.3-1.4,2.5,0,4.3,2.8,4.3,6.5s-1.7,6.5-4.3,6.5Z" style="fill: #635bff; fill-rule: evenodd; stroke-width: 0px;"/>
          <path d="M47.2,7.1l7-1.5V0l-7,1.5v5.7h0Z" style="fill: #635bff; fill-rule: evenodd; stroke-width: 0px;"/>
          <path d="M54.1,9.2h-7v24.3h7V9.2Z" style="fill: #635bff; stroke-width: 0px;"/>
          <path d="M39.7,11.3l-.4-2.1h-6v24.3h6.9v-16.5c1.6-2.1,4.4-1.8,5.3-1.4v-6.4c-.9-.3-4.1-.9-5.8,2.1h0Z" style="fill: #635bff; fill-rule: evenodd; stroke-width: 0px;"/>
          <path d="M25.8,3.2l-6.8,1.4v22.2c0,4.1,3.1,7.1,7.2,7.1s3.9-.4,4.9-.9v-5.6c-.9.4-5.3,1.6-5.3-2.5v-9.9h5.3v-5.9h-5.3V3.1h0Z" style="fill: #635bff; fill-rule: evenodd; stroke-width: 0px;"/>
          <path d="M7,16.3c0-1.1.9-1.5,2.4-1.5s4.8.6,6.9,1.8v-6.5c-2.3-.9-4.6-1.3-6.9-1.3C3.8,8.8,0,11.7,0,16.7c0,7.7,10.6,6.4,10.6,9.8s-1.1,1.7-2.7,1.7c-2.3,0-5.2-.9-7.6-2.2v6.6c2.6,1.1,5.2,1.6,7.6,1.6,5.8,0,9.8-2.9,9.8-7.8,0-8.3-10.6-6.8-10.6-9.9v-.2h-.1Z" style="fill: #635bff; fill-rule: evenodd; stroke-width: 0px;"/>
        </g>
      </g>
    </g>
  </g>
</svg>