<?xml version="1.0" encoding="UTF-8"?>
<svg id="Layer_2" data-name="Layer 2" xmlns="http://www.w3.org/2000/svg" viewBox="0 0 40 46.1">
  <g id="Layer_1-2" data-name="Layer 1">
    <g id="tiktok">
      <path d="M29,15.4c3.1,2.2,6.9,3.5,11,3.5v-6.2c-2.3-.5-4.3-1.7-5.8-3.3-2.6-1.6-4.5-4.3-5-7.4h-5.7v31.5c0,3.7-3,6.6-6.7,6.6s-4.1-1-5.3-2.6c-2.2-1.1-3.6-3.4-3.6-6,0-3.7,3-6.7,6.6-6.7s1.4.1,2,.3v-6.3c-7.9.2-14.2,6.6-14.2,14.6s1.6,7.6,4.1,10.2c2.3,1.6,5.1,2.5,8.1,2.5,8,0,14.5-6.5,14.5-14.6V15.4h0Z" style="fill: #111928; stroke-width: 0px;"/>
      <path d="M40,12.7v-1.7c-2.1,0-4.1-.6-5.8-1.7,1.5,1.7,3.6,2.9,5.8,3.3h0ZM29.2,1.9c0-.3,0-.6-.1-.9V0h-7.9v31.5c0,3.7-3,6.6-6.6,6.6s-2.1-.3-3-.7c1.2,1.6,3.1,2.6,5.3,2.6,3.7,0,6.6-3,6.7-6.6V1.9h5.7-.1ZM16.5,18.8v-1.8c-.7,0-1.3-.1-2-.1C6.5,16.9,0,23.4,0,31.5s2.6,9.5,6.4,12.1c-2.6-2.6-4.1-6.2-4.1-10.2,0-7.9,6.3-14.4,14.2-14.6Z" style="fill: #00f2ea; stroke-width: 0px;"/>
    </g>
  </g>
</svg>