<?xml version="1.0" encoding="UTF-8"?>
<svg id="Layer_2" data-name="Layer 2" xmlns="http://www.w3.org/2000/svg" xmlns:xlink="http://www.w3.org/1999/xlink" viewBox="0 0 48 48">
  <defs>
    <clipPath id="clippath">
      <rect width="48" height="48" style="fill: none; stroke-width: 0px;"/>
    </clipPath>
  </defs>
  <g id="Layer_1-2" data-name="Layer 1">
    <g id="youtube">
      <g style="clip-path: url(#clippath);">
        <g>
          <path d="M47,12.4c-.3-1-.8-2-1.5-2.7s-1.7-1.3-2.7-1.6c-3.8-1-18.8-1-18.8-1,0,0-15,0-18.8,1-1,.3-1.9.8-2.7,1.6-.7.7-1.3,1.7-1.6,2.7C-.1,16.2-.1,24-.1,24c0,0,0,7.9,1,11.6.3,1,.8,2,1.6,2.7.8.7,1.7,1.3,2.7,1.6,3.8,1,18.8,1,18.8,1,0,0,15,0,18.8-1,1-.3,2-.8,2.7-1.6.8-.7,1.3-1.7,1.5-2.7,1-3.8,1-11.6,1-11.6,0,0,0-7.9-1-11.6Z" style="fill: #ff0302; stroke-width: 0px;"/>
          <path d="M19.1,31.1v-14.3l12.5,7.1-12.5,7.1h0Z" style="fill: #fefefe; stroke-width: 0px;"/>
        </g>
      </g>
    </g>
  </g>
</svg>