<?xml version="1.0" encoding="UTF-8"?>
<svg xmlns="http://www.w3.org/2000/svg" xmlns:xlink="http://www.w3.org/1999/xlink" viewBox="0 0 25 17">
  <defs>
    <clipPath id="uuid-6128b604-3558-46e3-be00-f278c9cb49a1">
      <rect x="-.1" y="0" width="25.3" height="17.2" style="fill: none; stroke-width: 0px;"/>
    </clipPath>
    <radialGradient id="uuid-4ad71fc2-294d-4a89-8fa4-787a6c44ec2f" cx="-132.7" cy="35.4" fx="-132.7" fy="35.4" r="33.4" gradientTransform="translate(-41 -113.7) rotate(-90)" gradientUnits="userSpaceOnUse">
      <stop offset="0" stop-color="#fff" stop-opacity="0"/>
      <stop offset=".1" stop-color="rgba(198, 200, 220, .2)" stop-opacity=".2"/>
      <stop offset=".4" stop-color="rgba(112, 117, 167, .5)" stop-opacity=".5"/>
      <stop offset=".6" stop-color="rgba(50, 57, 128, .8)" stop-opacity=".8"/>
      <stop offset=".8" stop-color="rgba(12, 21, 105, .9)" stop-opacity=".9"/>
      <stop offset="1" stop-color="#000962" stop-opacity="1"/>
    </radialGradient>
  </defs>
  <g style="isolation: isolate;">
    <g id="uuid-ba958295-59f6-412e-807c-b1d109ea19cb" data-name="Layer 1">
      <g style="clip-path: url(#uuid-6128b604-3558-46e3-be00-f278c9cb49a1);">
        <g>
          <g>
            <g>
              <polygon points="23.7 -.1 23.7 1.4 25.1 .5 25.1 -.1 23.7 -.1" style="fill: #4d7dff; stroke-width: 0px;"/>
              <polygon points="25.1 2.3 25.1 .5 23.7 1.4 23.7 3.2 25.1 2.3" style="fill: #5180ff; stroke-width: 0px;"/>
              <polygon points="25.1 4.1 25.1 2.3 23.7 3.2 23.7 5.1 25.1 4.1" style="fill: #5987ff; stroke-width: 0px;"/>
              <polygon points="25.1 5.9 25.1 4.1 23.7 5.1 23.7 6.9 25.1 5.9" style="fill: #6490ff; stroke-width: 0px;"/>
              <polygon points="25.1 7.7 25.1 5.9 23.7 6.9 23.7 8.7 25.1 7.7" style="fill: #80a7ff; stroke-width: 0px;"/>
              <polygon points="25.1 9.5 25.1 7.7 23.7 8.7 23.7 10.5 25.1 9.5" style="fill: #accaff; stroke-width: 0px;"/>
              <polygon points="25.1 11.3 25.1 9.5 23.7 10.5 23.7 12.3 25.1 11.3" style="fill: #b5d2ff; stroke-width: 0px;"/>
              <polygon points="25.1 13.2 25.1 11.3 23.7 12.3 23.7 14.1 25.1 13.2" style="fill: #9dbfff; stroke-width: 0px;"/>
              <polygon points="25.1 15 25.1 13.2 23.7 14.1 23.7 16 25.1 15" style="fill: #83aaff; stroke-width: 0px;"/>
              <polygon points="25.1 16.8 25.1 15 23.7 16 23.7 17.8 25.1 16.8" style="fill: #78a2ff; stroke-width: 0px;"/>
              <polygon points="25.1 18.6 25.1 16.8 23.7 17.8 23.7 19.6 25.1 18.6" style="fill: #719bff; stroke-width: 0px;"/>
              <polygon points="22.3 -.1 22.3 .6 23.3 -.1 22.3 -.1" style="fill: #3462ff; stroke-width: 0px;"/>
              <polygon points="23.3 -.1 22.3 .6 22.3 2.4 23.7 1.4 23.7 -.1 23.3 -.1" style="fill: #3766ff; stroke-width: 0px;"/>
              <polygon points="23.7 3.2 23.7 1.4 22.3 2.4 22.3 4.2 23.7 3.2" style="fill: #3766ff; stroke-width: 0px;"/>
              <polygon points="23.7 5.1 23.7 3.2 22.3 4.2 22.3 6 23.7 5.1" style="fill: #4a7aff; stroke-width: 0px;"/>
              <polygon points="23.7 6.9 23.7 5.1 22.3 6 22.3 7.9 23.7 6.9" style="fill: #6692ff; stroke-width: 0px;"/>
              <polygon points="23.7 8.7 23.7 6.9 22.3 7.9 22.3 9.7 23.7 8.7" style="fill: #749dff; stroke-width: 0px;"/>
              <polygon points="23.7 10.5 23.7 8.7 22.3 9.7 22.3 11.5 23.7 10.5" style="fill: #9dbfff; stroke-width: 0px;"/>
              <polygon points="23.7 12.3 23.7 10.5 22.3 11.5 22.3 13.3 23.7 12.3" style="fill: #bed7ff; stroke-width: 0px;"/>
              <polygon points="23.7 14.1 23.7 12.3 22.3 13.3 22.3 15.1 23.7 14.1" style="fill: #a9c8ff; stroke-width: 0px;"/>
              <polygon points="23.7 16 23.7 14.1 22.3 15.1 22.3 16.9 23.7 16" style="fill: #e7f7ff; stroke-width: 0px;"/>
              <polygon points="23.7 17.8 23.7 16 22.3 16.9 22.3 18.8 23.7 17.8" style="fill: #80a7ff; stroke-width: 0px;"/>
              <polygon points="20.9 -.1 20.9 1.6 22.3 .6 22.3 -.1 20.9 -.1" style="fill: #3462ff; stroke-width: 0px;"/>
              <polygon points="22.3 2.4 22.3 .6 20.9 1.6 20.9 3.4 22.3 2.4" style="fill: #3f70ff; stroke-width: 0px;"/>
              <polygon points="22.3 4.2 22.3 2.4 20.9 3.4 20.9 5.2 22.3 4.2" style="fill: #5180ff; stroke-width: 0px;"/>
              <polygon points="22.3 6 22.3 4.2 20.9 5.2 20.9 7 22.3 6" style="fill: #4a7aff; stroke-width: 0px;"/>
              <polygon points="22.3 7.9 22.3 6 20.9 7 20.9 8.8 22.3 7.9" style="fill: #5180ff; stroke-width: 0px;"/>
              <polygon points="22.3 9.7 22.3 7.9 20.9 8.8 20.9 10.7 22.3 9.7" style="fill: #5987ff; stroke-width: 0px;"/>
              <polygon points="22.3 11.5 22.3 9.7 20.9 10.7 20.9 12.5 22.3 11.5" style="fill: #80a7ff; stroke-width: 0px;"/>
              <polygon points="22.3 13.3 22.3 11.5 20.9 12.5 20.9 14.3 22.3 13.3" style="fill: #e7f7ff; stroke-width: 0px;"/>
              <polygon points="22.3 15.1 22.3 13.3 20.9 14.3 20.9 16.1 22.3 15.1" style="fill: #a9c8ff; stroke-width: 0px;"/>
              <polygon points="22.3 16.9 22.3 15.1 20.9 16.1 20.9 17.9 22.3 16.9" style="fill: #fff; stroke-width: 0px;"/>
              <polygon points="22.3 18.8 22.3 16.9 20.9 17.9 20.9 19.7 22.3 18.8" style="fill: #b1ceff; stroke-width: 0px;"/>
              <polygon points="19.5 -.1 19.5 .7 20.7 -.1 19.5 -.1" style="fill: #315eff; stroke-width: 0px;"/>
              <polygon points="20.7 -.1 19.5 .7 19.5 2.6 20.9 1.6 20.9 -.1 20.7 -.1" style="fill: #3f70ff; stroke-width: 0px;"/>
              <polygon points="20.9 3.4 20.9 1.6 19.5 2.6 19.5 4.4 20.9 3.4" style="fill: #3c6dff; stroke-width: 0px;"/>
              <polygon points="20.9 5.2 20.9 3.4 19.5 4.4 19.5 6.2 20.9 5.2" style="fill: #4474ff; stroke-width: 0px;"/>
              <polygon points="20.9 7 20.9 5.2 19.5 6.2 19.5 8 20.9 7" style="fill: #4171ff; stroke-width: 0px;"/>
              <polygon points="20.9 8.8 20.9 7 19.5 8 19.5 9.8 20.9 8.8" style="fill: #6a95ff; stroke-width: 0px;"/>
              <polygon points="20.9 10.7 20.9 8.8 19.5 9.8 19.5 11.6 20.9 10.7" style="fill: #8db3ff; stroke-width: 0px;"/>
              <polygon points="20.9 12.5 20.9 10.7 19.5 11.6 19.5 13.5 20.9 12.5" style="fill: #80a7ff; stroke-width: 0px;"/>
              <polygon points="20.9 14.3 20.9 12.5 19.5 13.5 19.5 15.3 20.9 14.3" style="fill: #cee5ff; stroke-width: 0px;"/>
              <polygon points="20.9 16.1 20.9 14.3 19.5 15.3 19.5 17.1 20.9 16.1" style="fill: #c8e1ff; stroke-width: 0px;"/>
              <polygon points="20.9 17.9 20.9 16.1 19.5 17.1 19.5 18.9 20.9 17.9" style="fill: #b5d2ff; stroke-width: 0px;"/>
              <polygon points="18.2 -.1 18.1 0 18.1 1.7 19.5 .7 19.5 -.1 18.2 -.1" style="fill: #315eff; stroke-width: 0px;"/>
              <polygon points="19.5 2.6 19.5 .7 18.1 1.7 18.1 3.5 19.5 2.6" style="fill: #3462ff; stroke-width: 0px;"/>
              <polygon points="19.5 4.4 19.5 2.6 18.1 3.5 18.1 5.4 19.5 4.4" style="fill: #3462ff; stroke-width: 0px;"/>
              <polygon points="19.5 6.2 19.5 4.4 18.1 5.4 18.1 7.2 19.5 6.2" style="fill: #5180ff; stroke-width: 0px;"/>
              <polygon points="19.5 8 19.5 6.2 18.1 7.2 18.1 9 19.5 8" style="fill: #5987ff; stroke-width: 0px;"/>
              <polygon points="19.5 9.8 19.5 8 18.1 9 18.1 10.8 19.5 9.8" style="fill: #9dbfff; stroke-width: 0px;"/>
              <polygon points="19.5 11.6 19.5 9.8 18.1 10.8 18.1 12.6 19.5 11.6" style="fill: #a5c5ff; stroke-width: 0px;"/>
              <polygon points="19.5 13.5 19.5 11.6 18.1 12.6 18.1 14.4 19.5 13.5" style="fill: #86acff; stroke-width: 0px;"/>
              <polygon points="19.5 15.3 19.5 13.5 18.1 14.4 18.1 16.3 19.5 15.3" style="fill: #a0c1ff; stroke-width: 0px;"/>
              <polygon points="19.5 17.1 19.5 15.3 18.1 16.3 18.1 18.1 19.5 17.1" style="fill: #9dbfff; stroke-width: 0px;"/>
              <polygon points="16.7 -.1 16.7 .9 18.1 0 18.1 -.1 16.7 -.1" style="fill: #2751f9; stroke-width: 0px;"/>
              <polygon points="18.1 1.7 18.1 0 16.7 .9 16.7 2.7 18.1 1.7" style="fill: #3c6dff; stroke-width: 0px;"/>
              <polygon points="18.1 3.5 18.1 1.7 16.7 2.7 16.7 4.5 18.1 3.5" style="fill: #4474ff; stroke-width: 0px;"/>
              <polygon points="18.1 5.4 18.1 3.5 16.7 4.5 16.7 6.3 18.1 5.4" style="fill: #4a7aff; stroke-width: 0px;"/>
              <polygon points="18.1 7.2 18.1 5.4 16.7 6.3 16.7 8.2 18.1 7.2" style="fill: #6692ff; stroke-width: 0px;"/>
              <polygon points="18.1 9 18.1 7.2 16.7 8.2 16.7 10 18.1 9" style="fill: #5786ff; stroke-width: 0px;"/>
              <polygon points="18.1 10.8 18.1 9 16.7 10 16.7 11.8 18.1 10.8" style="fill: #608dff; stroke-width: 0px;"/>
              <polygon points="18.1 12.6 18.1 10.8 16.7 11.8 16.7 13.6 18.1 12.6" style="fill: #83aaff; stroke-width: 0px;"/>
              <polygon points="18.1 14.4 18.1 12.6 16.7 13.6 16.7 15.4 18.1 14.4" style="fill: #86acff; stroke-width: 0px;"/>
              <polygon points="18.1 16.3 18.1 14.4 16.7 15.4 16.7 17.2 18.1 16.3" style="fill: #accaff; stroke-width: 0px;"/>
              <polygon points="18.1 18.1 18.1 16.3 16.7 17.2 16.7 19 18.1 18.1" style="fill: #d5ebff; stroke-width: 0px;"/>
              <polygon points="15.3 -.1 15.3 0 15.6 -.1 15.3 -.1" style="fill: #4877ff; stroke-width: 0px;"/>
              <polygon points="15.6 -.1 15.3 0 15.3 1.9 16.7 .9 16.7 -.1 15.6 -.1" style="fill: #4877ff; stroke-width: 0px;"/>
              <polygon points="16.7 2.7 16.7 .9 15.3 1.9 15.3 3.7 16.7 2.7" style="fill: #3f70ff; stroke-width: 0px;"/>
              <polygon points="16.7 4.5 16.7 2.7 15.3 3.7 15.3 5.5 16.7 4.5" style="fill: #4171ff; stroke-width: 0px;"/>
              <polygon points="16.7 6.3 16.7 4.5 15.3 5.5 15.3 7.3 16.7 6.3" style="fill: #4d7dff; stroke-width: 0px;"/>
              <polygon points="16.7 8.2 16.7 6.3 15.3 7.3 15.3 9.1 16.7 8.2" style="fill: #608dff; stroke-width: 0px;"/>
              <polygon points="16.7 10 16.7 8.2 15.3 9.1 15.3 11 16.7 10" style="fill: #5786ff; stroke-width: 0px;"/>
              <polygon points="16.7 11.8 16.7 10 15.3 11 15.3 12.8 16.7 11.8" style="fill: #83aaff; stroke-width: 0px;"/>
              <polygon points="16.7 13.6 16.7 11.8 15.3 12.8 15.3 14.6 16.7 13.6" style="fill: #8ab0ff; stroke-width: 0px;"/>
              <polygon points="16.7 15.4 16.7 13.6 15.3 14.6 15.3 16.4 16.7 15.4" style="fill: #719bff; stroke-width: 0px;"/>
              <polygon points="16.7 17.2 16.7 15.4 15.3 16.4 15.3 18.2 16.7 17.2" style="fill: #98bcff; stroke-width: 0px;"/>
              <polygon points="13.9 -.1 13.9 1 15.3 0 15.3 -.1 13.9 -.1" style="fill: #5180ff; stroke-width: 0px;"/>
              <polygon points="15.3 1.9 15.3 0 13.9 1 13.9 2.9 15.3 1.9" style="fill: #4171ff; stroke-width: 0px;"/>
              <polygon points="15.3 3.7 15.3 1.9 13.9 2.9 13.9 4.7 15.3 3.7" style="fill: #4d7dff; stroke-width: 0px;"/>
              <polygon points="15.3 5.5 15.3 3.7 13.9 4.7 13.9 6.5 15.3 5.5" style="fill: #5180ff; stroke-width: 0px;"/>
              <polygon points="15.3 7.3 15.3 5.5 13.9 6.5 13.9 8.3 15.3 7.3" style="fill: #6a95ff; stroke-width: 0px;"/>
              <polygon points="15.3 9.1 15.3 7.3 13.9 8.3 13.9 10.1 15.3 9.1" style="fill: #7ba4ff; stroke-width: 0px;"/>
              <polygon points="15.3 11 15.3 9.1 13.9 10.1 13.9 11.9 15.3 11" style="fill: #5987ff; stroke-width: 0px;"/>
              <polygon points="15.3 12.8 15.3 11 13.9 11.9 13.9 13.7 15.3 12.8" style="fill: #80a7ff; stroke-width: 0px;"/>
              <polygon points="15.3 14.6 15.3 12.8 13.9 13.7 13.9 15.6 15.3 14.6" style="fill: #a0c1ff; stroke-width: 0px;"/>
              <polygon points="15.3 16.4 15.3 14.6 13.9 15.6 13.9 17.4 15.3 16.4" style="fill: #83aaff; stroke-width: 0px;"/>
              <polygon points="15.3 18.2 15.3 16.4 13.9 17.4 13.9 19.2 15.3 18.2" style="fill: #b5d2ff; stroke-width: 0px;"/>
              <polygon points="12.5 -.1 12.5 .2 13 -.1 12.5 -.1" style="fill: #4877ff; stroke-width: 0px;"/>
              <polygon points="13 -.1 12.5 .2 12.5 2 13.9 1 13.9 -.1 13 -.1" style="fill: #4877ff; stroke-width: 0px;"/>
              <polygon points="13.9 2.9 13.9 1 12.5 2 12.5 3.8 13.9 2.9" style="fill: #608dff; stroke-width: 0px;"/>
              <polygon points="13.9 4.7 13.9 2.9 12.5 3.8 12.5 5.6 13.9 4.7" style="fill: #4877ff; stroke-width: 0px;"/>
              <polygon points="13.9 6.5 13.9 4.7 12.5 5.6 12.5 7.5 13.9 6.5" style="fill: #5d8aff; stroke-width: 0px;"/>
              <polygon points="13.9 8.3 13.9 6.5 12.5 7.5 12.5 9.3 13.9 8.3" style="fill: #608dff; stroke-width: 0px;"/>
              <polygon points="13.9 10.1 13.9 8.3 12.5 9.3 12.5 11.1 13.9 10.1" style="fill: #7ba4ff; stroke-width: 0px;"/>
              <polygon points="13.9 11.9 13.9 10.1 12.5 11.1 12.5 12.9 13.9 11.9" style="fill: #7ba4ff; stroke-width: 0px;"/>
              <polygon points="13.9 13.7 13.9 11.9 12.5 12.9 12.5 14.7 13.9 13.7" style="fill: #98bcff; stroke-width: 0px;"/>
              <polygon points="13.9 15.6 13.9 13.7 12.5 14.7 12.5 16.5 13.9 15.6" style="fill: #6a95ff; stroke-width: 0px;"/>
              <polygon points="13.9 17.4 13.9 15.6 12.5 16.5 12.5 18.4 13.9 17.4" style="fill: #8ab0ff; stroke-width: 0px;"/>
              <polygon points="11.1 -.1 11.1 1.2 12.5 .2 12.5 -.1 11.1 -.1" style="fill: #5d8aff; stroke-width: 0px;"/>
              <polygon points="12.5 2 12.5 .2 11.1 1.2 11.1 3 12.5 2" style="fill: #608dff; stroke-width: 0px;"/>
              <polygon points="12.5 3.8 12.5 2 11.1 3 11.1 4.8 12.5 3.8" style="fill: #4a7aff; stroke-width: 0px;"/>
              <polygon points="12.5 5.6 12.5 3.8 11.1 4.8 11.1 6.6 12.5 5.6" style="fill: #5786ff; stroke-width: 0px;"/>
              <polygon points="12.5 7.5 12.5 5.6 11.1 6.6 11.1 8.4 12.5 7.5" style="fill: #5987ff; stroke-width: 0px;"/>
              <polygon points="12.5 9.3 12.5 7.5 11.1 8.4 11.1 10.3 12.5 9.3" style="fill: #a0c1ff; stroke-width: 0px;"/>
              <polygon points="12.5 11.1 12.5 9.3 11.1 10.3 11.1 12.1 12.5 11.1" style="fill: #8db3ff; stroke-width: 0px;"/>
              <polygon points="12.5 12.9 12.5 11.1 11.1 12.1 11.1 13.9 12.5 12.9" style="fill: #719bff; stroke-width: 0px;"/>
              <polygon points="12.5 14.7 12.5 12.9 11.1 13.9 11.1 15.7 12.5 14.7" style="fill: #92b6ff; stroke-width: 0px;"/>
              <polygon points="12.5 16.5 12.5 14.7 11.1 15.7 11.1 17.5 12.5 16.5" style="fill: #749dff; stroke-width: 0px;"/>
              <polygon points="12.5 18.4 12.5 16.5 11.1 17.5 11.1 19.3 12.5 18.4" style="fill: #8db3ff; stroke-width: 0px;"/>
              <polygon points="9.7 -.1 9.7 .3 10.4 -.1 9.7 -.1" style="fill: #4171ff; stroke-width: 0px;"/>
              <polygon points="10.4 -.1 9.7 .3 9.7 2.2 11.1 1.2 11.1 -.1 10.4 -.1" style="fill: #5786ff; stroke-width: 0px;"/>
              <polygon points="11.1 3 11.1 1.2 9.7 2.2 9.7 4 11.1 3" style="fill: #6692ff; stroke-width: 0px;"/>
              <polygon points="11.1 4.8 11.1 3 9.7 4 9.7 5.8 11.1 4.8" style="fill: #6490ff; stroke-width: 0px;"/>
              <polygon points="11.1 6.6 11.1 4.8 9.7 5.8 9.7 7.6 11.1 6.6" style="fill: #4877ff; stroke-width: 0px;"/>
              <polygon points="11.1 8.4 11.1 6.6 9.7 7.6 9.7 9.4 11.1 8.4" style="fill: #608dff; stroke-width: 0px;"/>
              <polygon points="11.1 10.3 11.1 8.4 9.7 9.4 9.7 11.2 11.1 10.3" style="fill: #6a95ff; stroke-width: 0px;"/>
              <polygon points="11.1 12.1 11.1 10.3 9.7 11.2 9.7 13.1 11.1 12.1" style="fill: #86acff; stroke-width: 0px;"/>
              <polygon points="11.1 13.9 11.1 12.1 9.7 13.1 9.7 14.9 11.1 13.9" style="fill: #92b6ff; stroke-width: 0px;"/>
              <polygon points="11.1 15.7 11.1 13.9 9.7 14.9 9.7 16.7 11.1 15.7" style="fill: #accaff; stroke-width: 0px;"/>
              <polygon points="11.1 17.5 11.1 15.7 9.7 16.7 9.7 18.5 11.1 17.5" style="fill: #749dff; stroke-width: 0px;"/>
              <polygon points="8.3 -.1 8.3 1.3 9.7 .3 9.7 -.1 8.3 -.1" style="fill: #4877ff; stroke-width: 0px;"/>
              <polygon points="9.7 2.2 9.7 .3 8.3 1.3 8.3 3.1 9.7 2.2" style="fill: #5786ff; stroke-width: 0px;"/>
              <polygon points="9.7 4 9.7 2.2 8.3 3.1 8.3 5 9.7 4" style="fill: #608dff; stroke-width: 0px;"/>
              <polygon points="9.7 5.8 9.7 4 8.3 5 8.3 6.8 9.7 5.8" style="fill: #5d8aff; stroke-width: 0px;"/>
              <polygon points="9.7 7.6 9.7 5.8 8.3 6.8 8.3 8.6 9.7 7.6" style="fill: #5d8aff; stroke-width: 0px;"/>
              <polygon points="9.7 9.4 9.7 7.6 8.3 8.6 8.3 10.4 9.7 9.4" style="fill: #86acff; stroke-width: 0px;"/>
              <polygon points="9.7 11.2 9.7 9.4 8.3 10.4 8.3 12.2 9.7 11.2" style="fill: #6d98ff; stroke-width: 0px;"/>
              <polygon points="9.7 13.1 9.7 11.2 8.3 12.2 8.3 14 9.7 13.1" style="fill: #dbefff; stroke-width: 0px;"/>
              <polygon points="9.7 14.9 9.7 13.1 8.3 14 8.3 15.9 9.7 14.9" style="fill: #accaff; stroke-width: 0px;"/>
              <polygon points="9.7 16.7 9.7 14.9 8.3 15.9 8.3 17.7 9.7 16.7" style="fill: #98bcff; stroke-width: 0px;"/>
              <polygon points="9.7 18.5 9.7 16.7 8.3 17.7 8.3 19.5 9.7 18.5" style="fill: #b8d4ff; stroke-width: 0px;"/>
              <polygon points="6.9 -.1 6.9 .5 7.8 -.1 6.9 -.1" style="fill: #5383ff; stroke-width: 0px;"/>
              <polygon points="7.8 -.1 6.9 .5 6.9 2.3 8.3 1.3 8.3 -.1 7.8 -.1" style="fill: #4877ff; stroke-width: 0px;"/>
              <polygon points="8.3 3.1 8.3 1.3 6.9 2.3 6.9 4.1 8.3 3.1" style="fill: #5383ff; stroke-width: 0px;"/>
              <polygon points="8.3 5 8.3 3.1 6.9 4.1 6.9 5.9 8.3 5" style="fill: #6a95ff; stroke-width: 0px;"/>
              <polygon points="8.3 6.8 8.3 5 6.9 5.9 6.9 7.8 8.3 6.8" style="fill: #6692ff; stroke-width: 0px;"/>
              <polygon points="8.3 8.6 8.3 6.8 6.9 7.8 6.9 9.6 8.3 8.6" style="fill: #608dff; stroke-width: 0px;"/>
              <polygon points="8.3 10.4 8.3 8.6 6.9 9.6 6.9 11.4 8.3 10.4" style="fill: #608dff; stroke-width: 0px;"/>
              <polygon points="8.3 12.2 8.3 10.4 6.9 11.4 6.9 13.2 8.3 12.2" style="fill: #8db3ff; stroke-width: 0px;"/>
              <polygon points="8.3 14 8.3 12.2 6.9 13.2 6.9 15 8.3 14" style="fill: #fff; stroke-width: 0px;"/>
              <polygon points="8.3 15.9 8.3 14 6.9 15 6.9 16.8 8.3 15.9" style="fill: #a0c1ff; stroke-width: 0px;"/>
              <polygon points="8.3 17.7 8.3 15.9 6.9 16.8 6.9 18.7 8.3 17.7" style="fill: #b5d2ff; stroke-width: 0px;"/>
              <polygon points="5.5 -.1 5.5 1.5 6.9 .5 6.9 -.1 5.5 -.1" style="fill: #5786ff; stroke-width: 0px;"/>
              <polygon points="6.9 2.3 6.9 .5 5.5 1.5 5.5 3.3 6.9 2.3" style="fill: #4a7aff; stroke-width: 0px;"/>
              <polygon points="6.9 4.1 6.9 2.3 5.5 3.3 5.5 5.1 6.9 4.1" style="fill: #4a7aff; stroke-width: 0px;"/>
              <polygon points="6.9 5.9 6.9 4.1 5.5 5.1 5.5 6.9 6.9 5.9" style="fill: #5987ff; stroke-width: 0px;"/>
              <polygon points="6.9 7.8 6.9 5.9 5.5 6.9 5.5 8.7 6.9 7.8" style="fill: #749dff; stroke-width: 0px;"/>
              <polygon points="6.9 9.6 6.9 7.8 5.5 8.7 5.5 10.6 6.9 9.6" style="fill: #719bff; stroke-width: 0px;"/>
              <polygon points="6.9 11.4 6.9 9.6 5.5 10.6 5.5 12.4 6.9 11.4" style="fill: #b1ceff; stroke-width: 0px;"/>
              <polygon points="6.9 13.2 6.9 11.4 5.5 12.4 5.5 14.2 6.9 13.2" style="fill: #b1ceff; stroke-width: 0px;"/>
              <polygon points="6.9 15 6.9 13.2 5.5 14.2 5.5 16 6.9 15" style="fill: #accaff; stroke-width: 0px;"/>
              <polygon points="6.9 16.8 6.9 15 5.5 16 5.5 17.8 6.9 16.8" style="fill: #cee5ff; stroke-width: 0px;"/>
              <polygon points="6.9 18.7 6.9 16.8 5.5 17.8 5.5 19.6 6.9 18.7" style="fill: #f1ffff; stroke-width: 0px;"/>
              <polygon points="4.1 -.1 4.1 .6 5.2 -.1 4.1 -.1" style="fill: #4a7aff; stroke-width: 0px;"/>
              <polygon points="5.2 -.1 4.1 .6 4.1 2.5 5.5 1.5 5.5 -.1 5.2 -.1" style="fill: #5383ff; stroke-width: 0px;"/>
              <polygon points="5.5 3.3 5.5 1.5 4.1 2.5 4.1 4.3 5.5 3.3" style="fill: #4a7aff; stroke-width: 0px;"/>
              <polygon points="5.5 5.1 5.5 3.3 4.1 4.3 4.1 6.1 5.5 5.1" style="fill: #3c6dff; stroke-width: 0px;"/>
              <polygon points="5.5 6.9 5.5 5.1 4.1 6.1 4.1 7.9 5.5 6.9" style="fill: #5d8aff; stroke-width: 0px;"/>
              <polygon points="5.5 8.7 5.5 6.9 4.1 7.9 4.1 9.7 5.5 8.7" style="fill: #83aaff; stroke-width: 0px;"/>
              <polygon points="5.5 10.6 5.5 8.7 4.1 9.7 4.1 11.5 5.5 10.6" style="fill: #a0c1ff; stroke-width: 0px;"/>
              <polygon points="5.5 12.4 5.5 10.6 4.1 11.5 4.1 13.4 5.5 12.4" style="fill: #d2e7ff; stroke-width: 0px;"/>
              <polygon points="5.5 14.2 5.5 12.4 4.1 13.4 4.1 15.2 5.5 14.2" style="fill: #d2e7ff; stroke-width: 0px;"/>
              <polygon points="5.5 16 5.5 14.2 4.1 15.2 4.1 17 5.5 16" style="fill: #c5ddff; stroke-width: 0px;"/>
              <polygon points="5.5 17.8 5.5 16 4.1 17 4.1 18.8 5.5 17.8" style="fill: #fff; stroke-width: 0px;"/>
              <polygon points="2.7 -.1 2.7 1.6 4.1 .6 4.1 -.1 2.7 -.1" style="fill: #749dff; stroke-width: 0px;"/>
              <polygon points="4.1 2.5 4.1 .6 2.7 1.6 2.7 3.4 4.1 2.5" style="fill: #5786ff; stroke-width: 0px;"/>
              <polygon points="4.1 4.3 4.1 2.5 2.7 3.4 2.7 5.3 4.1 4.3" style="fill: #4877ff; stroke-width: 0px;"/>
              <polygon points="4.1 6.1 4.1 4.3 2.7 5.3 2.7 7.1 4.1 6.1" style="fill: #3766ff; stroke-width: 0px;"/>
              <polygon points="4.1 7.9 4.1 6.1 2.7 7.1 2.7 8.9 4.1 7.9" style="fill: #5786ff; stroke-width: 0px;"/>
              <polygon points="4.1 9.7 4.1 7.9 2.7 8.9 2.7 10.7 4.1 9.7" style="fill: #5d8aff; stroke-width: 0px;"/>
              <polygon points="4.1 11.5 4.1 9.7 2.7 10.7 2.7 12.5 4.1 11.5" style="fill: #92b6ff; stroke-width: 0px;"/>
              <polygon points="4.1 13.4 4.1 11.5 2.7 12.5 2.7 14.3 4.1 13.4" style="fill: #9dbfff; stroke-width: 0px;"/>
              <polygon points="4.1 15.2 4.1 13.4 2.7 14.3 2.7 16.2 4.1 15.2" style="fill: #f5ffff; stroke-width: 0px;"/>
              <polygon points="4.1 17 4.1 15.2 2.7 16.2 2.7 18 4.1 17" style="fill: #f1ffff; stroke-width: 0px;"/>
              <polygon points="4.1 18.8 4.1 17 2.7 18 2.7 19.8 4.1 18.8" style="fill: #fff; stroke-width: 0px;"/>
              <polygon points="1.3 -.1 1.3 .8 2.6 -.1 1.3 -.1" style="fill: #749dff; stroke-width: 0px;"/>
              <polygon points="2.6 -.1 1.3 .8 1.3 2.6 2.7 1.6 2.7 -.1 2.6 -.1" style="fill: #719bff; stroke-width: 0px;"/>
              <polygon points="2.7 3.4 2.7 1.6 1.3 2.6 1.3 4.4 2.7 3.4" style="fill: #4171ff; stroke-width: 0px;"/>
              <polygon points="2.7 5.3 2.7 3.4 1.3 4.4 1.3 6.2 2.7 5.3" style="fill: #5180ff; stroke-width: 0px;"/>
              <polygon points="2.7 7.1 2.7 5.3 1.3 6.2 1.3 8.1 2.7 7.1" style="fill: #4474ff; stroke-width: 0px;"/>
              <polygon points="2.7 8.9 2.7 7.1 1.3 8.1 1.3 9.9 2.7 8.9" style="fill: #6692ff; stroke-width: 0px;"/>
              <polygon points="2.7 10.7 2.7 8.9 1.3 9.9 1.3 11.7 2.7 10.7" style="fill: #5180ff; stroke-width: 0px;"/>
              <polygon points="2.7 12.5 2.7 10.7 1.3 11.7 1.3 13.5 2.7 12.5" style="fill: #92b6ff; stroke-width: 0px;"/>
              <polygon points="2.7 14.3 2.7 12.5 1.3 13.5 1.3 15.3 2.7 14.3" style="fill: #e7f7ff; stroke-width: 0px;"/>
              <polygon points="2.7 16.2 2.7 14.3 1.3 15.3 1.3 17.1 2.7 16.2" style="fill: #e3f5ff; stroke-width: 0px;"/>
              <polygon points="2.7 18 2.7 16.2 1.3 17.1 1.3 18.9 2.7 18" style="fill: #fff; stroke-width: 0px;"/>
              <polygon points="0 -.1 0 0 0 1.8 1.3 .8 1.3 -.1 0 -.1" style="fill: #a0c1ff; stroke-width: 0px;"/>
              <polygon points="1.3 2.6 1.3 .8 0 1.8 0 3.6 1.3 2.6" style="fill: #83aaff; stroke-width: 0px;"/>
              <polygon points="1.3 4.4 1.3 2.6 0 3.6 0 5.4 1.3 4.4" style="fill: #608dff; stroke-width: 0px;"/>
              <polygon points="1.3 6.2 1.3 4.4 0 5.4 0 7.2 1.3 6.2" style="fill: #4a7aff; stroke-width: 0px;"/>
              <polygon points="1.3 8.1 1.3 6.2 0 7.2 0 9 1.3 8.1" style="fill: #6a95ff; stroke-width: 0px;"/>
              <polygon points="1.3 9.9 1.3 8.1 0 9 0 10.8 1.3 9.9" style="fill: #5383ff; stroke-width: 0px;"/>
              <polygon points="1.3 11.7 1.3 9.9 0 10.8 0 12.7 1.3 11.7" style="fill: #4d7dff; stroke-width: 0px;"/>
              <polygon points="1.3 13.5 1.3 11.7 0 12.7 0 14.5 1.3 13.5" style="fill: #c5ddff; stroke-width: 0px;"/>
              <polygon points="1.3 15.3 1.3 13.5 0 14.5 0 16.3 1.3 15.3" style="fill: #fff; stroke-width: 0px;"/>
              <polygon points="1.3 17.1 1.3 15.3 0 16.3 0 18.1 1.3 17.1" style="fill: #fff; stroke-width: 0px;"/>
            </g>
            <g style="mix-blend-mode: screen;">
              <polygon points="0 -.1 0 .5 1.3 1.4 1.3 -.1 0 -.1" style="fill: #4d7dff; stroke-width: 0px;"/>
              <polygon points="0 2.3 0 .5 1.3 1.4 1.3 3.2 0 2.3" style="fill: #5180ff; stroke-width: 0px;"/>
              <polygon points="0 4.1 0 2.3 1.3 3.2 1.3 5.1 0 4.1" style="fill: #5987ff; stroke-width: 0px;"/>
              <polygon points="0 5.9 0 4.1 1.3 5.1 1.3 6.9 0 5.9" style="fill: #6490ff; stroke-width: 0px;"/>
              <polygon points="0 7.7 0 5.9 1.3 6.9 1.3 8.7 0 7.7" style="fill: #80a7ff; stroke-width: 0px;"/>
              <polygon points="0 9.5 0 7.7 1.3 8.7 1.3 10.5 0 9.5" style="fill: #accaff; stroke-width: 0px;"/>
              <polygon points="0 11.3 0 9.5 1.3 10.5 1.3 12.3 0 11.3" style="fill: #b5d2ff; stroke-width: 0px;"/>
              <polygon points="0 13.2 0 11.3 1.3 12.3 1.3 14.1 0 13.2" style="fill: #9dbfff; stroke-width: 0px;"/>
              <polygon points="0 15 0 13.2 1.3 14.1 1.3 16 0 15" style="fill: #83aaff; stroke-width: 0px;"/>
              <polygon points="0 16.8 0 15 1.3 16 1.3 17.8 0 16.8" style="fill: #78a2ff; stroke-width: 0px;"/>
              <polygon points="0 18.6 0 16.8 1.3 17.8 1.3 19.6 0 18.6" style="fill: #719bff; stroke-width: 0px;"/>
              <polygon points="1.7 -.1 2.7 .6 2.7 -.1 1.7 -.1" style="fill: #3462ff; stroke-width: 0px;"/>
              <polygon points="1.3 -.1 1.3 1.4 2.7 2.4 2.7 .6 1.7 -.1 1.3 -.1" style="fill: #3766ff; stroke-width: 0px;"/>
              <polygon points="1.3 3.2 1.3 1.4 2.7 2.4 2.7 4.2 1.3 3.2" style="fill: #3766ff; stroke-width: 0px;"/>
              <polygon points="1.3 5.1 1.3 3.2 2.7 4.2 2.7 6 1.3 5.1" style="fill: #4a7aff; stroke-width: 0px;"/>
              <polygon points="1.3 6.9 1.3 5.1 2.7 6 2.7 7.9 1.3 6.9" style="fill: #6692ff; stroke-width: 0px;"/>
              <polygon points="1.3 8.7 1.3 6.9 2.7 7.9 2.7 9.7 1.3 8.7" style="fill: #749dff; stroke-width: 0px;"/>
              <polygon points="1.3 10.5 1.3 8.7 2.7 9.7 2.7 11.5 1.3 10.5" style="fill: #9dbfff; stroke-width: 0px;"/>
              <polygon points="1.3 12.3 1.3 10.5 2.7 11.5 2.7 13.3 1.3 12.3" style="fill: #bed7ff; stroke-width: 0px;"/>
              <polygon points="1.3 14.1 1.3 12.3 2.7 13.3 2.7 15.1 1.3 14.1" style="fill: #a9c8ff; stroke-width: 0px;"/>
              <polygon points="1.3 16 1.3 14.1 2.7 15.1 2.7 16.9 1.3 16" style="fill: #e7f7ff; stroke-width: 0px;"/>
              <polygon points="1.3 17.8 1.3 16 2.7 16.9 2.7 18.8 1.3 17.8" style="fill: #80a7ff; stroke-width: 0px;"/>
              <polygon points="2.7 -.1 2.7 .6 4.1 1.6 4.1 -.1 2.7 -.1" style="fill: #3462ff; stroke-width: 0px;"/>
              <polygon points="2.7 2.4 2.7 .6 4.1 1.6 4.1 3.4 2.7 2.4" style="fill: #3f70ff; stroke-width: 0px;"/>
              <polygon points="2.7 4.2 2.7 2.4 4.1 3.4 4.1 5.2 2.7 4.2" style="fill: #5180ff; stroke-width: 0px;"/>
              <polygon points="2.7 6 2.7 4.2 4.1 5.2 4.1 7 2.7 6" style="fill: #4a7aff; stroke-width: 0px;"/>
              <polygon points="2.7 7.9 2.7 6 4.1 7 4.1 8.8 2.7 7.9" style="fill: #5180ff; stroke-width: 0px;"/>
              <polygon points="2.7 9.7 2.7 7.9 4.1 8.8 4.1 10.7 2.7 9.7" style="fill: #5987ff; stroke-width: 0px;"/>
              <polygon points="2.7 11.5 2.7 9.7 4.1 10.7 4.1 12.5 2.7 11.5" style="fill: #80a7ff; stroke-width: 0px;"/>
              <polygon points="2.7 13.3 2.7 11.5 4.1 12.5 4.1 14.3 2.7 13.3" style="fill: #e7f7ff; stroke-width: 0px;"/>
              <polygon points="2.7 15.1 2.7 13.3 4.1 14.3 4.1 16.1 2.7 15.1" style="fill: #a9c8ff; stroke-width: 0px;"/>
              <polygon points="2.7 16.9 2.7 15.1 4.1 16.1 4.1 17.9 2.7 16.9" style="fill: #fff; stroke-width: 0px;"/>
              <polygon points="2.7 18.8 2.7 16.9 4.1 17.9 4.1 19.7 2.7 18.8" style="fill: #b1ceff; stroke-width: 0px;"/>
              <polygon points="4.3 -.1 5.5 .7 5.5 -.1 4.3 -.1" style="fill: #315eff; stroke-width: 0px;"/>
              <polygon points="4.1 -.1 4.1 1.6 5.5 2.6 5.5 .7 4.3 -.1 4.1 -.1" style="fill: #3f70ff; stroke-width: 0px;"/>
              <polygon points="4.1 3.4 4.1 1.6 5.5 2.6 5.5 4.4 4.1 3.4" style="fill: #3c6dff; stroke-width: 0px;"/>
              <polygon points="4.1 5.2 4.1 3.4 5.5 4.4 5.5 6.2 4.1 5.2" style="fill: #4474ff; stroke-width: 0px;"/>
              <polygon points="4.1 7 4.1 5.2 5.5 6.2 5.5 8 4.1 7" style="fill: #4171ff; stroke-width: 0px;"/>
              <polygon points="4.1 8.8 4.1 7 5.5 8 5.5 9.8 4.1 8.8" style="fill: #6a95ff; stroke-width: 0px;"/>
              <polygon points="4.1 10.7 4.1 8.8 5.5 9.8 5.5 11.6 4.1 10.7" style="fill: #8db3ff; stroke-width: 0px;"/>
              <polygon points="4.1 12.5 4.1 10.7 5.5 11.6 5.5 13.5 4.1 12.5" style="fill: #80a7ff; stroke-width: 0px;"/>
              <polygon points="4.1 14.3 4.1 12.5 5.5 13.5 5.5 15.3 4.1 14.3" style="fill: #cee5ff; stroke-width: 0px;"/>
              <polygon points="4.1 16.1 4.1 14.3 5.5 15.3 5.5 17.1 4.1 16.1" style="fill: #c8e1ff; stroke-width: 0px;"/>
              <polygon points="4.1 17.9 4.1 16.1 5.5 17.1 5.5 18.9 4.1 17.9" style="fill: #b5d2ff; stroke-width: 0px;"/>
              <polygon points="5.5 -.1 5.5 .7 6.9 1.7 6.9 0 6.9 -.1 5.5 -.1" style="fill: #315eff; stroke-width: 0px;"/>
              <polygon points="5.5 2.6 5.5 .7 6.9 1.7 6.9 3.5 5.5 2.6" style="fill: #3462ff; stroke-width: 0px;"/>
              <polygon points="5.5 4.4 5.5 2.6 6.9 3.5 6.9 5.4 5.5 4.4" style="fill: #3462ff; stroke-width: 0px;"/>
              <polygon points="5.5 6.2 5.5 4.4 6.9 5.4 6.9 7.2 5.5 6.2" style="fill: #5180ff; stroke-width: 0px;"/>
              <polygon points="5.5 8 5.5 6.2 6.9 7.2 6.9 9 5.5 8" style="fill: #5987ff; stroke-width: 0px;"/>
              <polygon points="5.5 9.8 5.5 8 6.9 9 6.9 10.8 5.5 9.8" style="fill: #9dbfff; stroke-width: 0px;"/>
              <polygon points="5.5 11.6 5.5 9.8 6.9 10.8 6.9 12.6 5.5 11.6" style="fill: #a5c5ff; stroke-width: 0px;"/>
              <polygon points="5.5 13.5 5.5 11.6 6.9 12.6 6.9 14.4 5.5 13.5" style="fill: #86acff; stroke-width: 0px;"/>
              <polygon points="5.5 15.3 5.5 13.5 6.9 14.4 6.9 16.3 5.5 15.3" style="fill: #a0c1ff; stroke-width: 0px;"/>
              <polygon points="5.5 17.1 5.5 15.3 6.9 16.3 6.9 18.1 5.5 17.1" style="fill: #9dbfff; stroke-width: 0px;"/>
              <polygon points="6.9 -.1 6.9 0 8.3 .9 8.3 -.1 6.9 -.1" style="fill: #2751f9; stroke-width: 0px;"/>
              <polygon points="6.9 1.7 6.9 0 8.3 .9 8.3 2.7 6.9 1.7" style="fill: #3c6dff; stroke-width: 0px;"/>
              <polygon points="6.9 3.5 6.9 1.7 8.3 2.7 8.3 4.5 6.9 3.5" style="fill: #4474ff; stroke-width: 0px;"/>
              <polygon points="6.9 5.4 6.9 3.5 8.3 4.5 8.3 6.3 6.9 5.4" style="fill: #4a7aff; stroke-width: 0px;"/>
              <polygon points="6.9 7.2 6.9 5.4 8.3 6.3 8.3 8.2 6.9 7.2" style="fill: #6692ff; stroke-width: 0px;"/>
              <polygon points="6.9 9 6.9 7.2 8.3 8.2 8.3 10 6.9 9" style="fill: #5786ff; stroke-width: 0px;"/>
              <polygon points="6.9 10.8 6.9 9 8.3 10 8.3 11.8 6.9 10.8" style="fill: #608dff; stroke-width: 0px;"/>
              <polygon points="6.9 12.6 6.9 10.8 8.3 11.8 8.3 13.6 6.9 12.6" style="fill: #83aaff; stroke-width: 0px;"/>
              <polygon points="6.9 14.4 6.9 12.6 8.3 13.6 8.3 15.4 6.9 14.4" style="fill: #86acff; stroke-width: 0px;"/>
              <polygon points="6.9 16.3 6.9 14.4 8.3 15.4 8.3 17.2 6.9 16.3" style="fill: #accaff; stroke-width: 0px;"/>
              <polygon points="6.9 18.1 6.9 16.3 8.3 17.2 8.3 19 6.9 18.1" style="fill: #d5ebff; stroke-width: 0px;"/>
              <polygon points="9.5 -.1 9.7 0 9.7 -.1 9.5 -.1" style="fill: #4877ff; stroke-width: 0px;"/>
              <polygon points="8.3 -.1 8.3 .9 9.7 1.9 9.7 0 9.5 -.1 8.3 -.1" style="fill: #4877ff; stroke-width: 0px;"/>
              <polygon points="8.3 2.7 8.3 .9 9.7 1.9 9.7 3.7 8.3 2.7" style="fill: #3f70ff; stroke-width: 0px;"/>
              <polygon points="8.3 4.5 8.3 2.7 9.7 3.7 9.7 5.5 8.3 4.5" style="fill: #4171ff; stroke-width: 0px;"/>
              <polygon points="8.3 6.3 8.3 4.5 9.7 5.5 9.7 7.3 8.3 6.3" style="fill: #4d7dff; stroke-width: 0px;"/>
              <polygon points="8.3 8.2 8.3 6.3 9.7 7.3 9.7 9.1 8.3 8.2" style="fill: #608dff; stroke-width: 0px;"/>
              <polygon points="8.3 10 8.3 8.2 9.7 9.1 9.7 11 8.3 10" style="fill: #5786ff; stroke-width: 0px;"/>
              <polygon points="8.3 11.8 8.3 10 9.7 11 9.7 12.8 8.3 11.8" style="fill: #83aaff; stroke-width: 0px;"/>
              <polygon points="8.3 13.6 8.3 11.8 9.7 12.8 9.7 14.6 8.3 13.6" style="fill: #8ab0ff; stroke-width: 0px;"/>
              <polygon points="8.3 15.4 8.3 13.6 9.7 14.6 9.7 16.4 8.3 15.4" style="fill: #719bff; stroke-width: 0px;"/>
              <polygon points="8.3 17.2 8.3 15.4 9.7 16.4 9.7 18.2 8.3 17.2" style="fill: #98bcff; stroke-width: 0px;"/>
              <polygon points="9.7 -.1 9.7 0 11.1 1 11.1 -.1 9.7 -.1" style="fill: #5180ff; stroke-width: 0px;"/>
              <polygon points="9.7 1.9 9.7 0 11.1 1 11.1 2.9 9.7 1.9" style="fill: #4171ff; stroke-width: 0px;"/>
              <polygon points="9.7 3.7 9.7 1.9 11.1 2.9 11.1 4.7 9.7 3.7" style="fill: #4d7dff; stroke-width: 0px;"/>
              <polygon points="9.7 5.5 9.7 3.7 11.1 4.7 11.1 6.5 9.7 5.5" style="fill: #5180ff; stroke-width: 0px;"/>
              <polygon points="9.7 7.3 9.7 5.5 11.1 6.5 11.1 8.3 9.7 7.3" style="fill: #6a95ff; stroke-width: 0px;"/>
              <polygon points="9.7 9.1 9.7 7.3 11.1 8.3 11.1 10.1 9.7 9.1" style="fill: #7ba4ff; stroke-width: 0px;"/>
              <polygon points="9.7 11 9.7 9.1 11.1 10.1 11.1 11.9 9.7 11" style="fill: #5987ff; stroke-width: 0px;"/>
              <polygon points="9.7 12.8 9.7 11 11.1 11.9 11.1 13.7 9.7 12.8" style="fill: #80a7ff; stroke-width: 0px;"/>
              <polygon points="9.7 14.6 9.7 12.8 11.1 13.7 11.1 15.6 9.7 14.6" style="fill: #a0c1ff; stroke-width: 0px;"/>
              <polygon points="9.7 16.4 9.7 14.6 11.1 15.6 11.1 17.4 9.7 16.4" style="fill: #83aaff; stroke-width: 0px;"/>
              <polygon points="9.7 18.2 9.7 16.4 11.1 17.4 11.1 19.2 9.7 18.2" style="fill: #b5d2ff; stroke-width: 0px;"/>
              <polygon points="12.1 -.1 12.5 .2 12.5 -.1 12.1 -.1" style="fill: #4877ff; stroke-width: 0px;"/>
              <polygon points="11.1 -.1 11.1 1 12.5 2 12.5 .2 12.1 -.1 11.1 -.1" style="fill: #4877ff; stroke-width: 0px;"/>
              <polygon points="11.1 2.9 11.1 1 12.5 2 12.5 3.8 11.1 2.9" style="fill: #608dff; stroke-width: 0px;"/>
              <polygon points="11.1 4.7 11.1 2.9 12.5 3.8 12.5 5.6 11.1 4.7" style="fill: #4877ff; stroke-width: 0px;"/>
              <polygon points="11.1 6.5 11.1 4.7 12.5 5.6 12.5 7.5 11.1 6.5" style="fill: #5d8aff; stroke-width: 0px;"/>
              <polygon points="11.1 8.3 11.1 6.5 12.5 7.5 12.5 9.3 11.1 8.3" style="fill: #608dff; stroke-width: 0px;"/>
              <polygon points="11.1 10.1 11.1 8.3 12.5 9.3 12.5 11.1 11.1 10.1" style="fill: #7ba4ff; stroke-width: 0px;"/>
              <polygon points="11.1 11.9 11.1 10.1 12.5 11.1 12.5 12.9 11.1 11.9" style="fill: #7ba4ff; stroke-width: 0px;"/>
              <polygon points="11.1 13.7 11.1 11.9 12.5 12.9 12.5 14.7 11.1 13.7" style="fill: #98bcff; stroke-width: 0px;"/>
              <polygon points="11.1 15.6 11.1 13.7 12.5 14.7 12.5 16.5 11.1 15.6" style="fill: #6a95ff; stroke-width: 0px;"/>
              <polygon points="11.1 17.4 11.1 15.6 12.5 16.5 12.5 18.4 11.1 17.4" style="fill: #8ab0ff; stroke-width: 0px;"/>
              <polygon points="12.5 -.1 12.5 .2 13.9 1.2 13.9 -.1 12.5 -.1" style="fill: #5d8aff; stroke-width: 0px;"/>
              <polygon points="12.5 2 12.5 .2 13.9 1.2 13.9 3 12.5 2" style="fill: #608dff; stroke-width: 0px;"/>
              <polygon points="12.5 3.8 12.5 2 13.9 3 13.9 4.8 12.5 3.8" style="fill: #4a7aff; stroke-width: 0px;"/>
              <polygon points="12.5 5.6 12.5 3.8 13.9 4.8 13.9 6.6 12.5 5.6" style="fill: #5786ff; stroke-width: 0px;"/>
              <polygon points="12.5 7.5 12.5 5.6 13.9 6.6 13.9 8.4 12.5 7.5" style="fill: #5987ff; stroke-width: 0px;"/>
              <polygon points="12.5 9.3 12.5 7.5 13.9 8.4 13.9 10.3 12.5 9.3" style="fill: #a0c1ff; stroke-width: 0px;"/>
              <polygon points="12.5 11.1 12.5 9.3 13.9 10.3 13.9 12.1 12.5 11.1" style="fill: #8db3ff; stroke-width: 0px;"/>
              <polygon points="12.5 12.9 12.5 11.1 13.9 12.1 13.9 13.9 12.5 12.9" style="fill: #719bff; stroke-width: 0px;"/>
              <polygon points="12.5 14.7 12.5 12.9 13.9 13.9 13.9 15.7 12.5 14.7" style="fill: #92b6ff; stroke-width: 0px;"/>
              <polygon points="12.5 16.5 12.5 14.7 13.9 15.7 13.9 17.5 12.5 16.5" style="fill: #749dff; stroke-width: 0px;"/>
              <polygon points="12.5 18.4 12.5 16.5 13.9 17.5 13.9 19.3 12.5 18.4" style="fill: #8db3ff; stroke-width: 0px;"/>
              <polygon points="14.7 -.1 15.3 .3 15.3 -.1 14.7 -.1" style="fill: #4171ff; stroke-width: 0px;"/>
              <polygon points="13.9 -.1 13.9 1.2 15.3 2.2 15.3 .3 14.7 -.1 13.9 -.1" style="fill: #5786ff; stroke-width: 0px;"/>
              <polygon points="13.9 3 13.9 1.2 15.3 2.2 15.3 4 13.9 3" style="fill: #6692ff; stroke-width: 0px;"/>
              <polygon points="13.9 4.8 13.9 3 15.3 4 15.3 5.8 13.9 4.8" style="fill: #6490ff; stroke-width: 0px;"/>
              <polygon points="13.9 6.6 13.9 4.8 15.3 5.8 15.3 7.6 13.9 6.6" style="fill: #4877ff; stroke-width: 0px;"/>
              <polygon points="13.9 8.4 13.9 6.6 15.3 7.6 15.3 9.4 13.9 8.4" style="fill: #608dff; stroke-width: 0px;"/>
              <polygon points="13.9 10.3 13.9 8.4 15.3 9.4 15.3 11.2 13.9 10.3" style="fill: #6a95ff; stroke-width: 0px;"/>
              <polygon points="13.9 12.1 13.9 10.3 15.3 11.2 15.3 13.1 13.9 12.1" style="fill: #86acff; stroke-width: 0px;"/>
              <polygon points="13.9 13.9 13.9 12.1 15.3 13.1 15.3 14.9 13.9 13.9" style="fill: #92b6ff; stroke-width: 0px;"/>
              <polygon points="13.9 15.7 13.9 13.9 15.3 14.9 15.3 16.7 13.9 15.7" style="fill: #accaff; stroke-width: 0px;"/>
              <polygon points="13.9 17.5 13.9 15.7 15.3 16.7 15.3 18.5 13.9 17.5" style="fill: #749dff; stroke-width: 0px;"/>
              <polygon points="15.3 -.1 15.3 .3 16.7 1.3 16.7 -.1 15.3 -.1" style="fill: #4877ff; stroke-width: 0px;"/>
              <polygon points="15.3 2.2 15.3 .3 16.7 1.3 16.7 3.1 15.3 2.2" style="fill: #5786ff; stroke-width: 0px;"/>
              <polygon points="15.3 4 15.3 2.2 16.7 3.1 16.7 5 15.3 4" style="fill: #608dff; stroke-width: 0px;"/>
              <polygon points="15.3 5.8 15.3 4 16.7 5 16.7 6.8 15.3 5.8" style="fill: #5d8aff; stroke-width: 0px;"/>
              <polygon points="15.3 7.6 15.3 5.8 16.7 6.8 16.7 8.6 15.3 7.6" style="fill: #5d8aff; stroke-width: 0px;"/>
              <polygon points="15.3 9.4 15.3 7.6 16.7 8.6 16.7 10.4 15.3 9.4" style="fill: #86acff; stroke-width: 0px;"/>
              <polygon points="15.3 11.2 15.3 9.4 16.7 10.4 16.7 12.2 15.3 11.2" style="fill: #6d98ff; stroke-width: 0px;"/>
              <polygon points="15.3 13.1 15.3 11.2 16.7 12.2 16.7 14 15.3 13.1" style="fill: #dbefff; stroke-width: 0px;"/>
              <polygon points="15.3 14.9 15.3 13.1 16.7 14 16.7 15.9 15.3 14.9" style="fill: #accaff; stroke-width: 0px;"/>
              <polygon points="15.3 16.7 15.3 14.9 16.7 15.9 16.7 17.7 15.3 16.7" style="fill: #98bcff; stroke-width: 0px;"/>
              <polygon points="15.3 18.5 15.3 16.7 16.7 17.7 16.7 19.5 15.3 18.5" style="fill: #b8d4ff; stroke-width: 0px;"/>
              <polygon points="17.3 -.1 18.1 .5 18.1 -.1 17.3 -.1" style="fill: #5383ff; stroke-width: 0px;"/>
              <polygon points="16.7 -.1 16.7 1.3 18.1 2.3 18.1 .5 17.3 -.1 16.7 -.1" style="fill: #4877ff; stroke-width: 0px;"/>
              <polygon points="16.7 3.1 16.7 1.3 18.1 2.3 18.1 4.1 16.7 3.1" style="fill: #5383ff; stroke-width: 0px;"/>
              <polygon points="16.7 5 16.7 3.1 18.1 4.1 18.1 5.9 16.7 5" style="fill: #6a95ff; stroke-width: 0px;"/>
              <polygon points="16.7 6.8 16.7 5 18.1 5.9 18.1 7.8 16.7 6.8" style="fill: #6692ff; stroke-width: 0px;"/>
              <polygon points="16.7 8.6 16.7 6.8 18.1 7.8 18.1 9.6 16.7 8.6" style="fill: #608dff; stroke-width: 0px;"/>
              <polygon points="16.7 10.4 16.7 8.6 18.1 9.6 18.1 11.4 16.7 10.4" style="fill: #608dff; stroke-width: 0px;"/>
              <polygon points="16.7 12.2 16.7 10.4 18.1 11.4 18.1 13.2 16.7 12.2" style="fill: #8db3ff; stroke-width: 0px;"/>
              <polygon points="16.7 14 16.7 12.2 18.1 13.2 18.1 15 16.7 14" style="fill: #fff; stroke-width: 0px;"/>
              <polygon points="16.7 15.9 16.7 14 18.1 15 18.1 16.8 16.7 15.9" style="fill: #a0c1ff; stroke-width: 0px;"/>
              <polygon points="16.7 17.7 16.7 15.9 18.1 16.8 18.1 18.7 16.7 17.7" style="fill: #b5d2ff; stroke-width: 0px;"/>
              <polygon points="18.1 -.1 18.1 .5 19.5 1.5 19.5 -.1 18.1 -.1" style="fill: #5786ff; stroke-width: 0px;"/>
              <polygon points="18.1 2.3 18.1 .5 19.5 1.5 19.5 3.3 18.1 2.3" style="fill: #4a7aff; stroke-width: 0px;"/>
              <polygon points="18.1 4.1 18.1 2.3 19.5 3.3 19.5 5.1 18.1 4.1" style="fill: #4a7aff; stroke-width: 0px;"/>
              <polygon points="18.1 5.9 18.1 4.1 19.5 5.1 19.5 6.9 18.1 5.9" style="fill: #5987ff; stroke-width: 0px;"/>
              <polygon points="18.1 7.8 18.1 5.9 19.5 6.9 19.5 8.7 18.1 7.8" style="fill: #749dff; stroke-width: 0px;"/>
              <polygon points="18.1 9.6 18.1 7.8 19.5 8.7 19.5 10.6 18.1 9.6" style="fill: #719bff; stroke-width: 0px;"/>
              <polygon points="18.1 11.4 18.1 9.6 19.5 10.6 19.5 12.4 18.1 11.4" style="fill: #b1ceff; stroke-width: 0px;"/>
              <polygon points="18.1 13.2 18.1 11.4 19.5 12.4 19.5 14.2 18.1 13.2" style="fill: #b1ceff; stroke-width: 0px;"/>
              <polygon points="18.1 15 18.1 13.2 19.5 14.2 19.5 16 18.1 15" style="fill: #accaff; stroke-width: 0px;"/>
              <polygon points="18.1 16.8 18.1 15 19.5 16 19.5 17.8 18.1 16.8" style="fill: #cee5ff; stroke-width: 0px;"/>
              <polygon points="18.1 18.7 18.1 16.8 19.5 17.8 19.5 19.6 18.1 18.7" style="fill: #f1ffff; stroke-width: 0px;"/>
              <polygon points="19.9 -.1 20.9 .6 20.9 -.1 19.9 -.1" style="fill: #4a7aff; stroke-width: 0px;"/>
              <polygon points="19.5 -.1 19.5 1.5 20.9 2.5 20.9 .6 19.9 -.1 19.5 -.1" style="fill: #5383ff; stroke-width: 0px;"/>
              <polygon points="19.5 3.3 19.5 1.5 20.9 2.5 20.9 4.3 19.5 3.3" style="fill: #4a7aff; stroke-width: 0px;"/>
              <polygon points="19.5 5.1 19.5 3.3 20.9 4.3 20.9 6.1 19.5 5.1" style="fill: #3c6dff; stroke-width: 0px;"/>
              <polygon points="19.5 6.9 19.5 5.1 20.9 6.1 20.9 7.9 19.5 6.9" style="fill: #5d8aff; stroke-width: 0px;"/>
              <polygon points="19.5 8.7 19.5 6.9 20.9 7.9 20.9 9.7 19.5 8.7" style="fill: #83aaff; stroke-width: 0px;"/>
              <polygon points="19.5 10.6 19.5 8.7 20.9 9.7 20.9 11.5 19.5 10.6" style="fill: #a0c1ff; stroke-width: 0px;"/>
              <polygon points="19.5 12.4 19.5 10.6 20.9 11.5 20.9 13.4 19.5 12.4" style="fill: #d2e7ff; stroke-width: 0px;"/>
              <polygon points="19.5 14.2 19.5 12.4 20.9 13.4 20.9 15.2 19.5 14.2" style="fill: #d2e7ff; stroke-width: 0px;"/>
              <polygon points="19.5 16 19.5 14.2 20.9 15.2 20.9 17 19.5 16" style="fill: #c5ddff; stroke-width: 0px;"/>
              <polygon points="19.5 17.8 19.5 16 20.9 17 20.9 18.8 19.5 17.8" style="fill: #fff; stroke-width: 0px;"/>
              <polygon points="20.9 -.1 20.9 .6 22.3 1.6 22.3 -.1 20.9 -.1" style="fill: #749dff; stroke-width: 0px;"/>
              <polygon points="20.9 2.5 20.9 .6 22.3 1.6 22.3 3.4 20.9 2.5" style="fill: #5786ff; stroke-width: 0px;"/>
              <polygon points="20.9 4.3 20.9 2.5 22.3 3.4 22.3 5.3 20.9 4.3" style="fill: #4877ff; stroke-width: 0px;"/>
              <polygon points="20.9 6.1 20.9 4.3 22.3 5.3 22.3 7.1 20.9 6.1" style="fill: #3766ff; stroke-width: 0px;"/>
              <polygon points="20.9 7.9 20.9 6.1 22.3 7.1 22.3 8.9 20.9 7.9" style="fill: #5786ff; stroke-width: 0px;"/>
              <polygon points="20.9 9.7 20.9 7.9 22.3 8.9 22.3 10.7 20.9 9.7" style="fill: #5d8aff; stroke-width: 0px;"/>
              <polygon points="20.9 11.5 20.9 9.7 22.3 10.7 22.3 12.5 20.9 11.5" style="fill: #92b6ff; stroke-width: 0px;"/>
              <polygon points="20.9 13.4 20.9 11.5 22.3 12.5 22.3 14.3 20.9 13.4" style="fill: #9dbfff; stroke-width: 0px;"/>
              <polygon points="20.9 15.2 20.9 13.4 22.3 14.3 22.3 16.2 20.9 15.2" style="fill: #f5ffff; stroke-width: 0px;"/>
              <polygon points="20.9 17 20.9 15.2 22.3 16.2 22.3 18 20.9 17" style="fill: #f1ffff; stroke-width: 0px;"/>
              <polygon points="20.9 18.8 20.9 17 22.3 18 22.3 19.8 20.9 18.8" style="fill: #fff; stroke-width: 0px;"/>
              <polygon points="22.4 -.1 23.7 .8 23.7 -.1 22.4 -.1" style="fill: #749dff; stroke-width: 0px;"/>
              <polygon points="22.3 -.1 22.3 1.6 23.7 2.6 23.7 .8 22.4 -.1 22.3 -.1" style="fill: #719bff; stroke-width: 0px;"/>
              <polygon points="22.3 3.4 22.3 1.6 23.7 2.6 23.7 4.4 22.3 3.4" style="fill: #4171ff; stroke-width: 0px;"/>
              <polygon points="22.3 5.3 22.3 3.4 23.7 4.4 23.7 6.2 22.3 5.3" style="fill: #5180ff; stroke-width: 0px;"/>
              <polygon points="22.3 7.1 22.3 5.3 23.7 6.2 23.7 8.1 22.3 7.1" style="fill: #4474ff; stroke-width: 0px;"/>
              <polygon points="22.3 8.9 22.3 7.1 23.7 8.1 23.7 9.9 22.3 8.9" style="fill: #6692ff; stroke-width: 0px;"/>
              <polygon points="22.3 10.7 22.3 8.9 23.7 9.9 23.7 11.7 22.3 10.7" style="fill: #5180ff; stroke-width: 0px;"/>
              <polygon points="22.3 12.5 22.3 10.7 23.7 11.7 23.7 13.5 22.3 12.5" style="fill: #92b6ff; stroke-width: 0px;"/>
              <polygon points="22.3 14.3 22.3 12.5 23.7 13.5 23.7 15.3 22.3 14.3" style="fill: #e7f7ff; stroke-width: 0px;"/>
              <polygon points="22.3 16.2 22.3 14.3 23.7 15.3 23.7 17.1 22.3 16.2" style="fill: #e3f5ff; stroke-width: 0px;"/>
              <polygon points="22.3 18 22.3 16.2 23.7 17.1 23.7 18.9 22.3 18" style="fill: #fff; stroke-width: 0px;"/>
              <polygon points="23.7 -.1 23.7 .8 25.1 1.8 25.1 0 25 -.1 23.7 -.1" style="fill: #a0c1ff; stroke-width: 0px;"/>
              <polygon points="23.7 2.6 23.7 .8 25.1 1.8 25.1 3.6 23.7 2.6" style="fill: #83aaff; stroke-width: 0px;"/>
              <polygon points="23.7 4.4 23.7 2.6 25.1 3.6 25.1 5.4 23.7 4.4" style="fill: #608dff; stroke-width: 0px;"/>
              <polygon points="23.7 6.2 23.7 4.4 25.1 5.4 25.1 7.2 23.7 6.2" style="fill: #4a7aff; stroke-width: 0px;"/>
              <polygon points="23.7 8.1 23.7 6.2 25.1 7.2 25.1 9 23.7 8.1" style="fill: #6a95ff; stroke-width: 0px;"/>
              <polygon points="23.7 9.9 23.7 8.1 25.1 9 25.1 10.8 23.7 9.9" style="fill: #5383ff; stroke-width: 0px;"/>
              <polygon points="23.7 11.7 23.7 9.9 25.1 10.8 25.1 12.7 23.7 11.7" style="fill: #4d7dff; stroke-width: 0px;"/>
              <polygon points="23.7 13.5 23.7 11.7 25.1 12.7 25.1 14.5 23.7 13.5" style="fill: #c5ddff; stroke-width: 0px;"/>
              <polygon points="23.7 15.3 23.7 13.5 25.1 14.5 25.1 16.3 23.7 15.3" style="fill: #fff; stroke-width: 0px;"/>
              <polygon points="23.7 17.1 23.7 15.3 25.1 16.3 25.1 18.1 23.7 17.1" style="fill: #fff; stroke-width: 0px;"/>
            </g>
          </g>
          <rect x="0" y="-.1" width="25.2" height="37.1" style="fill: url(#uuid-4ad71fc2-294d-4a89-8fa4-787a6c44ec2f); mix-blend-mode: soft-light; stroke-width: 0px;"/>
        </g>
      </g>
    </g>
  </g>
</svg>