<?xml version="1.0" ?><svg xmlns="http://www.w3.org/2000/svg" id="Layer_2" data-name="Layer 2" viewBox="0 0 13.6 13.6">
  <defs>
    <style>
      .cls-1 {
        fill: #000;
        stroke-width: 0px;
      }
    </style>
  </defs>
  <g id="Layer_2-2" data-name="Layer 2">
    <path id="ai-enabled" class="cls-1" d="M2.3,9.1H.5c-.3,0-.5-.2-.5-.5s.2-.5.5-.5h1.8c.3,0,.5.2.5.5s-.2.5-.5.5ZM13.6,8.6c0-.3-.2-.5-.5-.5h-1.8c-.3,0-.5.2-.5.5s.2.5.5.5h1.8c.3,0,.5-.2.5-.5ZM2.8,5c0-.3-.2-.5-.5-.5H.5c-.3,0-.5.2-.5.5s.2.5.5.5h1.8c.3,0,.5-.2.5-.5ZM13.6,5c0-.3-.2-.5-.5-.5h-1.8c-.3,0-.5.2-.5.5s.2.5.5.5h1.8c.3,0,.5-.2.5-.5ZM5.5,2.3V.5c0-.3-.2-.5-.5-.5s-.5.2-.5.5v1.8c0,.3.2.5.5.5s.5-.2.5-.5ZM5.5,13.1v-1.8c0-.3-.2-.5-.5-.5s-.5.2-.5.5v1.8c0,.3.2.5.5.5s.5-.2.5-.5ZM9.1,2.3V.5c0-.3-.2-.5-.5-.5s-.5.2-.5.5v1.8c0,.3.2.5.5.5s.5-.2.5-.5ZM9.1,13.1v-1.8c0-.3-.2-.5-.5-.5s-.5.2-.5.5v1.8c0,.3.2.5.5.5s.5-.2.5-.5ZM11.8,10.3V3.3c0-.9-.6-1.5-1.5-1.5H3.3c-.9,0-1.5.6-1.5,1.5v7c0,.9.6,1.5,1.5,1.5h7c.9,0,1.5-.6,1.5-1.5ZM10.3,2.8c.3,0,.5.2.5.5v7c0,.3-.2.5-.5.5H3.3c-.3,0-.5-.2-.5-.5V3.3c0-.3.2-.5.5-.5h7ZM6.9,9.6h0c.3,0,.6-.3.6-.7.2-.7.8-1.3,1.7-1.5.4,0,.6-.5.6-.9,0-.4-.4-.6-.7-.6h0c-.7,0-1.3-.7-1.5-1.5,0-.5-.4-.8-.8-.8s-.7.3-.7.7c-.2.8-.8,1.4-1.7,1.6-.4,0-.6.5-.6.9s.3.6.7.6h.2c.6.2,1.2.8,1.3,1.6.1.4.4.7.8.7h0ZM6.8,5.4c.3.6.8,1.1,1.4,1.4-.6.3-1.1.7-1.4,1.3-.3-.6-.7-1.1-1.3-1.4.6-.3,1-.7,1.3-1.3Z"/>
  </g>
</svg>