<?xml version="1.0" ?><svg xmlns="http://www.w3.org/2000/svg" id="Layer_2" data-name="Layer 2" viewBox="0 0 14.1 14.1">
  <defs>
    <style>
      .cls-1 {
        fill: #000;
        stroke-width: 0px;
      }
    </style>
  </defs>
  <g id="Layer_2-2" data-name="Layer 2">
    <path id="best-tech" class="cls-1" d="M6.5,14C2.9,14,0,11.1,0,7.5S2.9,1,6.5,1s.5.2.5.5-.2.5-.5.5C3.5,2,1,4.5,1,7.5s2.5,5.5,5.5,5.5,5.5-2.5,5.5-5.5.2-.5.5-.5.5.2.5.5c0,3.6-2.9,6.5-6.5,6.5ZM7.9,7.5c0-.3-.2-.5-.5-.5H.5c-.3,0-.5.2-.5.5s.2.5.5.5h6.9c.3,0,.5-.2.5-.5ZM6.4,14.1c.2,0,.4,0,.4-.2,1.1-1.3,1.9-3,2.2-4.8,0-.3,0-.6-.4-.6-.3,0-.6,0-.6.4-.2,1.5-.8,2.8-1.6,3.9-1.2-1.6-1.8-3.5-1.8-5.2,0-2.1.9-4.1,2.2-5.7.2-.2.2-.5,0-.7s-.5-.2-.7,0c-1.5,1.8-2.3,3.9-2.4,6.3,0,2.2.8,4.4,2.4,6.3,0,.2.3.2.4.2h0ZM10.5,7.2h0c.4,0,.7-.4.7-.8.3-1.1,1.1-1.8,2.1-2,.4,0,.8-.3.8-.8s-.3-.8-.7-.8h0c-1.2,0-1.9-.9-2.2-2.1,0-.5-.6-.7-1-.7s-.7.3-.7.7c-.3,1.1-1.1,1.9-2.1,2.1-.4,0-.7.3-.7.8s.3.8.7.8h.3c.9.4,1.6,1.1,1.8,2.1s.5.8.9.8h0ZM10.3,1.5c.4,1,1.2,1.8,2.2,2.2-.9.3-1.7,1.1-2.1,2.1-.4-1-1.1-1.8-2-2.2.8-.4,1.5-1.1,1.9-2.1Z"/>
  </g>
</svg>