<?xml version="1.0" ?><svg xmlns="http://www.w3.org/2000/svg" id="Layer_2" data-name="Layer 2" viewBox="0 0 14 13.9">
  <defs>
    <style>
      .cls-1 {
        fill: #000;
        stroke-width: 0px;
      }
    </style>
  </defs>
  <g id="Layer_2-2" data-name="Layer 2">
    <path id="company" class="cls-1" d="M1.7,13.8c-.3,0-.5-.2-.5-.5V1.5c0-.9.6-1.5,1.5-1.5h4.8c.9,0,1.5.6,1.5,1.5v3.2c0,.3-.2.5-.5.5s-.5-.2-.5-.5V1.5c0-.3-.2-.5-.5-.5H2.7c-.3,0-.5.2-.5.5v11.8c0,.3-.2.5-.5.5ZM6,13.4c0-.3-.2-.5-.5-.5H.5c-.3,0-.5.2-.5.5s.2.5.5.5h5c.3,0,.5-.2.5-.5ZM4.6,3.2c0-.3-.2-.5-.5-.5H1.6c-.3,0-.5.2-.5.5s.2.5.5.5h2.5c.3,0,.5-.2.5-.5ZM5.9,5.7c0-.3-.2-.5-.5-.5H1.6c-.3,0-.5.2-.5.5s.2.5.5.5h3.8c.3,0,.5-.2.5-.5ZM12.8,8.2c0-1.3-1-2.3-2.3-2.3s-2.3,1-2.3,2.3,1,2.3,2.3,2.3,2.3-1,2.3-2.3ZM11.8,8.2c0,.7-.6,1.3-1.3,1.3s-1.3-.6-1.3-1.3.6-1.3,1.3-1.3,1.3.6,1.3,1.3ZM14,13.4c0-.7-.3-1.3-.5-1.7-.6-1.1-1.7-1.8-3-1.8s-2.4.7-3,1.7c-.5.6-.5,1.3-.5,1.8s.2.5.5.5.5,0,.5-.5,0-.9.3-1.3c.5-.7,1.3-1.2,2.2-1.2s1.8.5,2.2,1.2c.1.3.3.8.3,1.3s.2.5.5.5.5.2.5-.5Z"/>
  </g>
</svg>