<?xml version="1.0" ?><svg xmlns="http://www.w3.org/2000/svg" id="Layer_2" data-name="Layer 2" viewBox="0 0 14 13">
  <defs>
    <style>
      .cls-1 {
        fill: #000;
        stroke-width: 0px;
      }
    </style>
  </defs>
  <g id="Layer_2-2" data-name="Layer 2">
    <path id="curated-content" class="cls-1" d="M5,13H1c-.6,0-1-.4-1-1v-4c0-.6.4-1,1-1h4c.6,0,1,.4,1,1v4c0,.6-.4,1-1,1ZM1,8v4h4v-4H1ZM14,.5c0-.3-.2-.5-.5-.5h-5.5c-.3,0-.5.2-.5.5s.2.5.5.5h5.5c.3,0,.5-.2.5-.5ZM14,3.5c0-.3-.2-.5-.5-.5h-5.5c-.3,0-.5.2-.5.5s.2.5.5.5h5.5c.3,0,.5-.2.5-.5ZM14,6.5c0-.3-.2-.5-.5-.5h-5.5c-.3,0-.5.2-.5.5s.2.5.5.5h5.5c.3,0,.5-.2.5-.5ZM14,12.5c0-.3-.2-.5-.5-.5h-5.5c-.3,0-.5.2-.5.5s.2.5.5.5h5.5c.3,0,.5-.2.5-.5ZM14,9.5c0-.3-.2-.5-.5-.5h-5.5c-.3,0-.5.2-.5.5s.2.5.5.5h5.5c.3,0,.5-.2.5-.5ZM5,6H1c-.6,0-1-.4-1-1V1C0,.4.4,0,1,0h4c.6,0,1,.4,1,1v4c0,.6-.4,1-1,1ZM1,1v4h4V1H1Z"/>
  </g>
</svg>