<?xml version="1.0" ?><svg xmlns="http://www.w3.org/2000/svg" id="Layer_2" data-name="Layer 2" viewBox="0 0 14 14">
  <defs>
    <style>
      .cls-1 {
        fill: #000;
        stroke-width: 0px;
      }
    </style>
  </defs>
  <g id="Layer_2-2" data-name="Layer 2">
    <path id="faq" class="cls-1" d="M10,13c-1.7,0-3-1.3-3-3s1.3-3,3-3,3,1.3,3,3-1.3,3-3,3ZM10,8c-1.1,0-2,.9-2,2s.9,2,2,2,2-.9,2-2-.9-2-2-2ZM13.4,14c.2,0,.2,0,.4,0s.2-.5,0-.7l-1.7-1.7c-.2-.2-.5-.2-.7,0s-.2.5,0,.7l1.7,1.7c0,0,.3,0,.4,0h-.1ZM6,10.5c0-.3-.2-.5-.5-.5H1V1h4.5c.5,0,1,.5,1,1s.2.5.5.5.5.6.5-.5-.9-2-2-2H.5C.2,0,0,.2,0,.5v10c0,.3.2.5.5.5h5c.3,0,.5-.2.5-.5ZM7.5,6.5V2c0-.3-.2-.5-.5-.5s-.5.2-.5.5v4.5c0,.3.2.5.5.5s.5-.2.5-.5ZM14,7.5V.5c0-.3-.2-.5-.5-.5h-5c-1.1,0-2,.9-2,2s.2.5.5.5.5,0,.5-.5.5-1,1-1h4.5v6.5c0,.3.2.5.5.5s.5-.2.5-.5Z"/>
  </g>
</svg>