<?xml version="1.0" ?><svg xmlns="http://www.w3.org/2000/svg" id="Layer_2" data-name="Layer 2" viewBox="0 0 14 14.2">
  <defs>
    <style>
      .cls-1 {
        fill: #000;
        stroke-width: 0px;
      }
    </style>
  </defs>
  <g id="Layer_2-2" data-name="Layer 2">
    <path id="geek" class="cls-1" d="M13.5,14.1c-.3,0-.5-.2-.5-.5v-.5c0-.4-.2-.8-.5-1-.3-.3-.7-.5-1-.5h-2c-.3,0-.5-.2-.5-.5v-2.8c0-.2,0-.4-.3-.5h0c0,0,0-.2-.5-.2s-.2,0-.6.3q-.2.2-.2.5v5.2c0,.3-.2.5-.5.5s-.5-.2-.5-.5v-5.2c0-.3,0-.8.6-1.3.4-.3.7-.5,1.2-.5s1,0,1.3.6c.3.3.5.8.5,1.2v2.3h1.5c.7,0,1.3.3,1.8.7.5.5.7,1.1.7,1.8v.5c0,.3-.2.5-.5.5h0ZM5.3,11.6c.2,0,.4,0,.4-.2.2-.2,0-.5,0-.7-1.2-.9-2.7-1.5-4.2-1.7l-.2-.2V1.2h.2c1.8.3,3.4,1.1,4.5,2.4.2.2.5.2.7,0s.2-.5,0-.7C5.3,1.4,3.5.4,1.4,0h-.4c-.2,0-.5,0-.7.4-.3.3-.3.6-.3.6v7.5c0,.3,0,.7.3,1s.5.4.9.4h0c1.3.2,2.6.7,3.7,1.5h.4ZM6.7,5.8v-2.8c0-.3-.2-.5-.5-.5s-.5.2-.5.5v2.8c0,.3.2.5.5.5s.5-.2.5-.5ZM11.2,9.7c.2,0,.7,0,1-.5v-.2c0,0-.2,0,0,0s.2-.3.2-.5V.9c0-.2,0-.5-.5-.7h0c0-.2-.2-.2-.4-.2h-.5c-2,.4-3.8,1.3-5,2.8-.2.2-.2.5,0,.7s.5.2.7,0c1.1-1.3,2.6-2.1,4.3-2.4h.2c0,0,.2,0,.2,0v7.3h0c0,.2,0,.3,0,.4h0s.2,0,0,0-.5.2-.5.5.2.5.5.5v-.2Z"/>
  </g>
</svg>