<?xml version="1.0" ?><svg xmlns="http://www.w3.org/2000/svg" id="Layer_2" data-name="Layer 2" viewBox="0 0 14 14.3">
  <defs>
    <style>
      .cls-1 {
        fill: #000;
        stroke-width: 0px;
      }
    </style>
  </defs>
  <g id="Layer_2-2" data-name="Layer 2">
    <path id="guided-cintent" class="cls-1" d="M13.5,12.2h-6.5c-.3,0-.5-.2-.5-.5s.2-.5.5-.5h6.5c.3,0,.5.2.5.5s-.2.5-.5.5ZM11.6,14.3c.2,0,.4,0,.4,0l1.9-1.9c0,0,0-.2,0-.4s0-.4,0-.4l-1.9-1.9c-.2-.2-.5-.2-.7,0s-.2.5,0,.7l1.5,1.5-1.5,1.5c-.2.2-.2.5,0,.7s.3,0,.4,0v.2ZM6.6,1.9c0-1.1-.8-1.9-1.9-1.9s-1.9.8-1.9,1.9.8,1.9,1.9,1.9,1.9-.8,1.9-1.9ZM5.6,1.9c0,.5-.4.9-.9.9s-.9-.4-.9-.9.4-.9.9-.9.9.4.9.9ZM10.3,6.6c0-1.1-.8-1.9-1.9-1.9s-1.9.8-1.9,1.9.8,1.9,1.9,1.9,1.9-.8,1.9-1.9ZM9.3,6.6c0,.5-.4.9-.9.9s-.9-.4-.9-.9.4-.9.9-.9.9.4.9.9ZM7.5,11.7c0-1.1-.8-1.9-1.9-1.9s-1.9.8-1.9,1.9.8,1.9,1.9,1.9,1.9-.8,1.9-1.9ZM6.5,11.7c0,.5-.4.9-.9.9s-.9-.4-.9-.9.4-.9.9-.9.9.4.9.9ZM4.8,11.8c0-.3-.2-.5-.5-.5h-1.2c-1.2,0-2.1-.9-2.1-2.1s.9-2.1,2.1-2.1h3.9c.3,0,.5-.2.5-.5s-.2-.5-.5-.5h-3.9C1.4,6.1,0,7.4,0,9.2s1.3,3.1,3.1,3.1h1.2c.3,0,.5-.2.5-.5ZM14,4.3c0-1.6-1.2-2.8-2.8-2.8h-5.1c-.3,0-.5.2-.5.5s.2.5.5.5h5.1c1,0,1.8.8,1.8,1.8s-.8,1.8-1.8,1.8h-1.4c-.3,0-.5.2-.5.5s.2.5.5.5h1.4c1.6,0,2.8-1.2,2.8-2.8ZM3.8,1.9c0-.3-.2-.5-.5-.5H.5c-.3,0-.5.2-.5.5s.2.5.5.5h2.8c.3,0,.5-.2.5-.5Z"/>
  </g>
</svg>