<?xml version="1.0" ?><svg xmlns="http://www.w3.org/2000/svg" id="Layer_2" data-name="Layer 2" viewBox="0 0 13.9 13.9">
  <defs>
    <style>
      .cls-1 {
        fill: #000;
        stroke-width: 0px;
      }
    </style>
  </defs>
  <g id="Layer_2-2" data-name="Layer 2">
    <path id="industry-leaders" class="cls-1" d="M4.2,8.5c-1.4,0-2.4-1-2.4-2.4s1-2.4,2.4-2.4,2.4,1,2.4,2.4-1.1,2.4-2.4,2.4ZM4.2,4.7c-.8,0-1.4.6-1.4,1.4s.6,1.4,1.4,1.4,1.4-.5,1.4-1.4-.6-1.4-1.4-1.4ZM7.9,13.9c.3,0,.5.2.5-.5s-.3-1.4-.6-2c-.6-1.3-2.2-2.2-3.6-2.2s-2.7.8-3.6,2.2c-.4.7-.6,1.4-.6,2s.2.5.5.5.5,0,.5-.5,0-.9.4-1.5c.7-1.1,1.6-1.7,2.8-1.7s2.3.7,2.8,1.7c.2.4.4,1,.4,1.5s.2.5.5.5h0ZM10.4,1.3v-.8c0-.3-.2-.5-.5-.5s-.5.2-.5.5v.8c0,.3.2.5.5.5s.5-.2.5-.5ZM12.7,2.7h.3l.7-.5c.2-.2.3-.5,0-.7s-.5-.3-.7,0l-.7.5c-.2.2-.3.5,0,.7,0,.2.2.2.4.2h0ZM7.1,2.9c0,0,.4,0,.4-.2.2-.2,0-.5,0-.7l-.7-.5c-.2-.2-.5,0-.7,0-.2.2,0,.5,0,.7l.7.5h.3,0ZM10.7,8.4h-1.8c-.3,0-.5-.2-.5-.5v-.9c-.6-.3-1.1-.8-1.1-2s1.1-2.6,2.5-2.6,1.2.2,1.8.6c.5.5.8,1.2.8,1.9s0,.2,0,.3c0,.6-.4,1.4-1.1,1.8v.9c0,.3-.2.5-.5.5h0ZM9.4,7.4h.8v-.7c0-.2,0-.4.3-.5.5-.2.8-.9.8-1.3s0-.2,0-.3c0-.3-.2-.6-.5-.9s-.7-.4-1-.4c-.8,0-1.5.8-1.5,1.6s.3,1,.8,1.3.3.3.3.4v.7h0Z"/>
  </g>
</svg>