<?xml version="1.0" ?><svg xmlns="http://www.w3.org/2000/svg" id="Layer_2" data-name="Layer 2" viewBox="0 0 14.1 14.1">
  <defs>
    <style>
      .cls-1 {
        fill: #000;
        stroke-width: 0px;
      }
    </style>
  </defs>
  <g id="Layer_2-2" data-name="Layer 2">
    <path id="problem-library" class="cls-1" d="M12.6,14.1H1.6c-.9,0-1.5-.6-1.5-1.5V1.6C.1.7.7.1,1.6.1h11c.9,0,1.5.6,1.5,1.5v11c0,.9-.6,1.5-1.5,1.5ZM1.6,1.1c-.3,0-.5.2-.5.5v11c0,.3.2.5.5.5h11c.3,0,.5-.2.5-.5V1.6c0-.3-.2-.5-.5-.5H1.6ZM6.8,14.1c.3,0,.5-.2.5-.5v-1.2c0,0-.6,0,.5,0s2-.9,2-2-.9-2-2-2h-.5v-3.5c0-.2-.1-.5-.3-.5-.2,0-.5,0-.6.3h-.5c-.5,0-1-.5-1-1s.5-1,1-1,.4.1.7.3h.5c.2,0,.3-.2.3-.4V.5c0-.3-.2-.5-.5-.5s-.5.2-.5.5v1.3c-.2,0,.6,0-.5,0s-2,.9-2,2,.9,2,2,2h.5v3.4c0,0,.1.4.3.4,0,0,.3,0,.5,0,.3-.2.2-.3.7-.3s1,.5,1,1-.5,1-1,1h-.4v-.2h0c-.2-.2-.4-.2-.6-.2-.2,0-.3.3-.3.5v2.1c0,.3.2.5.5.5h-.3ZM3.9,10.1c1.1,0,2-.9,2-2v-.5h3.4c0,0,.4-.1.4-.3,0,0,0-.3,0-.5-.2-.3-.3-.2-.3-.7s.5-1,1-1,1,.5,1,1v.4q0,0,0,.2h0c-.2.2-.2.4-.2.6,0,.2.3.3.5.3h2.1c.3,0,.5-.2.5-.5s-.2-.5-.5-.5h-1.2c0,0,0,.6,0-.5s-.9-2-2-2-2,.9-2,2v.5h-3.5c-.2,0-.5.1-.5.3,0,.3,0,.5.2.7h0v.5c0,.5-.5,1-1,1s-1-.5-1-1,.1-.4.3-.7v-.5c0-.2-.2-.3-.4-.3H.5c-.3,0-.5.2-.5.5s.2.5.5.5h1.3c0,.2,0-.6,0,.5s.9,2,2,2h0Z"/>
  </g>
</svg>