<?xml version="1.0" ?><svg xmlns="http://www.w3.org/2000/svg" id="Layer_2" data-name="Layer 2" viewBox="0 0 14 14">
  <defs>
    <style>
      .cls-1 {
        fill: #000;
        stroke-width: 0px;
      }
    </style>
  </defs>
  <g id="Layer_2-2" data-name="Layer 2">
    <path id="product" class="cls-1" d="M5,6.5H1.5c-.9,0-1.5-.6-1.5-1.5V1.5C0,.6.6,0,1.5,0h3.5c.9,0,1.5.6,1.5,1.5v3.5c0,.9-.6,1.5-1.5,1.5ZM1.5,1c-.3,0-.5.2-.5.5v3.5c0,.3.2.5.5.5h3.5c.3,0,.5-.2.5-.5V1.5c0-.3-.2-.5-.5-.5H1.5ZM12.5,14h-3.5c-.9,0-1.5-.6-1.5-1.5v-3.5c0-.9.6-1.5,1.5-1.5h3.5c.9,0,1.5.6,1.5,1.5v3.5c0,.9-.6,1.5-1.5,1.5ZM9,8.5c-.3,0-.5.2-.5.5v3.5c0,.3.2.5.5.5h3.5c.3,0,.5-.2.5-.5v-3.5c0-.3-.2-.5-.5-.5h-3.5ZM5,14H1.5c-.9,0-1.5-.6-1.5-1.5v-3.5c0-.9.6-1.5,1.5-1.5h3.5c.9,0,1.5.6,1.5,1.5v3.5c0,.9-.6,1.5-1.5,1.5ZM1.5,8.5c-.3,0-.5.2-.5.5v3.5c0,.3.2.5.5.5h3.5c.3,0,.5-.2.5-.5v-3.5c0-.3-.2-.5-.5-.5H1.5ZM11.3,6V.5c0-.3-.2-.5-.5-.5s-.5.2-.5.5v5.5c0,.3.2.5.5.5s.5-.2.5-.5ZM14,3.3c0-.3-.2-.5-.5-.5h-5.5c-.3,0-.5.2-.5.5s.2.5.5.5h5.5c.3,0,.5-.2.5-.5Z"/>
  </g>
</svg>