<?xml version="1.0" ?><svg xmlns="http://www.w3.org/2000/svg" id="Layer_2" data-name="Layer 2" viewBox="0 0 14 14.1">
  <defs>
    <style>
      .cls-1 {
        fill: #000;
        stroke-width: 0px;
      }
    </style>
  </defs>
  <g id="Layer_2-2" data-name="Layer 2">
    <path id="professional" class="cls-1" d="M4,5c-1.4,0-2.5-1.1-2.5-2.5S2.6,0,4,0s2.5,1.1,2.5,2.5-1.1,2.5-2.5,2.5ZM4,1c-.8,0-1.5.7-1.5,1.5s.7,1.5,1.5,1.5,1.5-.7,1.5-1.5-.7-1.5-1.5-1.5ZM5.3,13.9c.3,0,.5-.2.5-.4l.4-3c0-.3,0-.6-.4-.6-.3,0-.6,0-.6.4l-.3,2.6h-1.7l-.4-3.6c0-.2-.2-.4-.5-.4h-1.2v-1c0-.7.4-1.5.9-2.1s1.4-.9,2.1-.9,1.4.3,2.1.9c.4.4.7.9.9,1.6,0,.3.3.3.6.3.3,0,.3-.3.3-.6-.3-.8-.6-1.4-1.2-2-.9-.7-1.6-1.1-2.8-1.1s-2.1.4-2.9,1.2c-.7.8-1.1,1.8-1.1,2.8v1.5c0,.3.2.5.5.5h1.3l.4,3.6c0,.2.2.4.5.4h2.6,0ZM12.6,14.1h-4.4c-.8,0-1.4-.6-1.4-1.4v-2.7c0-.8.6-1.4,1.4-1.4h4.4c.8,0,1.4.6,1.4,1.4v2.7c0,.8-.6,1.4-1.4,1.4ZM8.2,9.6c-.2,0-.4.2-.4.4v2.7c0,.2.2.4.4.4h4.4c.2,0,.4-.2.4-.4v-2.7c0-.2-.2-.4-.4-.4h-4.4ZM12.1,9.1v-.7c0-.9-.6-1.5-1.5-1.5h-.4c-.9,0-1.5.6-1.5,1.5v.7c0,.3.2.5.5.5s.5-.2.5-.5v-.7c0-.3.2-.5.5-.5h.4c.3,0,.5.2.5.5v.7c0,.3.2.5.5.5s.5-.2.5-.5Z"/>
  </g>
</svg>