<?xml version="1.0" ?><svg xmlns="http://www.w3.org/2000/svg" id="Layer_2" data-name="Layer 2" viewBox="0 0 14 14">
  <defs>
    <style>
      .cls-1 {
        fill: #000;
        stroke-width: 0px;
      }
    </style>
  </defs>
  <g id="Layer_2-2" data-name="Layer 2">
    <path id="spaced-reps" class="cls-1" d="M7,11.5c-2.5,0-4.5-2-4.5-4.5S4.5,2.5,7,2.5s4.5,2,4.5,4.5-2,4.5-4.5,4.5ZM7,3.5c-1.9,0-3.5,1.6-3.5,3.5s1.6,3.5,3.5,3.5,3.5-1.6,3.5-3.5-1.6-3.5-3.5-3.5ZM9,7c0-.3-.2-.5-.5-.5h-1v-1c0-.3-.2-.5-.5-.5s-.5.2-.5.5v1.5c0,.3.2.5.5.5h1.5c.3,0,.5-.2.5-.5ZM12.5,14H1.5c-.9,0-1.5-.6-1.5-1.5V1.5C0,.6.6,0,1.5,0h11c.9,0,1.5.6,1.5,1.5v11c0,.9-.6,1.5-1.5,1.5ZM1.5,1c-.3,0-.5.2-.5.5v11c0,.3.2.5.5.5h11c.3,0,.5-.2.5-.5V1.5c0-.3-.2-.5-.5-.5H1.5Z"/>
  </g>
</svg>