<?xml version="1.0" ?><svg xmlns="http://www.w3.org/2000/svg" id="Layer_2" data-name="Layer 2" viewBox="0 0 14 12.6">
  <defs>
    <style>
      .cls-1 {
        fill: #000;
        stroke-width: 0px;
      }
    </style>
  </defs>
  <g id="Layer_2-2" data-name="Layer 2">
    <path id="student" class="cls-1" d="M7,6.6h-.2L.3,3.8c-.2,0-.3-.3-.3-.5s0-.4.3-.5L6.8,0h.4l6.5,2.8c.2,0,.3.3.3.5s0,.4-.3.5l-6.5,2.8h-.2ZM1.8,3.3l5.2,2.3,5.2-2.3L7,1,1.8,3.3ZM11.1,8c0-.1,0-.2,0-.3v-3.1c0-.3-.2-.5-.5-.5s-.5.2-.5.5v2.9c-.3.3-1.3,1.1-3.1,1.1s-2.8-.8-3.1-1.1v-2.9c0-.3-.2-.5-.5-.5s-.5.2-.5.5v3.1c0,.1,0,.3,0,.3,0,0,1.3,1.6,4,1.6s4-1.6,4-1.6ZM2.2,9.7V3.8c0-.3-.2-.5-.5-.5s-.5.2-.5.5v5.9c0,.3.2.5.5.5s.5-.2.5-.5ZM1.7,12.6c-1,0-1.7-.7-1.7-1.7s.7-1.7,1.7-1.7,1.7.7,1.7,1.7-.7,1.7-1.7,1.7ZM1.7,10.2c-.4,0-.7.3-.7.7s.3.7.7.7.7-.3.7-.7-.3-.7-.7-.7Z"/>
  </g>
</svg>