<?xml version="1.0" ?><svg xmlns="http://www.w3.org/2000/svg" id="Layer_2" data-name="Layer 2" viewBox="0 0 11.9 14">
  <defs>
    <style>
      .cls-1 {
        fill: #000;
        stroke-width: 0px;
      }
    </style>
  </defs>
  <g id="Layer_2-2" data-name="Layer 2">
    <path id="trusted" class="cls-1" d="M10.5,14H1.5c-.3,0-.8,0-1.1-.5-.2-.2-.4-.6-.4-1V1.5c0-.3,0-.8.5-1.1.2-.2.6-.4,1-.4h5.6c.3,0,.8,0,1.1.5l3.3,3.3c.3.3.4.6.4,1.1v7.6c0,.3,0,.8-.5,1.1-.2.2-.6.4-1,.4h0ZM1.5,1q-.2,0-.3.2h0v11.3c0,0,0,.2.2.3h0c0,.2,0,.2.2.2h9s.2,0,.3-.2h0v-7.9q0-.2-.2-.3l-3.5-3.5H1.5ZM9.6,6.3c0-.3-.2-.5-.5-.5h-2.5c-.3,0-.5.2-.5.5s.2.5.5.5h2.5c.3,0,.5-.2.5-.5ZM9.6,9.8c0-.3-.2-.5-.5-.5h-2.5c-.3,0-.5.2-.5.5s.2.5.5.5h2.5c.3,0,.5-.2.5-.5ZM3.5,11.1h0c.2,0,.4,0,.4-.2l1.4-2c.2-.2,0-.5,0-.7-.2-.2-.5,0-.7,0l-1.1,1.5-.4-.4c-.2-.2-.5-.2-.7,0s-.2.5,0,.7l.8.8c0,0,.3,0,.4,0h0ZM3.5,7.6h0c.2,0,.4,0,.4-.2l1.4-2c.2-.2,0-.5,0-.7-.2-.2-.5,0-.7,0l-1.1,1.5-.4-.4c-.2-.2-.5-.2-.7,0s-.2.5,0,.7l.8.8c0,0,.3,0,.4,0h0Z"/>
  </g>
</svg>