<?xml version="1.0" encoding="UTF-8"?>
<svg xmlns="http://www.w3.org/2000/svg" xmlns:xlink="http://www.w3.org/1999/xlink" viewBox="0 0 25 17">
  <defs>
    <clipPath id="uuid-7d9ca1c5-6028-4eb6-9cca-3dc504ecf39f">
      <rect y="0" width="25.3" height="17.2" style="fill: none; stroke-width: 0px;"/>
    </clipPath>
    <radialGradient id="uuid-2ec629d5-e9bb-4a51-884f-a9747de2a2cf" cx="-87.8" cy="-9.5" fx="-87.8" fy="-9.5" r="33.4" gradientTransform="translate(4 86) rotate(90) scale(1 -1)" gradientUnits="userSpaceOnUse">
      <stop offset="0" stop-color="#fff" stop-opacity="0"/>
      <stop offset=".1" stop-color="rgba(198, 200, 220, .2)" stop-opacity=".2"/>
      <stop offset=".4" stop-color="rgba(112, 117, 167, .5)" stop-opacity=".5"/>
      <stop offset=".6" stop-color="rgba(50, 57, 128, .8)" stop-opacity=".8"/>
      <stop offset=".8" stop-color="rgba(12, 21, 105, .9)" stop-opacity=".9"/>
      <stop offset="1" stop-color="#000962" stop-opacity="1"/>
    </radialGradient>
  </defs>
  <g style="isolation: isolate;">
    <g id="uuid-b1a3d17f-4ff4-4969-8487-0e897a685d04" data-name="Layer 1">
      <g style="clip-path: url(#uuid-7d9ca1c5-6028-4eb6-9cca-3dc504ecf39f);">
        <g>
          <g>
            <g>
              <polygon points="23.9 17.3 23.9 15.7 25.3 16.7 25.3 17.3 23.9 17.3" style="fill: #4d7dff; stroke-width: 0px;"/>
              <polygon points="25.3 14.9 25.3 16.7 23.9 15.7 23.9 13.9 25.3 14.9" style="fill: #5180ff; stroke-width: 0px;"/>
              <polygon points="25.3 13.1 25.3 14.9 23.9 13.9 23.9 12.1 25.3 13.1" style="fill: #5987ff; stroke-width: 0px;"/>
              <polygon points="25.3 11.3 25.3 13.1 23.9 12.1 23.9 10.3 25.3 11.3" style="fill: #6490ff; stroke-width: 0px;"/>
              <polygon points="25.3 9.5 25.3 11.3 23.9 10.3 23.9 8.5 25.3 9.5" style="fill: #80a7ff; stroke-width: 0px;"/>
              <polygon points="25.3 7.6 25.3 9.5 23.9 8.5 23.9 6.7 25.3 7.6" style="fill: #accaff; stroke-width: 0px;"/>
              <polygon points="25.3 5.8 25.3 7.6 23.9 6.7 23.9 4.8 25.3 5.8" style="fill: #b5d2ff; stroke-width: 0px;"/>
              <polygon points="25.3 4 25.3 5.8 23.9 4.8 23.9 3 25.3 4" style="fill: #9dbfff; stroke-width: 0px;"/>
              <polygon points="25.3 2.2 25.3 4 23.9 3 23.9 1.2 25.3 2.2" style="fill: #83aaff; stroke-width: 0px;"/>
              <polygon points="25.3 .4 25.3 2.2 23.9 1.2 23.9 -.6 25.3 .4" style="fill: #78a2ff; stroke-width: 0px;"/>
              <polygon points="25.3 -1.4 25.3 .4 23.9 -.6 23.9 -2.4 25.3 -1.4" style="fill: #719bff; stroke-width: 0px;"/>
              <polygon points="22.5 17.3 22.5 16.6 23.5 17.3 22.5 17.3" style="fill: #3462ff; stroke-width: 0px;"/>
              <polygon points="23.5 17.3 22.5 16.6 22.5 14.8 23.9 15.7 23.9 17.3 23.5 17.3" style="fill: #3766ff; stroke-width: 0px;"/>
              <polygon points="23.9 13.9 23.9 15.7 22.5 14.8 22.5 12.9 23.9 13.9" style="fill: #3766ff; stroke-width: 0px;"/>
              <polygon points="23.9 12.1 23.9 13.9 22.5 12.9 22.5 11.1 23.9 12.1" style="fill: #4a7aff; stroke-width: 0px;"/>
              <polygon points="23.9 10.3 23.9 12.1 22.5 11.1 22.5 9.3 23.9 10.3" style="fill: #6692ff; stroke-width: 0px;"/>
              <polygon points="23.9 8.5 23.9 10.3 22.5 9.3 22.5 7.5 23.9 8.5" style="fill: #749dff; stroke-width: 0px;"/>
              <polygon points="23.9 6.7 23.9 8.5 22.5 7.5 22.5 5.7 23.9 6.7" style="fill: #9dbfff; stroke-width: 0px;"/>
              <polygon points="23.9 4.8 23.9 6.7 22.5 5.7 22.5 3.9 23.9 4.8" style="fill: #bed7ff; stroke-width: 0px;"/>
              <polygon points="23.9 3 23.9 4.8 22.5 3.9 22.5 2 23.9 3" style="fill: #a9c8ff; stroke-width: 0px;"/>
              <polygon points="23.9 1.2 23.9 3 22.5 2 22.5 .2 23.9 1.2" style="fill: #e7f7ff; stroke-width: 0px;"/>
              <polygon points="23.9 -.6 23.9 1.2 22.5 .2 22.5 -1.6 23.9 -.6" style="fill: #80a7ff; stroke-width: 0px;"/>
              <polygon points="21.1 17.3 21.1 15.6 22.5 16.6 22.5 17.3 21.1 17.3" style="fill: #3462ff; stroke-width: 0px;"/>
              <polygon points="22.5 14.8 22.5 16.6 21.1 15.6 21.1 13.8 22.5 14.8" style="fill: #3f70ff; stroke-width: 0px;"/>
              <polygon points="22.5 12.9 22.5 14.8 21.1 13.8 21.1 12 22.5 12.9" style="fill: #5180ff; stroke-width: 0px;"/>
              <polygon points="22.5 11.1 22.5 12.9 21.1 12 21.1 10.1 22.5 11.1" style="fill: #4a7aff; stroke-width: 0px;"/>
              <polygon points="22.5 9.3 22.5 11.1 21.1 10.1 21.1 8.3 22.5 9.3" style="fill: #5180ff; stroke-width: 0px;"/>
              <polygon points="22.5 7.5 22.5 9.3 21.1 8.3 21.1 6.5 22.5 7.5" style="fill: #5987ff; stroke-width: 0px;"/>
              <polygon points="22.5 5.7 22.5 7.5 21.1 6.5 21.1 4.7 22.5 5.7" style="fill: #80a7ff; stroke-width: 0px;"/>
              <polygon points="22.5 3.9 22.5 5.7 21.1 4.7 21.1 2.9 22.5 3.9" style="fill: #e7f7ff; stroke-width: 0px;"/>
              <polygon points="22.5 2 22.5 3.9 21.1 2.9 21.1 1.1 22.5 2" style="fill: #a9c8ff; stroke-width: 0px;"/>
              <polygon points="22.5 .2 22.5 2 21.1 1.1 21.1 -.7 22.5 .2" style="fill: #fff; stroke-width: 0px;"/>
              <polygon points="22.5 -1.6 22.5 .2 21.1 -.7 21.1 -2.6 22.5 -1.6" style="fill: #b1ceff; stroke-width: 0px;"/>
              <polygon points="19.7 17.3 19.7 16.4 20.9 17.3 19.7 17.3" style="fill: #315eff; stroke-width: 0px;"/>
              <polygon points="20.9 17.3 19.7 16.4 19.7 14.6 21.1 15.6 21.1 17.3 20.9 17.3" style="fill: #3f70ff; stroke-width: 0px;"/>
              <polygon points="21.1 13.8 21.1 15.6 19.7 14.6 19.7 12.8 21.1 13.8" style="fill: #3c6dff; stroke-width: 0px;"/>
              <polygon points="21.1 12 21.1 13.8 19.7 12.8 19.7 11 21.1 12" style="fill: #4474ff; stroke-width: 0px;"/>
              <polygon points="21.1 10.1 21.1 12 19.7 11 19.7 9.2 21.1 10.1" style="fill: #4171ff; stroke-width: 0px;"/>
              <polygon points="21.1 8.3 21.1 10.1 19.7 9.2 19.7 7.3 21.1 8.3" style="fill: #6a95ff; stroke-width: 0px;"/>
              <polygon points="21.1 6.5 21.1 8.3 19.7 7.3 19.7 5.5 21.1 6.5" style="fill: #8db3ff; stroke-width: 0px;"/>
              <polygon points="21.1 4.7 21.1 6.5 19.7 5.5 19.7 3.7 21.1 4.7" style="fill: #80a7ff; stroke-width: 0px;"/>
              <polygon points="21.1 2.9 21.1 4.7 19.7 3.7 19.7 1.9 21.1 2.9" style="fill: #cee5ff; stroke-width: 0px;"/>
              <polygon points="21.1 1.1 21.1 2.9 19.7 1.9 19.7 0 21.1 1.1" style="fill: #c8e1ff; stroke-width: 0px;"/>
              <polygon points="21.1 -.7 21.1 1.1 19.7 0 19.7 -1.7 21.1 -.7" style="fill: #b5d2ff; stroke-width: 0px;"/>
              <polygon points="18.3 17.3 18.3 17.3 18.3 15.4 19.7 16.4 19.7 17.3 18.3 17.3" style="fill: #315eff; stroke-width: 0px;"/>
              <polygon points="19.7 14.6 19.7 16.4 18.3 15.4 18.3 13.6 19.7 14.6" style="fill: #3462ff; stroke-width: 0px;"/>
              <polygon points="19.7 12.8 19.7 14.6 18.3 13.6 18.3 11.8 19.7 12.8" style="fill: #3462ff; stroke-width: 0px;"/>
              <polygon points="19.7 11 19.7 12.8 18.3 11.8 18.3 10 19.7 11" style="fill: #5180ff; stroke-width: 0px;"/>
              <polygon points="19.7 9.2 19.7 11 18.3 10 18.3 8.2 19.7 9.2" style="fill: #5987ff; stroke-width: 0px;"/>
              <polygon points="19.7 7.3 19.7 9.2 18.3 8.2 18.3 6.4 19.7 7.3" style="fill: #9dbfff; stroke-width: 0px;"/>
              <polygon points="19.7 5.5 19.7 7.3 18.3 6.4 18.3 4.6 19.7 5.5" style="fill: #a5c5ff; stroke-width: 0px;"/>
              <polygon points="19.7 3.7 19.7 5.5 18.3 4.6 18.3 2.7 19.7 3.7" style="fill: #86acff; stroke-width: 0px;"/>
              <polygon points="19.7 1.9 19.7 3.7 18.3 2.7 18.3 .9 19.7 1.9" style="fill: #a0c1ff; stroke-width: 0px;"/>
              <polygon points="19.7 0 19.7 1.9 18.3 .9 18.3 -.9 19.7 0" style="fill: #9dbfff; stroke-width: 0px;"/>
              <polygon points="19.7 -1.7 19.7 0 18.3 -.9 18.3 -2.7 19.7 -1.7" style="fill: #b5d2ff; stroke-width: 0px;"/>
              <polygon points="16.9 17.3 16.9 16.3 18.3 17.3 18.3 17.3 16.9 17.3" style="fill: #2751f9; stroke-width: 0px;"/>
              <polygon points="18.3 15.4 18.3 17.3 16.9 16.3 16.9 14.5 18.3 15.4" style="fill: #3c6dff; stroke-width: 0px;"/>
              <polygon points="18.3 13.6 18.3 15.4 16.9 14.5 16.9 12.6 18.3 13.6" style="fill: #4474ff; stroke-width: 0px;"/>
              <polygon points="18.3 11.8 18.3 13.6 16.9 12.6 16.9 10.8 18.3 11.8" style="fill: #4a7aff; stroke-width: 0px;"/>
              <polygon points="18.3 10 18.3 11.8 16.9 10.8 16.9 9 18.3 10" style="fill: #6692ff; stroke-width: 0px;"/>
              <polygon points="18.3 8.2 18.3 10 16.9 9 16.9 7.2 18.3 8.2" style="fill: #5786ff; stroke-width: 0px;"/>
              <polygon points="18.3 6.4 18.3 8.2 16.9 7.2 16.9 5.4 18.3 6.4" style="fill: #608dff; stroke-width: 0px;"/>
              <polygon points="18.3 4.6 18.3 6.4 16.9 5.4 16.9 3.6 18.3 4.6" style="fill: #83aaff; stroke-width: 0px;"/>
              <polygon points="18.3 2.7 18.3 4.6 16.9 3.6 16.9 1.8 18.3 2.7" style="fill: #86acff; stroke-width: 0px;"/>
              <polygon points="18.3 .9 18.3 2.7 16.9 1.8 16.9 0 18.3 .9" style="fill: #accaff; stroke-width: 0px;"/>
              <polygon points="18.3 -.9 18.3 .9 16.9 0 16.9 -1.9 18.3 -.9" style="fill: #d5ebff; stroke-width: 0px;"/>
              <polygon points="15.7 17.3 15.5 17.1 15.5 15.3 16.9 16.3 16.9 17.3 15.7 17.3" style="fill: #4877ff; stroke-width: 0px;"/>
              <polygon points="16.9 14.5 16.9 16.3 15.5 15.3 15.5 13.5 16.9 14.5" style="fill: #3f70ff; stroke-width: 0px;"/>
              <polygon points="16.9 12.6 16.9 14.5 15.5 13.5 15.5 11.7 16.9 12.6" style="fill: #4171ff; stroke-width: 0px;"/>
              <polygon points="16.9 10.8 16.9 12.6 15.5 11.7 15.5 9.9 16.9 10.8" style="fill: #4d7dff; stroke-width: 0px;"/>
              <polygon points="16.9 9 16.9 10.8 15.5 9.9 15.5 8 16.9 9" style="fill: #608dff; stroke-width: 0px;"/>
              <polygon points="16.9 7.2 16.9 9 15.5 8 15.5 6.2 16.9 7.2" style="fill: #5786ff; stroke-width: 0px;"/>
              <polygon points="16.9 5.4 16.9 7.2 15.5 6.2 15.5 4.4 16.9 5.4" style="fill: #83aaff; stroke-width: 0px;"/>
              <polygon points="16.9 3.6 16.9 5.4 15.5 4.4 15.5 2.6 16.9 3.6" style="fill: #8ab0ff; stroke-width: 0px;"/>
              <polygon points="16.9 1.8 16.9 3.6 15.5 2.6 15.5 .8 16.9 1.8" style="fill: #719bff; stroke-width: 0px;"/>
              <polygon points="16.9 0 16.9 1.8 15.5 .8 15.5 -1 16.9 0" style="fill: #98bcff; stroke-width: 0px;"/>
              <polygon points="14.1 17.3 14.1 16.1 15.5 17.1 15.5 17.3 14.1 17.3" style="fill: #5180ff; stroke-width: 0px;"/>
              <polygon points="15.5 15.3 15.5 17.1 14.1 16.1 14.1 14.3 15.5 15.3" style="fill: #4171ff; stroke-width: 0px;"/>
              <polygon points="15.5 13.5 15.5 15.3 14.1 14.3 14.1 12.5 15.5 13.5" style="fill: #4d7dff; stroke-width: 0px;"/>
              <polygon points="15.5 11.7 15.5 13.5 14.1 12.5 14.1 10.7 15.5 11.7" style="fill: #5180ff; stroke-width: 0px;"/>
              <polygon points="15.5 9.9 15.5 11.7 14.1 10.7 14.1 8.9 15.5 9.9" style="fill: #6a95ff; stroke-width: 0px;"/>
              <polygon points="15.5 8 15.5 9.9 14.1 8.9 14.1 7.1 15.5 8" style="fill: #7ba4ff; stroke-width: 0px;"/>
              <polygon points="15.5 6.2 15.5 8 14.1 7.1 14.1 5.2 15.5 6.2" style="fill: #5987ff; stroke-width: 0px;"/>
              <polygon points="15.5 4.4 15.5 6.2 14.1 5.2 14.1 3.4 15.5 4.4" style="fill: #80a7ff; stroke-width: 0px;"/>
              <polygon points="15.5 2.6 15.5 4.4 14.1 3.4 14.1 1.6 15.5 2.6" style="fill: #a0c1ff; stroke-width: 0px;"/>
              <polygon points="15.5 .8 15.5 2.6 14.1 1.6 14.1 -.2 15.5 .8" style="fill: #83aaff; stroke-width: 0px;"/>
              <polygon points="15.5 -1 15.5 .8 14.1 -.2 14.1 -2 15.5 -1" style="fill: #b5d2ff; stroke-width: 0px;"/>
              <polygon points="12.7 17.3 12.7 17 13.1 17.3 12.7 17.3" style="fill: #4877ff; stroke-width: 0px;"/>
              <polygon points="13.1 17.3 12.7 17 12.7 15.2 14.1 16.1 14.1 17.3 13.1 17.3" style="fill: #4877ff; stroke-width: 0px;"/>
              <polygon points="14.1 14.3 14.1 16.1 12.7 15.2 12.7 13.3 14.1 14.3" style="fill: #608dff; stroke-width: 0px;"/>
              <polygon points="14.1 12.5 14.1 14.3 12.7 13.3 12.7 11.5 14.1 12.5" style="fill: #4877ff; stroke-width: 0px;"/>
              <polygon points="14.1 10.7 14.1 12.5 12.7 11.5 12.7 9.7 14.1 10.7" style="fill: #5d8aff; stroke-width: 0px;"/>
              <polygon points="14.1 8.9 14.1 10.7 12.7 9.7 12.7 7.9 14.1 8.9" style="fill: #608dff; stroke-width: 0px;"/>
              <polygon points="14.1 7.1 14.1 8.9 12.7 7.9 12.7 6.1 14.1 7.1" style="fill: #7ba4ff; stroke-width: 0px;"/>
              <polygon points="14.1 5.2 14.1 7.1 12.7 6.1 12.7 4.3 14.1 5.2" style="fill: #7ba4ff; stroke-width: 0px;"/>
              <polygon points="14.1 3.4 14.1 5.2 12.7 4.3 12.7 2.4 14.1 3.4" style="fill: #98bcff; stroke-width: 0px;"/>
              <polygon points="14.1 1.6 14.1 3.4 12.7 2.4 12.7 .6 14.1 1.6" style="fill: #6a95ff; stroke-width: 0px;"/>
              <polygon points="14.1 -.2 14.1 1.6 12.7 .6 12.7 -1.2 14.1 -.2" style="fill: #8ab0ff; stroke-width: 0px;"/>
              <polygon points="11.3 17.3 11.3 16 12.7 17 12.7 17.3 11.3 17.3" style="fill: #5d8aff; stroke-width: 0px;"/>
              <polygon points="12.7 15.2 12.7 17 11.3 16 11.3 14.2 12.7 15.2" style="fill: #608dff; stroke-width: 0px;"/>
              <polygon points="12.7 13.3 12.7 15.2 11.3 14.2 11.3 12.4 12.7 13.3" style="fill: #4a7aff; stroke-width: 0px;"/>
              <polygon points="12.7 11.5 12.7 13.3 11.3 12.4 11.3 10.5 12.7 11.5" style="fill: #5786ff; stroke-width: 0px;"/>
              <polygon points="12.7 9.7 12.7 11.5 11.3 10.5 11.3 8.7 12.7 9.7" style="fill: #5987ff; stroke-width: 0px;"/>
              <polygon points="12.7 7.9 12.7 9.7 11.3 8.7 11.3 6.9 12.7 7.9" style="fill: #a0c1ff; stroke-width: 0px;"/>
              <polygon points="12.7 6.1 12.7 7.9 11.3 6.9 11.3 5.1 12.7 6.1" style="fill: #8db3ff; stroke-width: 0px;"/>
              <polygon points="12.7 4.3 12.7 6.1 11.3 5.1 11.3 3.3 12.7 4.3" style="fill: #719bff; stroke-width: 0px;"/>
              <polygon points="12.7 2.4 12.7 4.3 11.3 3.3 11.3 1.5 12.7 2.4" style="fill: #92b6ff; stroke-width: 0px;"/>
              <polygon points="12.7 .6 12.7 2.4 11.3 1.5 11.3 -.4 12.7 .6" style="fill: #749dff; stroke-width: 0px;"/>
              <polygon points="12.7 -1.2 12.7 .6 11.3 -.4 11.3 -2.2 12.7 -1.2" style="fill: #8db3ff; stroke-width: 0px;"/>
              <polygon points="9.9 17.3 9.9 16.8 10.5 17.3 9.9 17.3" style="fill: #4171ff; stroke-width: 0px;"/>
              <polygon points="10.5 17.3 9.9 16.8 9.9 15 11.3 16 11.3 17.3 10.5 17.3" style="fill: #5786ff; stroke-width: 0px;"/>
              <polygon points="11.3 14.2 11.3 16 9.9 15 9.9 13.2 11.3 14.2" style="fill: #6692ff; stroke-width: 0px;"/>
              <polygon points="11.3 12.4 11.3 14.2 9.9 13.2 9.9 11.4 11.3 12.4" style="fill: #6490ff; stroke-width: 0px;"/>
              <polygon points="11.3 10.5 11.3 12.4 9.9 11.4 9.9 9.6 11.3 10.5" style="fill: #4877ff; stroke-width: 0px;"/>
              <polygon points="11.3 8.7 11.3 10.5 9.9 9.6 9.9 7.7 11.3 8.7" style="fill: #608dff; stroke-width: 0px;"/>
              <polygon points="11.3 6.9 11.3 8.7 9.9 7.7 9.9 5.9 11.3 6.9" style="fill: #6a95ff; stroke-width: 0px;"/>
              <polygon points="11.3 5.1 11.3 6.9 9.9 5.9 9.9 4.1 11.3 5.1" style="fill: #86acff; stroke-width: 0px;"/>
              <polygon points="11.3 3.3 11.3 5.1 9.9 4.1 9.9 2.3 11.3 3.3" style="fill: #92b6ff; stroke-width: 0px;"/>
              <polygon points="11.3 1.5 11.3 3.3 9.9 2.3 9.9 .5 11.3 1.5" style="fill: #accaff; stroke-width: 0px;"/>
              <polygon points="11.3 -.4 11.3 1.5 9.9 .5 9.9 -1.3 11.3 -.4" style="fill: #749dff; stroke-width: 0px;"/>
              <polygon points="8.5 17.3 8.5 15.8 9.9 16.8 9.9 17.3 8.5 17.3" style="fill: #4877ff; stroke-width: 0px;"/>
              <polygon points="9.9 15 9.9 16.8 8.5 15.8 8.5 14 9.9 15" style="fill: #5786ff; stroke-width: 0px;"/>
              <polygon points="9.9 13.2 9.9 15 8.5 14 8.5 12.2 9.9 13.2" style="fill: #608dff; stroke-width: 0px;"/>
              <polygon points="9.9 11.4 9.9 13.2 8.5 12.2 8.5 10.4 9.9 11.4" style="fill: #5d8aff; stroke-width: 0px;"/>
              <polygon points="9.9 9.6 9.9 11.4 8.5 10.4 8.5 8.6 9.9 9.6" style="fill: #5d8aff; stroke-width: 0px;"/>
              <polygon points="9.9 7.7 9.9 9.6 8.5 8.6 8.5 6.8 9.9 7.7" style="fill: #86acff; stroke-width: 0px;"/>
              <polygon points="9.9 5.9 9.9 7.7 8.5 6.8 8.5 4.9 9.9 5.9" style="fill: #6d98ff; stroke-width: 0px;"/>
              <polygon points="9.9 4.1 9.9 5.9 8.5 4.9 8.5 3.1 9.9 4.1" style="fill: #dbefff; stroke-width: 0px;"/>
              <polygon points="9.9 2.3 9.9 4.1 8.5 3.1 8.5 1.3 9.9 2.3" style="fill: #accaff; stroke-width: 0px;"/>
              <polygon points="9.9 .5 9.9 2.3 8.5 1.3 8.5 -.5 9.9 .5" style="fill: #98bcff; stroke-width: 0px;"/>
              <polygon points="9.9 -1.3 9.9 .5 8.5 -.5 8.5 -2.3 9.9 -1.3" style="fill: #b8d4ff; stroke-width: 0px;"/>
              <polygon points="7.1 17.3 7.1 16.7 7.9 17.3 7.1 17.3" style="fill: #5383ff; stroke-width: 0px;"/>
              <polygon points="7.9 17.3 7.1 16.7 7.1 14.9 8.5 15.8 8.5 17.3 7.9 17.3" style="fill: #4877ff; stroke-width: 0px;"/>
              <polygon points="8.5 14 8.5 15.8 7.1 14.9 7.1 13 8.5 14" style="fill: #5383ff; stroke-width: 0px;"/>
              <polygon points="8.5 12.2 8.5 14 7.1 13 7.1 11.2 8.5 12.2" style="fill: #6a95ff; stroke-width: 0px;"/>
              <polygon points="8.5 10.4 8.5 12.2 7.1 11.2 7.1 9.4 8.5 10.4" style="fill: #6692ff; stroke-width: 0px;"/>
              <polygon points="8.5 8.6 8.5 10.4 7.1 9.4 7.1 7.6 8.5 8.6" style="fill: #608dff; stroke-width: 0px;"/>
              <polygon points="8.5 6.8 8.5 8.6 7.1 7.6 7.1 5.8 8.5 6.8" style="fill: #608dff; stroke-width: 0px;"/>
              <polygon points="8.5 4.9 8.5 6.8 7.1 5.8 7.1 4 8.5 4.9" style="fill: #8db3ff; stroke-width: 0px;"/>
              <polygon points="8.5 3.1 8.5 4.9 7.1 4 7.1 2.1 8.5 3.1" style="fill: #fff; stroke-width: 0px;"/>
              <polygon points="8.5 1.3 8.5 3.1 7.1 2.1 7.1 .3 8.5 1.3" style="fill: #a0c1ff; stroke-width: 0px;"/>
              <polygon points="8.5 -.5 8.5 1.3 7.1 .3 7.1 -1.5 8.5 -.5" style="fill: #b5d2ff; stroke-width: 0px;"/>
              <polygon points="5.7 17.3 5.7 15.7 7.1 16.7 7.1 17.3 5.7 17.3" style="fill: #5786ff; stroke-width: 0px;"/>
              <polygon points="7.1 14.9 7.1 16.7 5.7 15.7 5.7 13.9 7.1 14.9" style="fill: #4a7aff; stroke-width: 0px;"/>
              <polygon points="7.1 13 7.1 14.9 5.7 13.9 5.7 12.1 7.1 13" style="fill: #4a7aff; stroke-width: 0px;"/>
              <polygon points="7.1 11.2 7.1 13 5.7 12.1 5.7 10.2 7.1 11.2" style="fill: #5987ff; stroke-width: 0px;"/>
              <polygon points="7.1 9.4 7.1 11.2 5.7 10.2 5.7 8.4 7.1 9.4" style="fill: #749dff; stroke-width: 0px;"/>
              <polygon points="7.1 7.6 7.1 9.4 5.7 8.4 5.7 6.6 7.1 7.6" style="fill: #719bff; stroke-width: 0px;"/>
              <polygon points="7.1 5.8 7.1 7.6 5.7 6.6 5.7 4.8 7.1 5.8" style="fill: #b1ceff; stroke-width: 0px;"/>
              <polygon points="7.1 4 7.1 5.8 5.7 4.8 5.7 3 7.1 4" style="fill: #b1ceff; stroke-width: 0px;"/>
              <polygon points="7.1 2.1 7.1 4 5.7 3 5.7 1.2 7.1 2.1" style="fill: #accaff; stroke-width: 0px;"/>
              <polygon points="7.1 .3 7.1 2.1 5.7 1.2 5.7 -.6 7.1 .3" style="fill: #cee5ff; stroke-width: 0px;"/>
              <polygon points="7.1 -1.5 7.1 .3 5.7 -.6 5.7 -2.5 7.1 -1.5" style="fill: #f1ffff; stroke-width: 0px;"/>
              <polygon points="4.3 17.3 4.3 16.5 5.3 17.3 4.3 17.3" style="fill: #4a7aff; stroke-width: 0px;"/>
              <polygon points="5.3 17.3 4.3 16.5 4.3 14.7 5.7 15.7 5.7 17.3 5.3 17.3" style="fill: #5383ff; stroke-width: 0px;"/>
              <polygon points="5.7 13.9 5.7 15.7 4.3 14.7 4.3 12.9 5.7 13.9" style="fill: #4a7aff; stroke-width: 0px;"/>
              <polygon points="5.7 12.1 5.7 13.9 4.3 12.9 4.3 11.1 5.7 12.1" style="fill: #3c6dff; stroke-width: 0px;"/>
              <polygon points="5.7 10.2 5.7 12.1 4.3 11.1 4.3 9.3 5.7 10.2" style="fill: #5d8aff; stroke-width: 0px;"/>
              <polygon points="5.7 8.4 5.7 10.2 4.3 9.3 4.3 7.4 5.7 8.4" style="fill: #83aaff; stroke-width: 0px;"/>
              <polygon points="5.7 6.6 5.7 8.4 4.3 7.4 4.3 5.6 5.7 6.6" style="fill: #a0c1ff; stroke-width: 0px;"/>
              <polygon points="5.7 4.8 5.7 6.6 4.3 5.6 4.3 3.8 5.7 4.8" style="fill: #d2e7ff; stroke-width: 0px;"/>
              <polygon points="5.7 3 5.7 4.8 4.3 3.8 4.3 2 5.7 3" style="fill: #d2e7ff; stroke-width: 0px;"/>
              <polygon points="5.7 1.2 5.7 3 4.3 2 4.3 .2 5.7 1.2" style="fill: #c5ddff; stroke-width: 0px;"/>
              <polygon points="5.7 -.6 5.7 1.2 4.3 .2 4.3 -1.6 5.7 -.6" style="fill: #fff; stroke-width: 0px;"/>
              <polygon points="2.9 17.3 2.9 15.5 4.3 16.5 4.3 17.3 2.9 17.3" style="fill: #749dff; stroke-width: 0px;"/>
              <polygon points="4.3 14.7 4.3 16.5 2.9 15.5 2.9 13.7 4.3 14.7" style="fill: #5786ff; stroke-width: 0px;"/>
              <polygon points="4.3 12.9 4.3 14.7 2.9 13.7 2.9 11.9 4.3 12.9" style="fill: #4877ff; stroke-width: 0px;"/>
              <polygon points="4.3 11.1 4.3 12.9 2.9 11.9 2.9 10.1 4.3 11.1" style="fill: #3766ff; stroke-width: 0px;"/>
              <polygon points="4.3 9.3 4.3 11.1 2.9 10.1 2.9 8.3 4.3 9.3" style="fill: #5786ff; stroke-width: 0px;"/>
              <polygon points="4.3 7.4 4.3 9.3 2.9 8.3 2.9 6.5 4.3 7.4" style="fill: #5d8aff; stroke-width: 0px;"/>
              <polygon points="4.3 5.6 4.3 7.4 2.9 6.5 2.9 4.7 4.3 5.6" style="fill: #92b6ff; stroke-width: 0px;"/>
              <polygon points="4.3 3.8 4.3 5.6 2.9 4.7 2.9 2.8 4.3 3.8" style="fill: #9dbfff; stroke-width: 0px;"/>
              <polygon points="4.3 2 4.3 3.8 2.9 2.8 2.9 1 4.3 2" style="fill: #f5ffff; stroke-width: 0px;"/>
              <polygon points="4.3 .2 4.3 2 2.9 1 2.9 -.8 4.3 .2" style="fill: #f1ffff; stroke-width: 0px;"/>
              <polygon points="4.3 -1.6 4.3 .2 2.9 -.8 2.9 -2.6 4.3 -1.6" style="fill: #fff; stroke-width: 0px;"/>
              <polygon points="1.5 17.3 1.5 16.4 2.7 17.3 1.5 17.3" style="fill: #749dff; stroke-width: 0px;"/>
              <polygon points="2.7 17.3 1.5 16.4 1.5 14.6 2.9 15.5 2.9 17.3 2.7 17.3" style="fill: #719bff; stroke-width: 0px;"/>
              <polygon points="2.9 13.7 2.9 15.5 1.5 14.6 1.5 12.7 2.9 13.7" style="fill: #4171ff; stroke-width: 0px;"/>
              <polygon points="2.9 11.9 2.9 13.7 1.5 12.7 1.5 10.9 2.9 11.9" style="fill: #5180ff; stroke-width: 0px;"/>
              <polygon points="2.9 10.1 2.9 11.9 1.5 10.9 1.5 9.1 2.9 10.1" style="fill: #4474ff; stroke-width: 0px;"/>
              <polygon points="2.9 8.3 2.9 10.1 1.5 9.1 1.5 7.3 2.9 8.3" style="fill: #6692ff; stroke-width: 0px;"/>
              <polygon points="2.9 6.5 2.9 8.3 1.5 7.3 1.5 5.5 2.9 6.5" style="fill: #5180ff; stroke-width: 0px;"/>
              <polygon points="2.9 4.7 2.9 6.5 1.5 5.5 1.5 3.7 2.9 4.7" style="fill: #92b6ff; stroke-width: 0px;"/>
              <polygon points="2.9 2.8 2.9 4.7 1.5 3.7 1.5 1.9 2.9 2.8" style="fill: #e7f7ff; stroke-width: 0px;"/>
              <polygon points="2.9 1 2.9 2.8 1.5 1.9 1.5 0 2.9 1" style="fill: #e3f5ff; stroke-width: 0px;"/>
              <polygon points="2.9 -.8 2.9 1 1.5 0 1.5 -1.8 2.9 -.8" style="fill: #fff; stroke-width: 0px;"/>
              <polygon points=".2 17.3 0 17.2 0 15.4 1.5 16.4 1.5 17.3 .2 17.3" style="fill: #a0c1ff; stroke-width: 0px;"/>
              <polygon points="1.5 14.6 1.5 16.4 0 15.4 0 13.6 1.5 14.6" style="fill: #83aaff; stroke-width: 0px;"/>
              <polygon points="1.5 12.7 1.5 14.6 0 13.6 0 11.8 1.5 12.7" style="fill: #608dff; stroke-width: 0px;"/>
              <polygon points="1.5 10.9 1.5 12.7 0 11.8 0 10 1.5 10.9" style="fill: #4a7aff; stroke-width: 0px;"/>
              <polygon points="1.5 9.1 1.5 10.9 0 10 0 8.1 1.5 9.1" style="fill: #6a95ff; stroke-width: 0px;"/>
              <polygon points="1.5 7.3 1.5 9.1 0 8.1 0 6.3 1.5 7.3" style="fill: #5383ff; stroke-width: 0px;"/>
              <polygon points="1.5 5.5 1.5 7.3 0 6.3 0 4.5 1.5 5.5" style="fill: #4d7dff; stroke-width: 0px;"/>
              <polygon points="1.5 3.7 1.5 5.5 0 4.5 0 2.7 1.5 3.7" style="fill: #c5ddff; stroke-width: 0px;"/>
              <polygon points="1.5 1.9 1.5 3.7 0 2.7 0 .9 1.5 1.9" style="fill: #fff; stroke-width: 0px;"/>
              <polygon points="1.5 0 1.5 1.9 0 .9 0 -.9 1.5 0" style="fill: #fff; stroke-width: 0px;"/>
              <polygon points="1.5 -1.8 1.5 0 0 -.9 0 -2.8 1.5 -1.8" style="fill: #fff; stroke-width: 0px;"/>
            </g>
            <g style="mix-blend-mode: screen;">
              <polygon points="0 17.3 0 16.7 1.5 15.7 1.5 17.3 0 17.3" style="fill: #4d7dff; stroke-width: 0px;"/>
              <polygon points="0 14.9 0 16.7 1.5 15.7 1.5 13.9 0 14.9" style="fill: #5180ff; stroke-width: 0px;"/>
              <polygon points="0 13.1 0 14.9 1.5 13.9 1.5 12.1 0 13.1" style="fill: #5987ff; stroke-width: 0px;"/>
              <polygon points="0 11.3 0 13.1 1.5 12.1 1.5 10.3 0 11.3" style="fill: #6490ff; stroke-width: 0px;"/>
              <polygon points="0 9.5 0 11.3 1.5 10.3 1.5 8.5 0 9.5" style="fill: #80a7ff; stroke-width: 0px;"/>
              <polygon points="0 7.6 0 9.5 1.5 8.5 1.5 6.7 0 7.6" style="fill: #accaff; stroke-width: 0px;"/>
              <polygon points="0 5.8 0 7.6 1.5 6.7 1.5 4.8 0 5.8" style="fill: #b5d2ff; stroke-width: 0px;"/>
              <polygon points="0 4 0 5.8 1.5 4.8 1.5 3 0 4" style="fill: #9dbfff; stroke-width: 0px;"/>
              <polygon points="0 2.2 0 4 1.5 3 1.5 1.2 0 2.2" style="fill: #83aaff; stroke-width: 0px;"/>
              <polygon points="0 .4 0 2.2 1.5 1.2 1.5 -.6 0 .4" style="fill: #78a2ff; stroke-width: 0px;"/>
              <polygon points="0 -1.4 0 .4 1.5 -.6 1.5 -2.4 0 -1.4" style="fill: #719bff; stroke-width: 0px;"/>
              <polygon points="1.9 17.3 2.9 16.6 2.9 17.3 1.9 17.3" style="fill: #3462ff; stroke-width: 0px;"/>
              <polygon points="1.5 17.3 1.5 15.7 2.9 14.8 2.9 16.6 1.9 17.3 1.5 17.3" style="fill: #3766ff; stroke-width: 0px;"/>
              <polygon points="1.5 13.9 1.5 15.7 2.9 14.8 2.9 12.9 1.5 13.9" style="fill: #3766ff; stroke-width: 0px;"/>
              <polygon points="1.5 12.1 1.5 13.9 2.9 12.9 2.9 11.1 1.5 12.1" style="fill: #4a7aff; stroke-width: 0px;"/>
              <polygon points="1.5 10.3 1.5 12.1 2.9 11.1 2.9 9.3 1.5 10.3" style="fill: #6692ff; stroke-width: 0px;"/>
              <polygon points="1.5 8.5 1.5 10.3 2.9 9.3 2.9 7.5 1.5 8.5" style="fill: #749dff; stroke-width: 0px;"/>
              <polygon points="1.5 6.7 1.5 8.5 2.9 7.5 2.9 5.7 1.5 6.7" style="fill: #9dbfff; stroke-width: 0px;"/>
              <polygon points="1.5 4.8 1.5 6.7 2.9 5.7 2.9 3.9 1.5 4.8" style="fill: #bed7ff; stroke-width: 0px;"/>
              <polygon points="1.5 3 1.5 4.8 2.9 3.9 2.9 2 1.5 3" style="fill: #a9c8ff; stroke-width: 0px;"/>
              <polygon points="1.5 1.2 1.5 3 2.9 2 2.9 .2 1.5 1.2" style="fill: #e7f7ff; stroke-width: 0px;"/>
              <polygon points="1.5 -.6 1.5 1.2 2.9 .2 2.9 -1.6 1.5 -.6" style="fill: #80a7ff; stroke-width: 0px;"/>
              <polygon points="2.9 17.3 2.9 16.6 4.3 15.6 4.3 17.3 2.9 17.3" style="fill: #3462ff; stroke-width: 0px;"/>
              <polygon points="2.9 14.8 2.9 16.6 4.3 15.6 4.3 13.8 2.9 14.8" style="fill: #3f70ff; stroke-width: 0px;"/>
              <polygon points="2.9 12.9 2.9 14.8 4.3 13.8 4.3 12 2.9 12.9" style="fill: #5180ff; stroke-width: 0px;"/>
              <polygon points="2.9 11.1 2.9 12.9 4.3 12 4.3 10.1 2.9 11.1" style="fill: #4a7aff; stroke-width: 0px;"/>
              <polygon points="2.9 9.3 2.9 11.1 4.3 10.1 4.3 8.3 2.9 9.3" style="fill: #5180ff; stroke-width: 0px;"/>
              <polygon points="2.9 7.5 2.9 9.3 4.3 8.3 4.3 6.5 2.9 7.5" style="fill: #5987ff; stroke-width: 0px;"/>
              <polygon points="2.9 5.7 2.9 7.5 4.3 6.5 4.3 4.7 2.9 5.7" style="fill: #80a7ff; stroke-width: 0px;"/>
              <polygon points="2.9 3.9 2.9 5.7 4.3 4.7 4.3 2.9 2.9 3.9" style="fill: #e7f7ff; stroke-width: 0px;"/>
              <polygon points="2.9 2 2.9 3.9 4.3 2.9 4.3 1.1 2.9 2" style="fill: #a9c8ff; stroke-width: 0px;"/>
              <polygon points="2.9 .2 2.9 2 4.3 1.1 4.3 -.7 2.9 .2" style="fill: #fff; stroke-width: 0px;"/>
              <polygon points="2.9 -1.6 2.9 .2 4.3 -.7 4.3 -2.6 2.9 -1.6" style="fill: #b1ceff; stroke-width: 0px;"/>
              <polygon points="4.4 17.3 5.7 16.4 5.7 17.3 4.4 17.3" style="fill: #315eff; stroke-width: 0px;"/>
              <polygon points="4.3 17.3 4.3 15.6 5.7 14.6 5.7 16.4 4.4 17.3 4.3 17.3" style="fill: #3f70ff; stroke-width: 0px;"/>
              <polygon points="4.3 13.8 4.3 15.6 5.7 14.6 5.7 12.8 4.3 13.8" style="fill: #3c6dff; stroke-width: 0px;"/>
              <polygon points="4.3 12 4.3 13.8 5.7 12.8 5.7 11 4.3 12" style="fill: #4474ff; stroke-width: 0px;"/>
              <polygon points="4.3 10.1 4.3 12 5.7 11 5.7 9.2 4.3 10.1" style="fill: #4171ff; stroke-width: 0px;"/>
              <polygon points="4.3 8.3 4.3 10.1 5.7 9.2 5.7 7.3 4.3 8.3" style="fill: #6a95ff; stroke-width: 0px;"/>
              <polygon points="4.3 6.5 4.3 8.3 5.7 7.3 5.7 5.5 4.3 6.5" style="fill: #8db3ff; stroke-width: 0px;"/>
              <polygon points="4.3 4.7 4.3 6.5 5.7 5.5 5.7 3.7 4.3 4.7" style="fill: #80a7ff; stroke-width: 0px;"/>
              <polygon points="4.3 2.9 4.3 4.7 5.7 3.7 5.7 1.9 4.3 2.9" style="fill: #cee5ff; stroke-width: 0px;"/>
              <polygon points="4.3 1.1 4.3 2.9 5.7 1.9 5.7 0 4.3 1.1" style="fill: #c8e1ff; stroke-width: 0px;"/>
              <polygon points="4.3 -.7 4.3 1.1 5.7 0 5.7 -1.7 4.3 -.7" style="fill: #b5d2ff; stroke-width: 0px;"/>
              <polygon points="5.7 17.3 5.7 16.4 7.1 15.4 7.1 17.3 7 17.3 5.7 17.3" style="fill: #315eff; stroke-width: 0px;"/>
              <polygon points="5.7 14.6 5.7 16.4 7.1 15.4 7.1 13.6 5.7 14.6" style="fill: #3462ff; stroke-width: 0px;"/>
              <polygon points="5.7 12.8 5.7 14.6 7.1 13.6 7.1 11.8 5.7 12.8" style="fill: #3462ff; stroke-width: 0px;"/>
              <polygon points="5.7 11 5.7 12.8 7.1 11.8 7.1 10 5.7 11" style="fill: #5180ff; stroke-width: 0px;"/>
              <polygon points="5.7 9.2 5.7 11 7.1 10 7.1 8.2 5.7 9.2" style="fill: #5987ff; stroke-width: 0px;"/>
              <polygon points="5.7 7.3 5.7 9.2 7.1 8.2 7.1 6.4 5.7 7.3" style="fill: #9dbfff; stroke-width: 0px;"/>
              <polygon points="5.7 5.5 5.7 7.3 7.1 6.4 7.1 4.6 5.7 5.5" style="fill: #a5c5ff; stroke-width: 0px;"/>
              <polygon points="5.7 3.7 5.7 5.5 7.1 4.6 7.1 2.7 5.7 3.7" style="fill: #86acff; stroke-width: 0px;"/>
              <polygon points="5.7 1.9 5.7 3.7 7.1 2.7 7.1 .9 5.7 1.9" style="fill: #a0c1ff; stroke-width: 0px;"/>
              <polygon points="5.7 0 5.7 1.9 7.1 .9 7.1 -.9 5.7 0" style="fill: #9dbfff; stroke-width: 0px;"/>
              <polygon points="5.7 -1.7 5.7 0 7.1 -.9 7.1 -2.7 5.7 -1.7" style="fill: #b5d2ff; stroke-width: 0px;"/>
              <polygon points="7.1 17.3 7.1 17.3 8.5 16.3 8.5 17.3 7.1 17.3" style="fill: #2751f9; stroke-width: 0px;"/>
              <polygon points="7.1 15.4 7.1 17.3 8.5 16.3 8.5 14.5 7.1 15.4" style="fill: #3c6dff; stroke-width: 0px;"/>
              <polygon points="7.1 13.6 7.1 15.4 8.5 14.5 8.5 12.6 7.1 13.6" style="fill: #4474ff; stroke-width: 0px;"/>
              <polygon points="7.1 11.8 7.1 13.6 8.5 12.6 8.5 10.8 7.1 11.8" style="fill: #4a7aff; stroke-width: 0px;"/>
              <polygon points="7.1 10 7.1 11.8 8.5 10.8 8.5 9 7.1 10" style="fill: #6692ff; stroke-width: 0px;"/>
              <polygon points="7.1 8.2 7.1 10 8.5 9 8.5 7.2 7.1 8.2" style="fill: #5786ff; stroke-width: 0px;"/>
              <polygon points="7.1 6.4 7.1 8.2 8.5 7.2 8.5 5.4 7.1 6.4" style="fill: #608dff; stroke-width: 0px;"/>
              <polygon points="7.1 4.6 7.1 6.4 8.5 5.4 8.5 3.6 7.1 4.6" style="fill: #83aaff; stroke-width: 0px;"/>
              <polygon points="7.1 2.7 7.1 4.6 8.5 3.6 8.5 1.8 7.1 2.7" style="fill: #86acff; stroke-width: 0px;"/>
              <polygon points="7.1 .9 7.1 2.7 8.5 1.8 8.5 0 7.1 .9" style="fill: #accaff; stroke-width: 0px;"/>
              <polygon points="7.1 -.9 7.1 .9 8.5 0 8.5 -1.9 7.1 -.9" style="fill: #d5ebff; stroke-width: 0px;"/>
              <polygon points="8.5 17.3 8.5 16.3 9.9 15.3 9.9 17.1 9.6 17.3 8.5 17.3" style="fill: #4877ff; stroke-width: 0px;"/>
              <polygon points="8.5 14.5 8.5 16.3 9.9 15.3 9.9 13.5 8.5 14.5" style="fill: #3f70ff; stroke-width: 0px;"/>
              <polygon points="8.5 12.6 8.5 14.5 9.9 13.5 9.9 11.7 8.5 12.6" style="fill: #4171ff; stroke-width: 0px;"/>
              <polygon points="8.5 10.8 8.5 12.6 9.9 11.7 9.9 9.9 8.5 10.8" style="fill: #4d7dff; stroke-width: 0px;"/>
              <polygon points="8.5 9 8.5 10.8 9.9 9.9 9.9 8 8.5 9" style="fill: #608dff; stroke-width: 0px;"/>
              <polygon points="8.5 7.2 8.5 9 9.9 8 9.9 6.2 8.5 7.2" style="fill: #5786ff; stroke-width: 0px;"/>
              <polygon points="8.5 5.4 8.5 7.2 9.9 6.2 9.9 4.4 8.5 5.4" style="fill: #83aaff; stroke-width: 0px;"/>
              <polygon points="8.5 3.6 8.5 5.4 9.9 4.4 9.9 2.6 8.5 3.6" style="fill: #8ab0ff; stroke-width: 0px;"/>
              <polygon points="8.5 1.8 8.5 3.6 9.9 2.6 9.9 .8 8.5 1.8" style="fill: #719bff; stroke-width: 0px;"/>
              <polygon points="8.5 0 8.5 1.8 9.9 .8 9.9 -1 8.5 0" style="fill: #98bcff; stroke-width: 0px;"/>
              <polygon points="9.9 17.3 9.9 17.1 11.3 16.1 11.3 17.3 9.9 17.3" style="fill: #5180ff; stroke-width: 0px;"/>
              <polygon points="9.9 15.3 9.9 17.1 11.3 16.1 11.3 14.3 9.9 15.3" style="fill: #4171ff; stroke-width: 0px;"/>
              <polygon points="9.9 13.5 9.9 15.3 11.3 14.3 11.3 12.5 9.9 13.5" style="fill: #4d7dff; stroke-width: 0px;"/>
              <polygon points="9.9 11.7 9.9 13.5 11.3 12.5 11.3 10.7 9.9 11.7" style="fill: #5180ff; stroke-width: 0px;"/>
              <polygon points="9.9 9.9 9.9 11.7 11.3 10.7 11.3 8.9 9.9 9.9" style="fill: #6a95ff; stroke-width: 0px;"/>
              <polygon points="9.9 8 9.9 9.9 11.3 8.9 11.3 7.1 9.9 8" style="fill: #7ba4ff; stroke-width: 0px;"/>
              <polygon points="9.9 6.2 9.9 8 11.3 7.1 11.3 5.2 9.9 6.2" style="fill: #5987ff; stroke-width: 0px;"/>
              <polygon points="9.9 4.4 9.9 6.2 11.3 5.2 11.3 3.4 9.9 4.4" style="fill: #80a7ff; stroke-width: 0px;"/>
              <polygon points="9.9 2.6 9.9 4.4 11.3 3.4 11.3 1.6 9.9 2.6" style="fill: #a0c1ff; stroke-width: 0px;"/>
              <polygon points="9.9 .8 9.9 2.6 11.3 1.6 11.3 -.2 9.9 .8" style="fill: #83aaff; stroke-width: 0px;"/>
              <polygon points="9.9 -1 9.9 .8 11.3 -.2 11.3 -2 9.9 -1" style="fill: #b5d2ff; stroke-width: 0px;"/>
              <polygon points="12.2 17.3 12.7 17 12.7 17.3 12.2 17.3" style="fill: #4877ff; stroke-width: 0px;"/>
              <polygon points="11.3 17.3 11.3 16.1 12.7 15.2 12.7 17 12.2 17.3 11.3 17.3" style="fill: #4877ff; stroke-width: 0px;"/>
              <polygon points="11.3 14.3 11.3 16.1 12.7 15.2 12.7 13.3 11.3 14.3" style="fill: #608dff; stroke-width: 0px;"/>
              <polygon points="11.3 12.5 11.3 14.3 12.7 13.3 12.7 11.5 11.3 12.5" style="fill: #4877ff; stroke-width: 0px;"/>
              <polygon points="11.3 10.7 11.3 12.5 12.7 11.5 12.7 9.7 11.3 10.7" style="fill: #5d8aff; stroke-width: 0px;"/>
              <polygon points="11.3 8.9 11.3 10.7 12.7 9.7 12.7 7.9 11.3 8.9" style="fill: #608dff; stroke-width: 0px;"/>
              <polygon points="11.3 7.1 11.3 8.9 12.7 7.9 12.7 6.1 11.3 7.1" style="fill: #7ba4ff; stroke-width: 0px;"/>
              <polygon points="11.3 5.2 11.3 7.1 12.7 6.1 12.7 4.3 11.3 5.2" style="fill: #7ba4ff; stroke-width: 0px;"/>
              <polygon points="11.3 3.4 11.3 5.2 12.7 4.3 12.7 2.4 11.3 3.4" style="fill: #98bcff; stroke-width: 0px;"/>
              <polygon points="11.3 1.6 11.3 3.4 12.7 2.4 12.7 .6 11.3 1.6" style="fill: #6a95ff; stroke-width: 0px;"/>
              <polygon points="11.3 -.2 11.3 1.6 12.7 .6 12.7 -1.2 11.3 -.2" style="fill: #8ab0ff; stroke-width: 0px;"/>
              <polygon points="12.7 17.3 12.7 17 14.1 16 14.1 17.3 12.7 17.3" style="fill: #5d8aff; stroke-width: 0px;"/>
              <polygon points="12.7 15.2 12.7 17 14.1 16 14.1 14.2 12.7 15.2" style="fill: #608dff; stroke-width: 0px;"/>
              <polygon points="12.7 13.3 12.7 15.2 14.1 14.2 14.1 12.4 12.7 13.3" style="fill: #4a7aff; stroke-width: 0px;"/>
              <polygon points="12.7 11.5 12.7 13.3 14.1 12.4 14.1 10.5 12.7 11.5" style="fill: #5786ff; stroke-width: 0px;"/>
              <polygon points="12.7 9.7 12.7 11.5 14.1 10.5 14.1 8.7 12.7 9.7" style="fill: #5987ff; stroke-width: 0px;"/>
              <polygon points="12.7 7.9 12.7 9.7 14.1 8.7 14.1 6.9 12.7 7.9" style="fill: #a0c1ff; stroke-width: 0px;"/>
              <polygon points="12.7 6.1 12.7 7.9 14.1 6.9 14.1 5.1 12.7 6.1" style="fill: #8db3ff; stroke-width: 0px;"/>
              <polygon points="12.7 4.3 12.7 6.1 14.1 5.1 14.1 3.3 12.7 4.3" style="fill: #719bff; stroke-width: 0px;"/>
              <polygon points="12.7 2.4 12.7 4.3 14.1 3.3 14.1 1.5 12.7 2.4" style="fill: #92b6ff; stroke-width: 0px;"/>
              <polygon points="12.7 .6 12.7 2.4 14.1 1.5 14.1 -.4 12.7 .6" style="fill: #749dff; stroke-width: 0px;"/>
              <polygon points="12.7 -1.2 12.7 .6 14.1 -.4 14.1 -2.2 12.7 -1.2" style="fill: #8db3ff; stroke-width: 0px;"/>
              <polygon points="14.8 17.3 15.5 16.8 15.5 17.3 14.8 17.3" style="fill: #4171ff; stroke-width: 0px;"/>
              <polygon points="14.1 17.3 14.1 16 15.5 15 15.5 16.8 14.8 17.3 14.1 17.3" style="fill: #5786ff; stroke-width: 0px;"/>
              <polygon points="14.1 14.2 14.1 16 15.5 15 15.5 13.2 14.1 14.2" style="fill: #6692ff; stroke-width: 0px;"/>
              <polygon points="14.1 12.4 14.1 14.2 15.5 13.2 15.5 11.4 14.1 12.4" style="fill: #6490ff; stroke-width: 0px;"/>
              <polygon points="14.1 10.5 14.1 12.4 15.5 11.4 15.5 9.6 14.1 10.5" style="fill: #4877ff; stroke-width: 0px;"/>
              <polygon points="14.1 8.7 14.1 10.5 15.5 9.6 15.5 7.7 14.1 8.7" style="fill: #608dff; stroke-width: 0px;"/>
              <polygon points="14.1 6.9 14.1 8.7 15.5 7.7 15.5 5.9 14.1 6.9" style="fill: #6a95ff; stroke-width: 0px;"/>
              <polygon points="14.1 5.1 14.1 6.9 15.5 5.9 15.5 4.1 14.1 5.1" style="fill: #86acff; stroke-width: 0px;"/>
              <polygon points="14.1 3.3 14.1 5.1 15.5 4.1 15.5 2.3 14.1 3.3" style="fill: #92b6ff; stroke-width: 0px;"/>
              <polygon points="14.1 1.5 14.1 3.3 15.5 2.3 15.5 .5 14.1 1.5" style="fill: #accaff; stroke-width: 0px;"/>
              <polygon points="14.1 -.4 14.1 1.5 15.5 .5 15.5 -1.3 14.1 -.4" style="fill: #749dff; stroke-width: 0px;"/>
              <polygon points="15.5 17.3 15.5 16.8 16.9 15.8 16.9 17.3 15.5 17.3" style="fill: #4877ff; stroke-width: 0px;"/>
              <polygon points="15.5 15 15.5 16.8 16.9 15.8 16.9 14 15.5 15" style="fill: #5786ff; stroke-width: 0px;"/>
              <polygon points="15.5 13.2 15.5 15 16.9 14 16.9 12.2 15.5 13.2" style="fill: #608dff; stroke-width: 0px;"/>
              <polygon points="15.5 11.4 15.5 13.2 16.9 12.2 16.9 10.4 15.5 11.4" style="fill: #5d8aff; stroke-width: 0px;"/>
              <polygon points="15.5 9.6 15.5 11.4 16.9 10.4 16.9 8.6 15.5 9.6" style="fill: #5d8aff; stroke-width: 0px;"/>
              <polygon points="15.5 7.7 15.5 9.6 16.9 8.6 16.9 6.8 15.5 7.7" style="fill: #86acff; stroke-width: 0px;"/>
              <polygon points="15.5 5.9 15.5 7.7 16.9 6.8 16.9 4.9 15.5 5.9" style="fill: #6d98ff; stroke-width: 0px;"/>
              <polygon points="15.5 4.1 15.5 5.9 16.9 4.9 16.9 3.1 15.5 4.1" style="fill: #dbefff; stroke-width: 0px;"/>
              <polygon points="15.5 2.3 15.5 4.1 16.9 3.1 16.9 1.3 15.5 2.3" style="fill: #accaff; stroke-width: 0px;"/>
              <polygon points="15.5 .5 15.5 2.3 16.9 1.3 16.9 -.5 15.5 .5" style="fill: #98bcff; stroke-width: 0px;"/>
              <polygon points="15.5 -1.3 15.5 .5 16.9 -.5 16.9 -2.3 15.5 -1.3" style="fill: #b8d4ff; stroke-width: 0px;"/>
              <polygon points="17.4 17.3 18.3 16.7 18.3 17.3 17.4 17.3" style="fill: #5383ff; stroke-width: 0px;"/>
              <polygon points="16.9 17.3 16.9 15.8 18.3 14.9 18.3 16.7 17.4 17.3 16.9 17.3" style="fill: #4877ff; stroke-width: 0px;"/>
              <polygon points="16.9 14 16.9 15.8 18.3 14.9 18.3 13 16.9 14" style="fill: #5383ff; stroke-width: 0px;"/>
              <polygon points="16.9 12.2 16.9 14 18.3 13 18.3 11.2 16.9 12.2" style="fill: #6a95ff; stroke-width: 0px;"/>
              <polygon points="16.9 10.4 16.9 12.2 18.3 11.2 18.3 9.4 16.9 10.4" style="fill: #6692ff; stroke-width: 0px;"/>
              <polygon points="16.9 8.6 16.9 10.4 18.3 9.4 18.3 7.6 16.9 8.6" style="fill: #608dff; stroke-width: 0px;"/>
              <polygon points="16.9 6.8 16.9 8.6 18.3 7.6 18.3 5.8 16.9 6.8" style="fill: #608dff; stroke-width: 0px;"/>
              <polygon points="16.9 4.9 16.9 6.8 18.3 5.8 18.3 4 16.9 4.9" style="fill: #8db3ff; stroke-width: 0px;"/>
              <polygon points="16.9 3.1 16.9 4.9 18.3 4 18.3 2.1 16.9 3.1" style="fill: #fff; stroke-width: 0px;"/>
              <polygon points="16.9 1.3 16.9 3.1 18.3 2.1 18.3 .3 16.9 1.3" style="fill: #a0c1ff; stroke-width: 0px;"/>
              <polygon points="16.9 -.5 16.9 1.3 18.3 .3 18.3 -1.5 16.9 -.5" style="fill: #b5d2ff; stroke-width: 0px;"/>
              <polygon points="18.3 17.3 18.3 16.7 19.7 15.7 19.7 17.3 18.3 17.3" style="fill: #5786ff; stroke-width: 0px;"/>
              <polygon points="18.3 14.9 18.3 16.7 19.7 15.7 19.7 13.9 18.3 14.9" style="fill: #4a7aff; stroke-width: 0px;"/>
              <polygon points="18.3 13 18.3 14.9 19.7 13.9 19.7 12.1 18.3 13" style="fill: #4a7aff; stroke-width: 0px;"/>
              <polygon points="18.3 11.2 18.3 13 19.7 12.1 19.7 10.2 18.3 11.2" style="fill: #5987ff; stroke-width: 0px;"/>
              <polygon points="18.3 9.4 18.3 11.2 19.7 10.2 19.7 8.4 18.3 9.4" style="fill: #749dff; stroke-width: 0px;"/>
              <polygon points="18.3 7.6 18.3 9.4 19.7 8.4 19.7 6.6 18.3 7.6" style="fill: #719bff; stroke-width: 0px;"/>
              <polygon points="18.3 5.8 18.3 7.6 19.7 6.6 19.7 4.8 18.3 5.8" style="fill: #b1ceff; stroke-width: 0px;"/>
              <polygon points="18.3 4 18.3 5.8 19.7 4.8 19.7 3 18.3 4" style="fill: #b1ceff; stroke-width: 0px;"/>
              <polygon points="18.3 2.1 18.3 4 19.7 3 19.7 1.2 18.3 2.1" style="fill: #accaff; stroke-width: 0px;"/>
              <polygon points="18.3 .3 18.3 2.1 19.7 1.2 19.7 -.6 18.3 .3" style="fill: #cee5ff; stroke-width: 0px;"/>
              <polygon points="18.3 -1.5 18.3 .3 19.7 -.6 19.7 -2.5 18.3 -1.5" style="fill: #f1ffff; stroke-width: 0px;"/>
              <polygon points="20 17.3 21.1 16.5 21.1 17.3 20 17.3" style="fill: #4a7aff; stroke-width: 0px;"/>
              <polygon points="19.7 17.3 19.7 15.7 21.1 14.7 21.1 16.5 20 17.3 19.7 17.3" style="fill: #5383ff; stroke-width: 0px;"/>
              <polygon points="19.7 13.9 19.7 15.7 21.1 14.7 21.1 12.9 19.7 13.9" style="fill: #4a7aff; stroke-width: 0px;"/>
              <polygon points="19.7 12.1 19.7 13.9 21.1 12.9 21.1 11.1 19.7 12.1" style="fill: #3c6dff; stroke-width: 0px;"/>
              <polygon points="19.7 10.2 19.7 12.1 21.1 11.1 21.1 9.3 19.7 10.2" style="fill: #5d8aff; stroke-width: 0px;"/>
              <polygon points="19.7 8.4 19.7 10.2 21.1 9.3 21.1 7.4 19.7 8.4" style="fill: #83aaff; stroke-width: 0px;"/>
              <polygon points="19.7 6.6 19.7 8.4 21.1 7.4 21.1 5.6 19.7 6.6" style="fill: #a0c1ff; stroke-width: 0px;"/>
              <polygon points="19.7 4.8 19.7 6.6 21.1 5.6 21.1 3.8 19.7 4.8" style="fill: #d2e7ff; stroke-width: 0px;"/>
              <polygon points="19.7 3 19.7 4.8 21.1 3.8 21.1 2 19.7 3" style="fill: #d2e7ff; stroke-width: 0px;"/>
              <polygon points="19.7 1.2 19.7 3 21.1 2 21.1 .2 19.7 1.2" style="fill: #c5ddff; stroke-width: 0px;"/>
              <polygon points="19.7 -.6 19.7 1.2 21.1 .2 21.1 -1.6 19.7 -.6" style="fill: #fff; stroke-width: 0px;"/>
              <polygon points="21.1 17.3 21.1 16.5 22.5 15.5 22.5 17.3 21.1 17.3" style="fill: #749dff; stroke-width: 0px;"/>
              <polygon points="21.1 14.7 21.1 16.5 22.5 15.5 22.5 13.7 21.1 14.7" style="fill: #5786ff; stroke-width: 0px;"/>
              <polygon points="21.1 12.9 21.1 14.7 22.5 13.7 22.5 11.9 21.1 12.9" style="fill: #4877ff; stroke-width: 0px;"/>
              <polygon points="21.1 11.1 21.1 12.9 22.5 11.9 22.5 10.1 21.1 11.1" style="fill: #3766ff; stroke-width: 0px;"/>
              <polygon points="21.1 9.3 21.1 11.1 22.5 10.1 22.5 8.3 21.1 9.3" style="fill: #5786ff; stroke-width: 0px;"/>
              <polygon points="21.1 7.4 21.1 9.3 22.5 8.3 22.5 6.5 21.1 7.4" style="fill: #5d8aff; stroke-width: 0px;"/>
              <polygon points="21.1 5.6 21.1 7.4 22.5 6.5 22.5 4.7 21.1 5.6" style="fill: #92b6ff; stroke-width: 0px;"/>
              <polygon points="21.1 3.8 21.1 5.6 22.5 4.7 22.5 2.8 21.1 3.8" style="fill: #9dbfff; stroke-width: 0px;"/>
              <polygon points="21.1 2 21.1 3.8 22.5 2.8 22.5 1 21.1 2" style="fill: #f5ffff; stroke-width: 0px;"/>
              <polygon points="21.1 .2 21.1 2 22.5 1 22.5 -.8 21.1 .2" style="fill: #f1ffff; stroke-width: 0px;"/>
              <polygon points="21.1 -1.6 21.1 .2 22.5 -.8 22.5 -2.6 21.1 -1.6" style="fill: #fff; stroke-width: 0px;"/>
              <polygon points="22.6 17.3 23.9 16.4 23.9 17.3 22.6 17.3" style="fill: #749dff; stroke-width: 0px;"/>
              <polygon points="22.5 17.3 22.5 15.5 23.9 14.6 23.9 16.4 22.6 17.3 22.5 17.3" style="fill: #719bff; stroke-width: 0px;"/>
              <polygon points="22.5 13.7 22.5 15.5 23.9 14.6 23.9 12.7 22.5 13.7" style="fill: #4171ff; stroke-width: 0px;"/>
              <polygon points="22.5 11.9 22.5 13.7 23.9 12.7 23.9 10.9 22.5 11.9" style="fill: #5180ff; stroke-width: 0px;"/>
              <polygon points="22.5 10.1 22.5 11.9 23.9 10.9 23.9 9.1 22.5 10.1" style="fill: #4474ff; stroke-width: 0px;"/>
              <polygon points="22.5 8.3 22.5 10.1 23.9 9.1 23.9 7.3 22.5 8.3" style="fill: #6692ff; stroke-width: 0px;"/>
              <polygon points="22.5 6.5 22.5 8.3 23.9 7.3 23.9 5.5 22.5 6.5" style="fill: #5180ff; stroke-width: 0px;"/>
              <polygon points="22.5 4.7 22.5 6.5 23.9 5.5 23.9 3.7 22.5 4.7" style="fill: #92b6ff; stroke-width: 0px;"/>
              <polygon points="22.5 2.8 22.5 4.7 23.9 3.7 23.9 1.9 22.5 2.8" style="fill: #e7f7ff; stroke-width: 0px;"/>
              <polygon points="22.5 1 22.5 2.8 23.9 1.9 23.9 0 22.5 1" style="fill: #e3f5ff; stroke-width: 0px;"/>
              <polygon points="22.5 -.8 22.5 1 23.9 0 23.9 -1.8 22.5 -.8" style="fill: #fff; stroke-width: 0px;"/>
              <polygon points="23.9 17.3 23.9 16.4 25.3 15.4 25.3 17.2 25.2 17.3 23.9 17.3" style="fill: #a0c1ff; stroke-width: 0px;"/>
              <polygon points="23.9 14.6 23.9 16.4 25.3 15.4 25.3 13.6 23.9 14.6" style="fill: #83aaff; stroke-width: 0px;"/>
              <polygon points="23.9 12.7 23.9 14.6 25.3 13.6 25.3 11.8 23.9 12.7" style="fill: #608dff; stroke-width: 0px;"/>
              <polygon points="23.9 10.9 23.9 12.7 25.3 11.8 25.3 10 23.9 10.9" style="fill: #4a7aff; stroke-width: 0px;"/>
              <polygon points="23.9 9.1 23.9 10.9 25.3 10 25.3 8.1 23.9 9.1" style="fill: #6a95ff; stroke-width: 0px;"/>
              <polygon points="23.9 7.3 23.9 9.1 25.3 8.1 25.3 6.3 23.9 7.3" style="fill: #5383ff; stroke-width: 0px;"/>
              <polygon points="23.9 5.5 23.9 7.3 25.3 6.3 25.3 4.5 23.9 5.5" style="fill: #4d7dff; stroke-width: 0px;"/>
              <polygon points="23.9 3.7 23.9 5.5 25.3 4.5 25.3 2.7 23.9 3.7" style="fill: #c5ddff; stroke-width: 0px;"/>
              <polygon points="23.9 1.9 23.9 3.7 25.3 2.7 25.3 .9 23.9 1.9" style="fill: #fff; stroke-width: 0px;"/>
              <polygon points="23.9 0 23.9 1.9 25.3 .9 25.3 -.9 23.9 0" style="fill: #fff; stroke-width: 0px;"/>
              <polygon points="23.9 -1.8 23.9 0 25.3 -.9 25.3 -2.8 23.9 -1.8" style="fill: #fff; stroke-width: 0px;"/>
            </g>
          </g>
          <rect x="0" y="-19.8" width="25.2" height="37.1" style="fill: url(#uuid-2ec629d5-e9bb-4a51-884f-a9747de2a2cf); mix-blend-mode: soft-light; stroke-width: 0px;"/>
        </g>
      </g>
    </g>
  </g>
</svg>