<?xml version="1.0" encoding="UTF-8"?><svg id="b" xmlns="http://www.w3.org/2000/svg" viewBox="0 0 13.6 13.6"><g id="c"><path id="d" d="M8.6,13.6c-.3,0-.5-.2-.5-.5v-1.3h-2.7v1.3c0,.3-.2.5-.5.5s-.5-.2-.5-.5v-1.3h-1.2c-.8,0-1.5-.7-1.5-1.5v-1.2H.5c-.3,0-.5-.2-.5-.5s.2-.5.5-.5h1.3v-2.7H.5c-.3,0-.5-.2-.5-.5s.2-.5.5-.5h1.3v-1.2c0-.8.7-1.5,1.5-1.5h1.2V.5c0-.3.2-.5.5-.5s.5.2.5.5v1.3h2.7V.5c0-.3.2-.5.5-.5s.5.2.5.5v1.3h1.2c.8,0,1.5.7,1.5,1.5v1.2h1.3c.3,0,.5.2.5.5s-.2.5-.5.5h-1.3v2.7h1.3c.3,0,.5.2.5.5s-.2.5-.5.5h-1.3v1.2c0,.8-.7,1.5-1.5,1.5h-1.2v1.3c0,.3-.2.5-.5.5ZM2.8,8.7v1.7c0,.3.2.5.5.5h7c.3,0,.5-.2.5-.5V3.3c0-.3-.2-.5-.5-.5H3.3c-.3,0-.5.2-.5.5v5.3ZM6.8,9.8c-.4,0-.7-.2-.7-.6,0,0,0-.1,0-.1-.2-.8-.8-1.4-1.6-1.5h0c-.4,0-.6-.4-.6-.7,0-.4.3-.7.6-.7.8-.1,1.5-.8,1.6-1.6.1-.4.5-.7.8-.7.4,0,.7.3.7.6.2.9.9,1.5,1.7,1.7.4,0,.6.4.6.7,0,.4-.3.7-.6.7-.8.1-1.5.8-1.7,1.6,0,0,0,.1,0,.1,0,.3-.4.5-.7.6h0ZM6.6,9s0,0,0,0c0,0,0,0,0,0ZM5.3,6.8c.6.3,1.2.8,1.5,1.5.3-.6.8-1.2,1.5-1.5-.7-.3-1.2-.8-1.5-1.5-.3.7-.8,1.2-1.5,1.5ZM6.6,4.7s0,0,0,0c0,0,0,0,0,0h0Z" style="fill:#000; stroke-width:0px;"/></g></svg>