<?xml version="1.0" encoding="UTF-8"?><svg id="b" xmlns="http://www.w3.org/2000/svg" viewBox="0 0 14 13.9"><g id="c"><path id="d" d="M12.5,7.4c0,3.3-2.7,6-6,6S.5,10.7.5,7.4,3.2,1.4,6.5,1.4M.5,7.4h6.9M6.5,1.4c-1.4,1.7-2.2,3.8-2.3,6,.1,2.2.9,4.3,2.3,6,1.1-1.3,1.8-2.9,2.1-4.6M7.4,3.9c-.3,0-.3-.6,0-.6,1.3-.2,2.3-1.2,2.6-2.5h0c0-.4.6-.4.7,0h0c.3,1.4,1.3,2.3,2.6,2.5.4,0,.4.6,0,.6-1.3.2-2.3,1.2-2.6,2.4h0c0,.5-.6.5-.7.1h0c-.3-1.4-1.3-2.3-2.6-2.6Z" style="fill:none; stroke:#000; stroke-linecap:round; stroke-linejoin:round;"/></g></svg>