<?xml version="1.0" encoding="UTF-8"?><svg id="b" xmlns="http://www.w3.org/2000/svg" viewBox="0 0 14 13.8"><g id="c"><path id="d" d="M13.5,13.8c-.3,0-.5-.2-.5-.5,0-.4-.1-.8-.3-1.2-.4-.8-1.3-1.3-2.2-1.3-.9,0-1.7.5-2.2,1.3-.2.4-.3.8-.3,1.2s-.2.5-.5.5-.5-.2-.5-.5c0-.6.2-1.2.5-1.7.4-.7,1.1-1.3,1.8-1.6-.6-.4-1-1.1-1-1.9,0-1.2,1-2.2,2.2-2.2s2.2,1,2.2,2.2-.4,1.5-1,1.9c.8.3,1.4.8,1.8,1.6.3.5.5,1.1.5,1.7s-.2.5-.5.5ZM10.5,6.9c-.7,0-1.2.6-1.2,1.2s.6,1.2,1.2,1.2,1.2-.6,1.2-1.2-.6-1.2-1.2-1.2ZM5.5,13.8H.5c-.3,0-.5-.2-.5-.5s.2-.5.5-.5h.6V1.5c0-.8.7-1.5,1.5-1.5h4.8c.8,0,1.5.7,1.5,1.5v3.2c0,.3-.2.5-.5.5s-.5-.2-.5-.5V1.5c0-.3-.2-.5-.5-.5H2.6c-.3,0-.5.2-.5.5v1.1h2c.3,0,.5.2.5.5s-.2.5-.5.5h-2v1.6h3.3c.3,0,.5.2.5.5s-.2.5-.5.5h-3.3v6.7h3.3c.3,0,.5.2.5.5s-.2.5-.5.5Z" style="fill:#000; stroke-width:0px;"/></g></svg>