<?xml version="1.0" encoding="UTF-8"?><svg id="b" xmlns="http://www.w3.org/2000/svg" viewBox="0 0 14 13"><g id="c"><path id="d" d="M13.5,13h-5.5c-.3,0-.5-.2-.5-.5s.2-.5.5-.5h5.5c.3,0,.5.2.5.5s-.2.5-.5.5ZM5,13H1c-.6,0-1-.4-1-1v-4c0-.6.4-1,1-1h4c.6,0,1,.4,1,1v4c0,.6-.4,1-1,1ZM1,8v4h4v-4H1ZM13.5,10h-5.5c-.3,0-.5-.2-.5-.5s.2-.5.5-.5h5.5c.3,0,.5.2.5.5s-.2.5-.5.5ZM13.5,7h-5.5c-.3,0-.5-.2-.5-.5s.2-.5.5-.5h5.5c.3,0,.5.2.5.5s-.2.5-.5.5ZM5,6H1c-.6,0-1-.4-1-1V1C0,.4.4,0,1,0h4c.6,0,1,.4,1,1v4c0,.6-.4,1-1,1ZM1,1v4h4V1H1ZM13.5,4h-5.5c-.3,0-.5-.2-.5-.5s.2-.5.5-.5h5.5c.3,0,.5.2.5.5s-.2.5-.5.5ZM13.5,1h-5.5c-.3,0-.5-.2-.5-.5s.2-.5.5-.5h5.5c.3,0,.5.2.5.5s-.2.5-.5.5Z" style="fill:#000; stroke-width:0px;"/></g></svg>