<?xml version="1.0" encoding="UTF-8"?><svg id="b" xmlns="http://www.w3.org/2000/svg" viewBox="0 0 14 14"><g id="c"><path id="d" d="M13.5,14c-.1,0-.3,0-.4-.1l-1.4-1.4c-.5.3-1.1.6-1.7.6-1.7,0-3-1.3-3-3s1.3-3,3-3,3,1.3,3,3-.2,1.2-.6,1.7l1.4,1.4c.2.2.2.5,0,.7s-.2.1-.4.1ZM10,8c-1.1,0-2,.9-2,2s.9,2,2,2,2-.9,2-2-.9-2-2-2ZM5.5,11H.5c-.3,0-.5-.2-.5-.5V.5C0,.2.2,0,.5,0h5c.6,0,1.1.3,1.5.7.4-.4.9-.7,1.5-.7h5c.3,0,.5.2.5.5v7c0,.3-.2.5-.5.5s-.5-.2-.5-.5V1h-4.5c-.6,0-1,.4-1,1v4.5c0,.3-.2.5-.5.5s-.5-.2-.5-.5V2c0-.6-.4-1-1-1H1v9h4.5c.3,0,.5.2.5.5s-.2.5-.5.5Z" style="fill:#000; stroke-width:0px;"/></g></svg>