<?xml version="1.0" encoding="UTF-8"?><svg id="b" xmlns="http://www.w3.org/2000/svg" viewBox="0 0 14 14"><g id="c"><path id="d" d="M7,13.5v-5.2c0-.3.1-.6.4-.9.2-.2.6-.4.9-.4s.7.1.9.4c.2.2.4.5.4.9v2.8h2c.5,0,1,.2,1.4.6.4.4.6.9.6,1.4v.5M6.3,3.1C5,1.7,3.3.8,1.5.5c-.1,0-.2,0-.4,0-.1,0-.2,0-.3.2-.1,0-.2.2-.2.3,0,.1,0,.2,0,.4v7.1c0,.2,0,.4.2.6.2.2.3.3.6.3,1.4.2,2.8.8,3.9,1.6M6.3,5.9v-2.8M11.2,9.4c.2,0,.4-.1.6-.3.1-.2.2-.4.2-.6V1.4c0-.1,0-.3,0-.4,0-.1-.1-.2-.2-.3,0,0-.2-.1-.3-.2-.1,0-.2,0-.4,0-1.8.3-3.5,1.2-4.7,2.6" style="fill:none; stroke:#000; stroke-linecap:round; stroke-linejoin:round;"/></g></svg>