<?xml version="1.0" encoding="UTF-8"?><svg id="b" xmlns="http://www.w3.org/2000/svg" viewBox="0 0 14 14"><g id="c"><path id="d" d="M11.6,14c-.1,0-.3,0-.4-.1-.2-.2-.2-.5,0-.7l1-1h-4.9c-.2.8-1,1.4-1.8,1.4s-1.6-.6-1.8-1.4h-.7c-1.7,0-3.1-1.4-3.1-3.1s1.4-3.1,3.1-3.1h3.5c.2-.8,1-1.4,1.8-1.4s1.6.6,1.8,1.4h1c1,0,1.8-.8,1.8-1.8s-.8-1.8-1.8-1.8h-4.7c-.2.8-1,1.4-1.8,1.4s-1.6-.6-1.8-1.4H.5c-.3,0-.5-.2-.5-.5s.2-.5.5-.5h2.4c.2-.8,1-1.4,1.8-1.4s1.6.6,1.8,1.4h4.7c1.6,0,2.8,1.3,2.8,2.8s-1.3,2.8-2.8,2.8h-1c-.2.8-1,1.4-1.8,1.4s-1.6-.6-1.8-1.4h-3.5c-1.1,0-2.1.9-2.1,2.1s.9,2.1,2.1,2.1h.7c.2-.8,1-1.4,1.8-1.4s1.6.6,1.8,1.4h4.9l-1-1c-.2-.2-.2-.5,0-.7s.5-.2.7,0l1.9,1.9s0,0,0,0c0,0,0,0,0,0h0s0,0,0,0h0s0,0,0,0h0c0,0,.1.2.1.3h0c0,.1,0,.3-.1.3h0s0,0,0,0h0s0,0,0,0l-1.9,1.9c0,0-.2.1-.4.1ZM5.6,10.8c-.5,0-.9.4-.9.9s.4.9.9.9.9-.4.9-.9-.4-.9-.9-.9ZM8.4,5.6c-.5,0-.9.4-.9.9s.4.9.9.9.9-.4.9-.9-.4-.9-.9-.9ZM4.7,1c-.5,0-.9.4-.9.9s.4.9.9.9.9-.4.9-.9c0,0,0,0,0,0s0,0,0,0c0-.5-.4-.9-.9-.9Z" style="fill:#000; stroke-width:0px;"/></g></svg>