<?xml version="1.0" encoding="UTF-8"?><svg id="b" xmlns="http://www.w3.org/2000/svg" viewBox="0 0 13.8 13.9"><g id="c"><path id="d" d="M7.8,13.9c-.3,0-.5-.2-.5-.5,0-.5-.2-1.1-.4-1.5-.5-1-1.6-1.6-2.8-1.6s-2.2.6-2.8,1.6c-.3.5-.4,1-.4,1.5,0,.3-.2.5-.5.5-.3,0-.5-.2-.5-.5,0-.7.2-1.4.5-2,.7-1.3,2.1-2.1,3.6-2.1s2.9.8,3.6,2.1c.3.6.5,1.3.5,2,0,.3-.2.5-.5.5h0ZM10.5,8.5h-1.4c-.2,0-.4,0-.5-.2-.1,0-.2-.3-.2-.5v-.7c-.7-.4-1.1-1.2-1.1-2,0-.7.2-1.3.7-1.8.5-.5,1.1-.8,1.8-.8.7,0,1.3.2,1.8.7.5.5.8,1.1.8,1.8h0c0,.8-.4,1.6-1.1,2.1v.7c0,.2,0,.4-.3.5,0,0-.3.2-.5.2ZM9.5,7.5h.8v-.7c0-.2.1-.4.3-.4.5-.3.8-.8.9-1.4,0-.4-.2-.8-.5-1.1-.3-.3-.7-.5-1.1-.4-.4,0-.8.2-1.1.5-.3.3-.4.7-.4,1.1,0,.6.4,1.1.9,1.3.2,0,.3.3.3.4v.7ZM11.9,5h0,0ZM4.2,8.5c-1.3,0-2.4-1.1-2.4-2.4s1.1-2.4,2.4-2.4,2.4,1.1,2.4,2.4-1.1,2.4-2.4,2.4ZM4.2,4.8c-.8,0-1.4.6-1.4,1.4s.6,1.4,1.4,1.4,1.4-.6,1.4-1.4-.6-1.4-1.4-1.4ZM7.1,2.8c0,0-.2,0-.3,0l-.7-.5c-.2-.2-.3-.5-.1-.7.2-.2.5-.3.7-.1l.7.5c.2.2.3.5.1.7,0,.1-.3.2-.4.2ZM12.7,2.8c-.2,0-.3,0-.4-.2-.2-.2-.1-.5.1-.7l.7-.5c.2-.2.5-.1.7.1.2.2.1.5-.1.7l-.7.5c0,0-.2,0-.3,0ZM9.9,1.8c-.3,0-.5-.2-.5-.5v-.8c0-.3.2-.5.5-.5s.5.2.5.5v.8c0,.3-.2.5-.5.5Z" style="fill:#000; stroke-width:0px;"/></g></svg>