<?xml version="1.0" encoding="UTF-8"?><svg id="b" xmlns="http://www.w3.org/2000/svg" viewBox="0 0 14 14"><g id="c"><path id="d" d="M12.5.5H1.5C.9.5.5.9.5,1.5v11c0,.6.4,1,1,1h11c.6,0,1-.4,1-1V1.5c0-.6-.4-1-1-1ZM7,.5v2.1c-.3-.2-.6-.4-1-.4-.8,0-1.5.7-1.5,1.5s.7,1.5,1.5,1.5.7-.1,1-.4v4.3c.3-.2.6-.4,1-.4.8,0,1.5.7,1.5,1.5s-.7,1.5-1.5,1.5-.7-.1-1-.4v2.1M.5,7h2.1c-.2.3-.4.6-.4,1,0,.8.7,1.5,1.5,1.5s1.5-.7,1.5-1.5-.1-.7-.4-1h4.3c-.2-.3-.4-.6-.4-1,0-.8.7-1.5,1.5-1.5s1.5.7,1.5,1.5-.1.7-.4,1h2.1" style="fill:none; stroke:#000; stroke-linecap:round; stroke-linejoin:round;"/></g></svg>