<?xml version="1.0" encoding="UTF-8"?><svg id="b" xmlns="http://www.w3.org/2000/svg" viewBox="0 0 14 14"><g id="c"><path id="d" d="M12.5,14h-3.5c-.8,0-1.5-.7-1.5-1.5v-3.5c0-.8.7-1.5,1.5-1.5h3.5c.8,0,1.5.7,1.5,1.5v3.5c0,.8-.7,1.5-1.5,1.5ZM9,8.5c-.3,0-.5.2-.5.5v3.5c0,.3.2.5.5.5h3.5c.3,0,.5-.2.5-.5v-3.5c0-.3-.2-.5-.5-.5h-3.5ZM5,14H1.5c-.8,0-1.5-.7-1.5-1.5v-3.5c0-.8.7-1.5,1.5-1.5h3.5c.8,0,1.5.7,1.5,1.5v3.5c0,.8-.7,1.5-1.5,1.5ZM1.5,8.5c-.3,0-.5.2-.5.5v3.5c0,.3.2.5.5.5h3.5c.3,0,.5-.2.5-.5v-3.5c0-.3-.2-.5-.5-.5H1.5ZM10.8,6.5c-.3,0-.5-.2-.5-.5v-2.2h-2.2c-.3,0-.5-.2-.5-.5s.2-.5.5-.5h2.2V.5c0-.3.2-.5.5-.5s.5.2.5.5v2.2h2.2c.3,0,.5.2.5.5s-.2.5-.5.5h-2.2v2.2c0,.3-.2.5-.5.5ZM5,6.5H1.5c-.8,0-1.5-.7-1.5-1.5V1.5C0,.7.7,0,1.5,0h3.5c.8,0,1.5.7,1.5,1.5v3.5c0,.8-.7,1.5-1.5,1.5ZM1.5,1c-.3,0-.5.2-.5.5v3.5c0,.3.2.5.5.5h3.5c.3,0,.5-.2.5-.5V1.5c0-.3-.2-.5-.5-.5H1.5Z" style="fill:#000; stroke-width:0px;"/></g></svg>