<?xml version="1.0" encoding="UTF-8"?><svg id="b" xmlns="http://www.w3.org/2000/svg" viewBox="0 0 13.9 14"><g id="c"><path id="d" d="M4,4.5c1.1,0,2-.9,2-2s-.9-2-2-2-2,.9-2,2,.9,2,2,2ZM5.7,10.5l-.4,3h-2.6l-.5-4H.5v-1.5c0-.9.4-1.8,1-2.5.7-.7,1.5-1,2.5-1s1.8.4,2.5,1c.5.5.8,1.1,1,1.8M7.3,10c0-.5.4-.9.9-.9h4.4c.5,0,.9.4.9.9v2.7c0,.5-.4.9-.9.9h-4.4c-.5,0-.9-.4-.9-.9v-2.7ZM9.2,9.1v-.7c0-.6.4-1,1-1h.4c.6,0,1,.4,1,1v.7" style="fill:none; stroke:#000; stroke-linecap:round; stroke-linejoin:round;"/></g></svg>