<?xml version="1.0" encoding="UTF-8"?><svg id="b" xmlns="http://www.w3.org/2000/svg" viewBox="0 0 12 14"><g id="c"><path id="d" d="M10.5,14H1.5c-.4,0-.8-.2-1.1-.4-.3-.3-.4-.7-.4-1.1V1.5c0-.4.2-.8.4-1.1.3-.3.7-.4,1.1-.4h5.6c.4,0,.8.2,1.1.4l3.4,3.4c.3.3.4.7.4,1.1v7.6c0,.4-.2.8-.4,1.1-.3.3-.7.4-1.1.4ZM1.5,1c-.1,0-.3,0-.4.2,0,0-.1.2-.1.3v11c0,.1,0,.3.1.4,0,0,.2.1.4.1h9c.1,0,.3,0,.4-.2,0,0,.1-.2.1-.3v-7.6c0-.1,0-.3-.1-.3l-3.4-3.4c0,0-.2-.1-.4-.1H1.5ZM3.5,11.1c-.1,0-.3,0-.4-.1l-.8-.8c-.2-.2-.2-.5,0-.7s.5-.2.7,0l.4.4,1-1.5c.2-.2.5-.3.7-.1.2.2.3.5.1.7l-1.4,2c0,.1-.2.2-.4.2,0,0,0,0,0,0ZM9.1,10.3h-2.5c-.3,0-.5-.2-.5-.5s.2-.5.5-.5h2.5c.3,0,.5.2.5.5s-.2.5-.5.5ZM3.5,7.6c-.1,0-.3,0-.4-.1l-.8-.8c-.2-.2-.2-.5,0-.7.2-.2.5-.2.7,0l.4.4,1-1.5c.2-.2.5-.3.7-.1.2.2.3.5.1.7l-1.4,2c0,.1-.2.2-.4.2,0,0,0,0,0,0ZM9.1,6.9h-2.5c-.3,0-.5-.2-.5-.5s.2-.5.5-.5h2.5c.3,0,.5.2.5.5s-.2.5-.5.5Z" style="fill:#000; stroke-width:0px;"/></g></svg>