<?xml version="1.0" encoding="UTF-8"?><svg xmlns="http://www.w3.org/2000/svg" viewBox="0 0 48 48"><g style="isolation:isolate;"><g id="a"><polygon points="44.72 31.91 38.23 17.59 36.28 21.55 27.85 1.19 22.04 13.91 18.72 7.65 12.04 20.53 9.75 16.47 3.82 31.91 44.72 31.91" style="fill:#c5e6e0; stroke-width:0px;"/><polygon points="36.45 21.3 33.63 26.2 31.33 20.11 30.36 24.49 24.22 17.66 31.81 31.91 33.7 31.91 36.45 21.3" style="fill:#83cfce; stroke-width:0px;"/><polygon points="3.82 31.91 8.88 48.15 10.96 43.8 14.52 53.2 17.59 46.87 25.11 63.7 32.59 46.17 34.67 49.45 39.27 39.93 41.65 43.5 44.72 31.91 3.82 31.91" style="fill:#0099b4; stroke-width:0px;"/><polygon points="12.94 22.71 15.91 17.07 17.19 18.25 18.72 7.65 12.04 20.53 12.94 22.71" style="fill:#fff; stroke:#231f20; stroke-miterlimit:10; stroke-width:0px;"/><polygon points="33.24 14.21 27.85 1.19 22.04 13.91 24.22 17.66 25.81 12.71 26.99 14.99 29.07 9.44 33.24 14.21" style="fill:#fff; stroke:#231f20; stroke-miterlimit:10; stroke-width:0px;"/><polygon points="12.94 22.71 18.08 31.62 24.22 20.13 18.98 25.88 19.57 21.03 16.6 25.48 12.94 22.71" style="fill:#83cfce; stroke-width:0px;"/><polygon points="12.94 22.71 18.08 31.62 16.6 25.48 12.94 22.71" style="fill:#6ccad0; stroke-width:0px;"/><polygon points="30.36 24.49 24.22 17.66 31.81 31.91 31.33 20.11 30.36 24.49" style="fill:#6ccad0; stroke-width:0px;"/><polygon points="21.82 26.42 24.72 21.22 28.95 28.95 25.53 25.23 26.05 28.57 23.9 25.16 21.82 26.42" style="fill:#fff; stroke-width:0px;"/><polygon points="11.73 31.91 15.37 31.91 11.58 25.46 11.73 31.91" style="fill:#b1ded7; stroke-width:0px;"/><polygon points="33.63 26.2 33.7 31.91 36.45 21.3 33.63 26.2" style="fill:#6ccad0; stroke-width:0px;"/><polygon points="19.07 10.53 19.59 20.18 21.23 18.03 21.67 20.04 23.53 18.7 19.07 10.53" style="fill:#b1ded7; stroke-width:0px;"/><polygon points="28.36 15.65 31.18 19.22 31.33 16.92 34.82 20.7 29.77 11.65 28.36 15.65" style="fill:#b1ded7; stroke-width:0px;"/><polygon points="36.45 31.91 41.65 31.91 40.16 28.43 39.49 29.54 37.19 25.38 36.45 31.91" style="fill:#b1ded7; stroke-width:0px;"/><polygon points="27.04 31.91 24.17 27.66 23.43 28.85 22.39 27.02 19.67 31.91 27.04 31.91" style="fill:#b1ded7; stroke-width:0px;"/><polygon points="36.9 41.88 35.71 39.58 34.67 49.45 39.27 39.93 37.41 36.24 36.9 41.88" style="fill:#00adc2; stroke-width:0px;"/><polygon points="14.69 44.7 14.52 53.2 17.59 46.87 16.03 47.97 14.69 44.7" style="fill:#00adc2; stroke-width:0px;"/><path d="M20.35,53.03l4.77,10.67,7.47-17.52-1.48-2.66-1.63,3.86-1.34-2.52-3.7,13.46c-1.91-2.45-3.95-5.1-4.09-5.28Z" style="fill:#00adc2; stroke-width:0px;"/><polygon points="8.41 31.91 11.66 31.91 9.13 28.28 8.41 31.91" style="fill:#b1ded7; stroke-width:0px;"/><polygon points="9.79 33.03 13.06 45.28 13.88 38.82 9.79 33.03" style="fill:#007c9d; stroke-width:0px;"/><polygon points="9.72 38.99 9.52 42.76 3.82 31.91 8.88 48.15 10.96 43.8 9.72 38.99" style="fill:#00adc2; stroke-width:0px;"/><polygon points="3.82 31.91 5.66 29.19 6.83 30.92 7.89 25.58 9.57 27.16 9.75 16.47 3.82 31.91" style="fill:#fff; stroke:#231f20; stroke-miterlimit:10; stroke-width:0px;"/><polygon points="42.54 28.25 44.72 31.91 38.23 17.59 36.28 21.55 35.48 25.31 37.56 21.37 39.35 25.31 39.79 23.45 42.15 29.17 42.54 28.25" style="fill:#fff; stroke:#231f20; stroke-miterlimit:10; stroke-width:0px;"/><polygon points="42.64 34.49 41.65 43.5 44.72 31.91 43.13 35.33 42.64 34.49" style="fill:#00adc2; stroke-width:0px;"/><polygon points="24.12 38.15 24.27 33.77 26.3 35.68 27.04 31.91 20.14 31.91 24.12 38.15" style="fill:#00adc2; stroke-width:0px;"/><polygon points="15.21 32.96 16.55 34.07 15.37 31.91 11.66 31.91 14.92 35.93 15.21 32.96" style="fill:#00adc2; stroke-width:0px;"/><polygon points="40.09 33.03 41.72 34.44 41.65 31.91 36.45 31.91 40.16 36.52 40.09 33.03" style="fill:#00adc2; stroke-width:0px;"/><polygon points="26.95 39.58 23.16 44.69 24.05 54.64 26.95 39.86 26.95 39.58" style="fill:#0081b1; stroke-width:0px;"/><polygon points="17.96 35.78 24.05 54.64 23.16 44.69 17.96 35.78" style="fill:#006f99; stroke-width:0px;"/><polygon points="15.88 40.53 24.05 54.64 17.96 35.78 15.88 40.53" style="fill:#006090; stroke-width:0px;"/><polygon points="31.47 33.48 33.33 38.9 34.3 40.68 33.92 36.82 31.47 33.48" style="fill:#006f99; stroke-width:0px;"/><polygon points="33.92 36.82 34.3 40.68 35.78 34.59 33.92 36.82" style="fill:#0081b1; stroke-width:0px;"/><polygon points="29.69 36.52 33.18 44.17 33.33 38.9 31.47 33.48 29.69 36.52" style="fill:#006090; stroke-width:0px;"/><polygon points="4.06 32.66 44.52 32.66 44.72 31.91 3.82 31.91 4.06 32.66" style="fill:#fff; mix-blend-mode:screen; opacity:.5; stroke-width:0px;"/></g></g></svg>