<?xml version="1.0" encoding="UTF-8"?>
<svg id="uuid-f33d5a88-0769-4f1c-99d5-6a28ae154b26" data-name="Layer 1" xmlns="http://www.w3.org/2000/svg" viewBox="0 0 800 600">
  <g>
    <path d="M693.5,511.2H157.5c-11.5,0-20.8-9.3-20.8-20.8v-64.5h577.6v64.5c0,11.5-9.3,20.8-20.8,20.8Z" style="fill: #e6e6e6; stroke-width: 0px;"/>
    <rect x="358.2" y="500.4" width="136.7" height="97.6" style="fill: #e6e6e6; stroke-width: 0px;"/>
    <rect x="350" y="585.7" width="153.1" height="12.3" style="fill: #e6e6e6; stroke-width: 0px;"/>
    <path d="M713.8,453.1H136.7V125.1c0-7.9,6.4-14.3,14.3-14.3h548.6c7.9,0,14.3,6.4,14.3,14.3v328h0Z" style="fill: #3f3d56; stroke-width: 0px;"/>
    <rect x="150.1" y="125.7" width="549.9" height="309.4" style="fill: #fff; stroke-width: 0px;"/>
  </g>
  <g>
    <path id="uuid-8cfbb930-5135-4cc7-b3b8-c445aa58146f" data-name="uuid-25324785-d0f2-4f1c-ad19-f4bb5410ff47-681" d="M256.5,310.1c4.2-3.5,9.4-4.1,11.6-1.4s.6,7.7-3.6,11.1c-1.7,1.4-3.6,2.4-5.8,2.9l-18,14.5-6.6-8.6,18.5-13.4c.9-2,2.2-3.7,3.9-5.1h0Z" style="fill: #ffb6b6; stroke-width: 0px;"/>
    <path d="M152.4,342.9c0-.6,0-6.2,4.1-9.8,4.8-4.1,11.5-2.4,13.8-1.8,5.4,1.3,5.9,3.7,11,6.1,9.6,4.5-2.4,2.2,3.3.8,2-.5,30.3-2.5,37.4-6.8,13.7-8.4,23.1-13.6,23.1-13.6l6.1,12.2s-8.8,12.3-21.3,21.4c-12.8,9.3-19.1,14-28.8,15.8-.8.2-21.4,3.7-37.9-8.7-3.8-2.8-10.7-8-10.8-15.6h0Z" style="fill: #446eb1; stroke-width: 0px;"/>
    <circle cx="171.4" cy="290.5" r="21.3" style="fill: #ffb6b6; stroke-width: 0px;"/>
    <g>
      <polygon points="338 433.5 316.1 411.1 304.8 422.9 321.1 444.4 337.3 446.2 338 433.5" style="fill: #ffb6b6; stroke-width: 0px;"/>
      <path d="M212.9,391.4c1.3.1,5.4.9,9.2-1.2,2.7-1.5,4-3.6,4.5-4.3,5.7-8.6,27.6-22,47.3-22.8,4.5-.2,7.4.3,10.1,1.7,3.8,2,5.3,4.8,10.1,11.4,2.6,3.6,5.5,7,8.2,10.6,15.5,21,21.4,22.7,20.8,29.4-.7,7.5-8.7,14.6-14.1,13.8-2.2-.3-3-1.9-6-5-8.6-9.1-12.2-7.4-18.3-14.3-7.2-8.1-6.2-14.8-9.9-15.1-3.5-.2-4.9,5.5-12.3,13.1-3.4,3.5-5.8,5.1-13.1,10.2-28.6,19.8-29,21.2-34.8,22.8-2.5.7-20.4,5.6-26.8-2.2-10-12.2,13.6-49,25.1-48.1h0Z" style="fill: #2f2e41; stroke-width: 0px;"/>
      <path d="M331.3,438.6c1.6-.7,3.5-1.6,4.1-3.5.4-1.3.2-2.9-.7-4.1-1-1.3-2.4-1.5-2.4-1.7,0-.3,3.5-.2,7.3,1.1.7.3,3.9,1.4,8,4.6,3.3,2.6,2.8,3.1,4.9,4.5,6.3,4.5,12.2,1,15.6,5.2,1.3,1.6,1.9,4,1.3,5.8-1.1,3.8-6.5,5.1-9.5,5.7-7.1,1.6-12.5.3-18.1-.7-19.1-3.2-29.9-.3-31.3-4.7-.3-.8.2-.8,1.6-6.9,1.5-6.1,1.4-7.8,2.7-8.2,1.9-.7,3.1,2.6,7.8,3.7,4.2,1,7.6-.5,8.7-1h0v.2Z" style="fill: #2f2e41; stroke-width: 0px;"/>
    </g>
    <g>
      <polygon points="299.1 506.9 293.5 476 277.5 479.4 279 506.4 291.3 517 299.1 506.9" style="fill: #ffb6b6; stroke-width: 0px;"/>
      <path d="M219.1,401.8c1,.8,3.9,3.8,8.3,4.2,3,.3,5.4-.8,6.1-1.1,9.5-3.9,35.2-2.6,51.9,7.7,3.8,2.3,5.9,4.4,7.4,7.1,2,3.8,1.7,6.9,1.9,15.1,0,4.5.6,8.9.8,13.4,1,26.1,5,30.8.7,36-4.8,5.8-15.4,7.2-19.4,3.5-1.6-1.5-1.5-3.3-2.2-7.5-2-12.3-5.9-12.9-7.1-22.1-1.4-10.7,3.2-15.8.2-18.1-2.7-2.1-7.2,1.8-17.6,3.9-4.8,1-7.6,1-16.6,1-34.8.4-35.9,1.3-41.6-.7-2.5-.8-20-6.8-20.9-16.9-1.4-15.7,38.8-32.9,47.8-25.7h0l.3.2h0Z" style="fill: #2f2e41; stroke-width: 0px;"/>
      <path d="M290.7,507.3c1.7.3,3.8.7,5.4-.6,1.1-.9,1.8-2.3,1.7-3.7,0-1.6-1.2-2.6-1-2.7.3-.2,3,1.8,5.4,5,.4.6,2.4,3.4,4,8.3,1.3,4,.6,4.1,1.5,6.5,2.7,7.3,9.6,7.7,10,13.1.2,2.1-.7,4.3-2.2,5.6-3,2.5-8.2.5-11.1-.6-6.8-2.7-10.5-6.8-14.6-10.7-14-13.4-24.6-17-23.3-21.5.2-.8.6-.5,5.3-4.8,4.6-4.2,5.5-5.6,6.8-5.3,2,.4,1.1,3.9,4.4,7.5,2.9,3.2,6.6,3.8,7.7,4h0Z" style="fill: #2f2e41; stroke-width: 0px;"/>
    </g>
    <path d="M174.3,294.6c.8-3-.2-4,.8-5.4,0,0,.4-.5,4.2-2h0c-1.1-6.5-.3-7.6-.3-7.6,1-1.3,2.9-1.6,4.2-1.4,2.8.4,3.3,2.9,5.1,2.8,2.5,0,5.4-5,4.5-9.3-.8-3.5-4-6.1-4.8-5.7s-3.7-1.5-4.8-1.1c-.8.3-4.3,0-5.1.3-.9.4-3.4,2.9-3.6,2.6-1.7-2.2-1.6-3-2.6-3.5-1.7-.8-3.6.7-6.8,2.3-6.6,3.2-8.5,1.3-11.6,4-1.5,1.4-2.4,3.9-4,9.1-2.2,7.2-3.3,10.7-2.3,14.1,1.1,3.5,2.7,2.7,5.1,7.6,2.7,5.5,1.7,8.6,4.2,9.9,1.9,1,5,.4,6.2-1.4,2-3-3.2-7.1-1.4-11.9,1.1-2.9,4.4-5.1,6.5-4.5,2.3.7,2.5,4.9,4,4.8,1.3,0,2.1-3.2,2.3-3.7h.2,0Z" style="fill: #2f2e41; stroke-width: 0px;"/>
    <path d="M158.1,314.9c4.4-4.9,22.1.2,23.8,7.9.7,3.2-1.8,4.5-1.1,8.2,1,5.4,6.9,5,11.3,10.5,6.2,7.8-.2,15.3,6.8,28.3,1.5,2.8,2.7,5.1,5.4,7.4,6,5.2,11.6,3.4,14.7,8.2,2.3,3.6,1.4,8,1.1,9.1-.9,4.3-3.4,5.3-5.1,8.8-2.9,5.8.4,10,.6,17,.2,8.7-4.4,20.7-13.6,24.6-10.3,4.4-22.8-2.9-28.9-10.2-3.6-4.3-4.6-8.3-6.2-13.3-7-22.1-11-20.1-16.4-37.6-6.2-20-7.4-43.5,0-50.9s3.7-3.3,5.4-7.4c2.3-5.5.3-8.3,2.3-10.5h0Z" style="fill: #446eb1; stroke-width: 0px;"/>
    <g>
      <path id="uuid-1b519fdb-e16b-4679-a0ef-8ace0b5865b3" data-name="uuid-91308677-eda7-42a2-9f2e-a07e84038198-682" d="M222.5,428.6c3.4,4.3,3.9,9.5,1.2,11.7-2.7,2.1-7.7.4-11.1-3.9-1.4-1.7-2.3-3.7-2.8-5.8l-14.1-18.4,7.3-5.5,14.4,17.9c2,.9,3.7,2.3,5,4.1h0,0Z" style="fill: #446eb1; stroke-width: 0px;"/>
      <path d="M170.9,333.6c.6-.1,6.1-1.3,10.4,2.1,4.9,3.8,4.7,10.7,4.6,13.2-.2,5.6-2.4,6.5-3.7,12-2.4,10.3,2.2,19.8,4.8,25.1.9,1.8,3.7,7.4,9.4,13.4,11.1,11.7,20.9,17.9,20.9,17.9l-10.6,9.4s-16.9-5.1-28.3-15.5c-11.7-10.6-29.8-48-33.5-57.1-.3-.8,4.2,12,13-6.7,2-4.3,5.6-12.1,13-13.7h0Z" style="fill: #446eb1; stroke-width: 0px;"/>
    </g>
  </g>
  <g>
    <path d="M442.3,324.8l-12.7-6c5.2,7.2,9.7,18.6,12.1,27.6,4.1-8.4,10.6-18.7,17.1-24.8l-13.4,3.4c8.2-40.4,39.3-69.4,74.8-69.4l.5-1.5c-37.1,0-69.9,28.6-78.4,70.7h0Z" style="fill: #3f3d56; stroke-width: 0px;"/>
    <path d="M500.6,386.3h-80c-3.4,0-6.2-2.8-6.2-6.2s2.8-6.2,6.2-6.2h80c3.4,0,6.2,2.8,6.2,6.2s-2.8,6.2-6.2,6.2h0Z" style="fill: #446eb1; stroke-width: 0px;"/>
    <path d="M607,386.3h-80c-3.4,0-6.2-2.8-6.2-6.2s2.8-6.2,6.2-6.2h80c3.4,0,6.2,2.8,6.2,6.2s-2.8,6.2-6.2,6.2h0Z" style="fill: #e6e6e6; stroke-width: 0px;"/>
  </g>
  <g>
    <path d="M559.7,218.9h-77.8c-2,0-3.6-1.6-3.6-3.6s1.6-3.6,3.6-3.6h77.8c2,0,3.6,1.6,3.6,3.6s-1.6,3.6-3.6,3.6Z" style="fill: #3f3d56; stroke-width: 0px;"/>
    <path d="M601.4,256.9h-161.2c-2,0-3.6-1.6-3.6-3.6s1.6-3.6,3.6-3.6h161.2c2,0,3.6,1.6,3.6,3.6s-1.6,3.6-3.6,3.6h0Z" style="fill: #3f3d56; stroke-width: 0px;"/>
  </g>
  <path d="M295.7,326h-.4c-8.1-.5-35.8-4.4-52.4-33-1.4-2.4-1.1-5.3.7-7.4l30.6-36.5c1.3-1.5,3.2-2.4,5.1-2.3,1.4,0,4.6.4,5.2,2.8,3.7,14.6,19.2,31.8,37.9,34.1,1.9.2,3.4,1.9,4.1,4.5.5,2,0,4.1-1.3,5.7l-24.5,29.8c-1.2,1.5-3.1,2.4-5,2.4h0ZM279.3,248.1c-1.5,0-3,.7-3.9,1.8l-30.6,36.5c-1.4,1.6-1.6,3.9-.5,5.8,16.2,28,43.3,31.8,51.2,32.3,1.6.1,3.2-.6,4.2-1.8l24.5-29.8c1-1.3,1.4-2.9,1-4.4s-1.3-3.2-2.8-3.4c-19.3-2.4-35.4-20.1-39.2-35.2-.3-1.2-2.2-1.7-3.8-1.7h-.1Z" style="fill: #3f3d56; stroke-width: 0px;"/>
  <path d="M261.6,294.1l22.1-22.5c1.5-1.5-.9-3.9-2.4-2.4l-22.1,22.5c-1.5,1.5.9,3.9,2.4,2.4h0Z" style="fill: #e6e6e6; stroke-width: 0px;"/>
  <path d="M274.9,300.4c6.1-5.5,11.4-11.8,15.7-18.7,1.1-1.8-1.8-3.5-2.9-1.7-4.2,6.7-9.3,12.8-15.2,18.1-1.6,1.4.8,3.8,2.4,2.4h0Z" style="fill: #e6e6e6; stroke-width: 0px;"/>
  <path d="M286.9,308c5.6-6.1,10.3-13,14-20.4,1-1.9-1.9-3.6-2.9-1.7-3.6,7.2-8.1,13.8-13.5,19.7-1.4,1.6.9,4,2.4,2.4h0Z" style="fill: #e6e6e6; stroke-width: 0px;"/>
  <g>
    <ellipse cx="277.4" cy="245.7" rx="22.3" ry="21.8" style="fill: #446eb1; stroke-width: 0px;"/>
    <path d="M289,256c-3.4-8.4-6.8-16.8-10.3-25.3-.5-1.2-2-1.2-2.4,0-3.4,8.8-5.6,18-6.7,27.4-.2,1.6,2.3,1.6,2.5,0,.4-3.7,1-7.3,1.8-10.9,2.8.1,5.7-.2,8.4-.9,1.4,3.5,2.8,6.9,4.2,10.4.6,1.5,3,.8,2.4-.7h0ZM274.6,244.8c.8-3.5,1.9-6.9,3-10.2l3.8,9.4c-2.2.6-4.6.9-6.9.8h.1Z" style="fill: #fff; stroke-width: 0px;"/>
  </g>
</svg>