<?xml version="1.0" encoding="UTF-8"?>
<svg id="uuid-65865da4-8f35-4518-8428-6badbfb5d2ce" data-name="Layer 1" xmlns="http://www.w3.org/2000/svg" viewBox="0 0 800 600">
  <path d="M689.2,367H139.9c-14.6,0-26.5-11.9-26.5-26.5v-208.4c0-14.6,11.9-26.5,26.5-26.5h549.3c14.6,0,26.5,11.9,26.5,26.5v208.4c0,14.6-11.9,26.5-26.5,26.5Z" style="fill: #fff; stroke-width: 0px;"/>
  <path d="M689.2,367H139.9c-14.6,0-26.5-11.9-26.5-26.5v-208.4c0-14.6,11.9-26.5,26.5-26.5h549.3c14.6,0,26.5,11.9,26.5,26.5v208.4c0,14.6-11.9,26.5-26.5,26.5ZM139.9,107.9c-13.4,0-24.2,10.8-24.2,24.2h0v208.4c0,13.4,10.8,24.2,24.2,24.2h549.3c13.4,0,24.2-10.8,24.2-24.2h0v-78.6c0-85.1-69-154-154-154H139.9Z" style="fill: #e6e6e6; stroke-width: 0px;"/>
  <path d="M433.9,346.8c-7.1-7.1-13.8-15.1-14-21.5-1.6-56.5-18.1-70.1-17.2-92,0-.4-.2-.7-.6-.7s-.3,0,0,0c-.4,0-.7.2-.7.6-4.5,36.2,11.9,69.4,11.3,94-.3,11.9,1.6,20.2,4.5,26,3.5,7.1,8.5,10.4,13.2,12h8.9c-1.2-6.3-3-12.4-5.3-18.4h-.1Z" style="fill: #3f3d56; stroke-width: 0px;"/>
  <path d="M475.3,230.6h0c-.3-.2-.7-.2-.9.1h0c-21.5,28.3-34.7,90.1-37.4,115.9,2.3,6,4.1,12.2,5.2,18.5h6c.5-.9.9-1.9,1.2-3,.7-3,1-6,1.1-9,.3-6.8,0-17-1.8-32-2.7-24.3,4.9-60.9,26.8-89.6.2-.3.2-.7,0-.9h0,0ZM442.6,364v.3c0-.1,0-.2,0-.3h0Z" style="fill: #3f3d56; stroke-width: 0px;"/>
  <path d="M250,353.2c-.4,6.9-1,11-1,11.1,0,.3-.3.6-.7.6h0c-.4,0-.6-.4-.6-.8-.7.4-1.4.8-2.1,1.1h-3c-2.1-.8-4.1-3.8-4.5-12-.3-7.1.5-18.1,3.6-35,4.4-24-3.2-59.9-25.1-88.6-.2-.3-.2-.7,0-.9.3-.2.7-.2.9.1h0c22.1,29,29.5,64.3,31.8,88.8,1.1,11.8,1.3,23.7.7,35.6h0Z" style="fill: #3f3d56; stroke-width: 0px;"/>
  <path d="M429.5,412.9h-39.4c-4,0-7.3-3.3-7.3-7.3s3.3-7.3,7.3-7.3h39.4c4,0,7.3,3.3,7.3,7.3s-3.3,7.3-7.3,7.3Z" style="fill: #e6e6e6; stroke-width: 0px;"/>
  <path d="M453,439.9h-86.4c-4,0-7.3-3.3-7.3-7.3s3.3-7.3,7.3-7.3h86.4c4,0,7.3,3.3,7.3,7.3s-3.3,7.3-7.3,7.3Z" style="fill: #e6e6e6; stroke-width: 0px;"/>
  <path d="M410.3,285.8c-70.1,0-127-56.9-127-127s56.9-127,127-127,127,56.9,127,127h0c0,70.1-56.9,126.9-127,127ZM410.3,33.8c-69,0-125,56-125,125s56,125,125,125,125-56,125-125-56-125-125-125h0Z" style="fill: #f2f2f2; stroke-width: 0px;"/>
  <path d="M438.4,174.3c-4,.2-8,.6-12,1.2-8.6,1.1-17.1,2.4-25.6,3.6-5.3.7-10.6,1.5-15.9,2.3-.3-1.2-.5-2.5-.7-3.7-1.6-14.9,9.1-28.3,24-30,14.5-1.6,27.6,8.5,29.8,22.9.2,1.3.3,2.5.3,3.8h0Z" style="fill: #446eb1; stroke-width: 0px;"/>
  <ellipse cx="348" cy="321.1" rx="2.8" ry="4.1" transform="translate(-20 619) rotate(-81.7)" style="fill: #fff; stroke-width: 0px;"/>
  <ellipse cx="374.4" cy="318.5" rx="2.8" ry="4.1" transform="translate(5.2 643) rotate(-81.7)" style="fill: #3f3d56; stroke-width: 0px;"/>
  <ellipse cx="340.7" cy="299.7" rx="2.8" ry="4.1" transform="translate(-5 593.6) rotate(-81.7)" style="fill: #ff6584; stroke-width: 0px;"/>
  <ellipse cx="329.7" cy="291.1" rx="2.6" ry="1.8" transform="translate(36.3 618.7) rotate(-89.6)" style="fill: #e6e6e6; stroke-width: 0px;"/>
  <ellipse cx="325.7" cy="274.7" rx="2.6" ry="1.8" transform="translate(48.8 598.5) rotate(-89.6)" style="fill: #3f3d56; stroke-width: 0px;"/>
  <ellipse cx="356.1" cy="303.4" rx="2.6" ry="1.8" transform="translate(50.2 657.3) rotate(-89.6)" style="fill: #e6e6e6; stroke-width: 0px;"/>
  <ellipse cx="343.3" cy="309.9" rx="2.6" ry="1.8" transform="translate(31 651) rotate(-89.6)" style="fill: #ff6584; stroke-width: 0px;"/>
  <ellipse cx="361.1" cy="321.6" rx="2.6" ry="1.8" transform="translate(37 680.4) rotate(-89.6)" style="fill: #3f3d56; stroke-width: 0px;"/>
  <ellipse cx="597" cy="164" rx="3.6" ry="5.2" transform="translate(291.6 702.6) rotate(-75.8)" style="fill: #fff; stroke-width: 0px;"/>
  <ellipse cx="563.3" cy="163.8" rx="3.6" ry="5.2" transform="translate(266.3 669.7) rotate(-75.8)" style="fill: #3f3d56; stroke-width: 0px;"/>
  <ellipse cx="603.4" cy="192.1" rx="3.6" ry="5.2" transform="translate(269.2 730) rotate(-75.8)" style="fill: #ff6584; stroke-width: 0px;"/>
  <ellipse cx="615.6" cy="204.1" rx="3.3" ry="2.3" transform="translate(344.1 793.1) rotate(-83.6)" style="fill: #e6e6e6; stroke-width: 0px;"/>
  <ellipse cx="618.5" cy="225.3" rx="3.3" ry="2.3" transform="translate(325.6 814.8) rotate(-83.6)" style="fill: #3f3d56; stroke-width: 0px;"/>
  <ellipse cx="584" cy="184.9" rx="3.3" ry="2.3" transform="translate(335.1 744.6) rotate(-83.6)" style="fill: #e6e6e6; stroke-width: 0px;"/>
  <ellipse cx="601" cy="178.5" rx="3.3" ry="2.3" transform="translate(356.6 755.8) rotate(-83.6)" style="fill: #ff6584; stroke-width: 0px;"/>
  <ellipse cx="579.9" cy="161.2" rx="3.3" ry="2.3" transform="translate(355 719.5) rotate(-83.6)" style="fill: #3f3d56; stroke-width: 0px;"/>
  <path d="M663.3,125.5c-5.2-21.6-4.3-43,4.5-63.9.2-2.7,2.5-4.7,5.2-4.5l48.2,3.4c2.7.2,4.7,2.5,4.5,5.2l-4.5,63.9c-.2,2.7-2.5,4.7-5.2,4.5l-48.2-3.4c-2.7-.2-4.7-2.5-4.5-5.2Z" style="fill: #f2f2f2; stroke-width: 0px;"/>
  <path d="M668.4,106.4c-4.1-10.7-1.5-25.3,2.9-41.1.2-2.5,2.4-4.4,4.9-4.2l41.4,2.9c2.5.2,4.4,2.4,4.2,4.9l-4,56.8c-.2,2.5-2.4,4.4-4.9,4.2l-25.7-1.8c-11.2-.8-19.7-10.6-18.9-21.8h0Z" style="fill: #fff; stroke-width: 0px;"/>
  <path d="M712,80.2c-9.7,4.8-17.4,9.2-21.5,19.3-2.6-6-5.2-8-7.8-14-.8-1.8-3.4-.2-2.6,1.5,3.1,7.1,6.2,14.2,9.3,21.3.5,1.3,2.4.8,2.7-.4,3.4-11,11.1-20.1,21.4-25.1,1.7-.9.2-3.4-1.5-2.6h0Z" style="fill: #446eb1; stroke-width: 0px;"/>
  <path d="M277.3,403.5c-5.2-21.6-4.3-43,4.5-63.9.2-2.7,2.5-4.7,5.2-4.5l48.2,3.4c2.7.2,4.7,2.5,4.5,5.2l-4.5,63.9c-.2,2.7-2.5,4.7-5.2,4.5l-48.2-3.4c-2.7-.2-4.7-2.5-4.5-5.2Z" style="fill: #f2f2f2; stroke-width: 0px;"/>
  <path d="M282.4,384.4c-4.1-10.7-1.5-25.3,2.9-41.1.2-2.5,2.4-4.4,4.9-4.2l41.4,2.9c2.5.2,4.4,2.4,4.2,4.9l-4,56.8c-.2,2.5-2.4,4.4-4.9,4.2l-25.7-1.8c-11.2-.8-19.7-10.6-18.9-21.8h0Z" style="fill: #fff; stroke-width: 0px;"/>
  <path d="M326,358.2c-9.7,4.8-17.4,9.2-21.5,19.3-2.6-6-5.2-8-7.8-14-.8-1.8-3.4-.2-2.6,1.5,3.1,7.1,6.2,14.2,9.3,21.3.5,1.3,2.4.8,2.7-.4,3.4-11,11.1-20.1,21.4-25.1,1.7-.9.2-3.4-1.5-2.6h0Z" style="fill: #446eb1; stroke-width: 0px;"/>
  <path d="M88.3,138.5c-5.2-21.6-4.3-43,4.5-63.9.2-2.7,2.5-4.7,5.2-4.5l48.2,3.4c2.7.2,4.7,2.5,4.5,5.2l-4.5,63.9c-.2,2.7-2.5,4.7-5.2,4.5l-48.2-3.4c-2.7-.2-4.7-2.5-4.5-5.2h0Z" style="fill: #f2f2f2; stroke-width: 0px;"/>
  <path d="M93.4,119.4c-4.1-10.7-1.5-25.3,2.9-41.1.2-2.5,2.4-4.4,4.9-4.2l41.4,2.9c2.5.2,4.4,2.4,4.2,4.9l-4,56.8c-.2,2.5-2.4,4.4-4.9,4.2l-25.7-1.8c-11.2-.8-19.7-10.6-18.9-21.8h0Z" style="fill: #fff; stroke-width: 0px;"/>
  <path d="M137,93.2c-9.7,4.8-17.4,9.2-21.5,19.3-2.6-6-5.2-8-7.8-14-.8-1.8-3.4-.2-2.6,1.5,3.1,7.1,6.2,14.2,9.3,21.3.5,1.3,2.4.8,2.7-.4,3.4-11,11.1-20.1,21.4-25.1,1.7-.9.2-3.4-1.5-2.6h0Z" style="fill: #446eb1; stroke-width: 0px;"/>
  <path d="M462.2,590.3c-.7,0-1.2-.5-1.3-1.2,0-.4,0-.7.4-.9v-.3h0c-.7-1.7-2.6-2.4-4.3-1.7-.8.3-1.4,1-1.7,1.8-1,2.4-2.2,4.8-2.5,7.3,0,1.1,0,2.2.2,3.3-2.3-5-3.5-10.5-3.5-16.1s0-2.8.2-4.2c0-1.1.3-2.3.5-3.4,1.2-6.1,3.9-11.8,7.8-16.6,1.9-1,3.4-2.6,4.3-4.5.3-.7.6-1.4.7-2.2-.4-1.1-.6-2.2-.6-3.4-.3-.4-.8-.7-1.1-1.1-1.6-2.2-3.8-1.8-5,1.2-2.5,1.2-2.5,3.3-1,5.3,1,1.3,1.1,3,1.9,4.3,0,0-.2.2-.3.3-1.6,2-3,4.2-4.1,6.5.3-2.6,0-5.2-1-7.6-.9-2.3-2.7-4.2-4.2-6.1-1.1-1.5-3.3-1.7-4.7-.6-.7.5-1.2,1.4-1.3,2.2h0c.2.2.5.4.7.5.8.5,1,1.5.5,2.3-.3.4-.7.6-1.1.7h0c0,.8.2,1.7.4,2.5-2,7.7,2.3,10.5,8.4,10.6,0,0,.3,0,.4.2-1.2,3.3-1.9,6.7-2.2,10.2-.2,2.1,0,4.1,0,6.2h0c-.4-2.4-1.7-4.4-3.4-5.9-2.7-2.2-6.4-3-9.3-4.7-.9-.6-2.1-.3-2.6.6-.2.4-.3.8-.3,1.3h0c.4.3.8.5,1.2.7.2,0,.5.3.7.4.8.5,1,1.5.5,2.3-.3.4-.7.6-1.1.7h0c.7,1.7,1.8,3.3,3,4.7,1.2,6.7,6.6,7.3,12.3,5.4h0c.6,2.7,1.5,5.4,2.7,7.9h9.7v-.3c-.9,0-1.8,0-2.7-.2.7-.9,1.4-1.8,2.2-2.6h0c.4-.5.7-.9,1.1-1.3h0c0-1.4,0-2.8-.5-4.1h0v-.4h0Z" style="fill: #f2f2f2; stroke-width: 0px;"/>
  <path d="M702.9,590.3c.7,0,1.2-.5,1.3-1.2,0-.4,0-.7-.4-.9v-.3h0c.7-1.7,2.6-2.4,4.3-1.7.8.3,1.4,1,1.7,1.8,1,2.4,2.2,4.8,2.5,7.3,0,1.1,0,2.2-.2,3.3,2.3-5,3.5-10.5,3.5-16.1s0-2.8-.2-4.2c0-1.1-.3-2.3-.5-3.4-1.2-6.1-3.9-11.8-7.8-16.6-1.9-1-3.4-2.6-4.3-4.5-.3-.7-.6-1.4-.7-2.2.4-1.1.6-2.2.6-3.4.3-.4.8-.7,1.1-1.1,1.6-2.2,3.8-1.8,5,1.2,2.5,1.2,2.5,3.3,1,5.3-1,1.3-1.1,3-1.9,4.3,0,0,.2.2.3.3,1.6,2,3,4.2,4.1,6.5-.3-2.6,0-5.2,1-7.6.9-2.3,2.7-4.2,4.2-6.1,1.1-1.5,3.3-1.7,4.7-.6.7.5,1.2,1.4,1.3,2.2h0c-.2.2-.5.4-.7.5-.8.5-1,1.5-.5,2.3.3.4.7.6,1.1.7h0c0,.8-.2,1.7-.4,2.5,2,7.7-2.3,10.5-8.4,10.6,0,0-.3,0-.4.2,1.2,3.3,1.9,6.7,2.2,10.2.2,2.1,0,4.1,0,6.2h0c.4-2.4,1.7-4.4,3.4-5.9,2.7-2.2,6.4-3,9.3-4.7.9-.6,2.1-.3,2.6.6.2.4.3.8.3,1.3h0c-.4.3-.8.5-1.2.7-.2,0-.5.3-.7.4-.8.5-1,1.5-.5,2.3.3.4.7.6,1.1.7h0c-.7,1.7-1.8,3.3-3,4.7-1.2,6.7-6.6,7.3-12.3,5.4h0c-.6,2.7-1.5,5.4-2.7,7.9h-9.7v-.3c.9,0,1.8,0,2.7-.2-.7-.9-1.4-1.8-2.2-2.6h0c-.4-.5-.7-.9-1.1-1.3h0c0-1.4,0-2.8.5-4.1h0v-.4h0Z" style="fill: #f2f2f2; stroke-width: 0px;"/>
  <polygon points="644.8 589.5 635.7 589.5 631.4 554.5 644.8 554.5 644.8 589.5" style="fill: #ffb6b6; stroke-width: 0px;"/>
  <path d="M645.1,598.9h-27.8v-.4c0-6,4.8-10.8,10.8-10.8h0l5.1-3.9,9.5,3.9h2.4v11.2Z" style="fill: #2f2e41; stroke-width: 0px;"/>
  <polygon points="576.8 589.5 567.7 589.5 563.4 554.5 576.8 554.5 576.8 589.5" style="fill: #ffb6b6; stroke-width: 0px;"/>
  <path d="M577.1,598.9h-27.8v-.4c0-6,4.8-10.8,10.8-10.8h0l5.1-3.9,9.5,3.9h2.4v11.2Z" style="fill: #2f2e41; stroke-width: 0px;"/>
  <path d="M652.8,294.8l-15.1,6c-.2,10.6,10.3,32.5,10.3,32.5l5.1,40.2c-1.7,3.6-.2,7.8,3.3,9.6,3.6,1.7,7.8.2,9.6-3.3,1.1-2.3.9-5-.5-7.2l.6-50.6-13.2-27.2h-.1Z" style="fill: #ffb6b6; stroke-width: 0px;"/>
  <path d="M623,260.6h0c8.8-3.4,18.7.9,22.2,9.8.4,1,.7,2,.9,3l1.9,10.1s21.6,29.3,19.6,39.9l-23.1,2.9s-3.9-14.7-10.1-19.3c-3.8-2.8-11.2-15.9-15.7-27.4-3.5-8.8-4.3-15.6,4.5-19h-.2Z" style="fill: #446eb1; stroke-width: 0px;"/>
  <path d="M561.5,348.5s-16.7,16.3-13.2,20.1,11.7,9,4.2,9.9-10.7,2.7-4.2,4.3,5.6,5.6,5.6,5.6c0,0-9.9,47.1-2.4,78.1,0,0,4.2,84.7,6.8,91.3s3.6,2.6,2.6,6.6-3-3-1,4c1.1,3.7,2,7.4,2.6,11.1l19.6-3s3.1-9.9,0-12.5-6-1-2.6-6.8,4.4,2.2,3.4-5.8,3.2-51.3-3.4-74.1l12.2-64.2,19.3,66.4s10.3,81.1,13.6,84,8.3-2.1,3.3,2.9-4.9,4.1-5,5c-.9,9.2,27.7-.9,27.7-.9-.2-2.3-.2-4.7,0-7,.3-2.1-3.3-2.8,0-5s-1.6,0-1.6,0c0,0-7.4-59.9-13-78l-6.5-88.3s-.4,1.8,0-2.5,3.4-1.3.4-4.3-5-4.5-3-6.8,7.5-6.8,4.3-9.5-9.7-20.6-9.7-20.6l-62.5.5" style="fill: #2f2e41; stroke-width: 0px;"/>
  <path d="M585,249.4l11.3-12.7,17.8,2,11.4,16h0c12.6,2.9,20.7,15.1,18.5,27.9-2.2,12.6-7,25.1-10.7,36-.4,1.3,1.2,6-1.3,3.8s-1,3.2-1.4,4.7c-2.1,7.3-2.9,13.6-1.1,18.2.9,2.4,6.8,7.3,2.5,6.6s1.3,3.9,1.7,5.5c2.5,10.1-.6,14-14.2,12-18-2.7-78.5-8.8-66.8-20.6s14.3-31.3,14.3-31.3l.5-44.8c-2-10.8,5.2-21.2,16-23.2.5,0,1-.2,1.6-.2h-.1Z" style="fill: #446eb1; stroke-width: 0px;"/>
  <path d="M581.7,300.8l-15.5-4.9c-6.8,8.1-12.7,31.6-12.7,31.6l-21.6,34.3c-3.6,1.7-5.2,5.9-3.5,9.5s5.9,5.2,9.5,3.5c2.3-1.1,3.9-3.3,4.1-5.9l32.5-38.7,7-29.5h.2Z" style="fill: #ffb6b6; stroke-width: 0px;"/>
  <path d="M580.3,255.4h0c9,2.9,13.9,12.6,10.9,21.6-.3,1-.8,2-1.3,2.9l-4.9,9s-1.2,40.5-9.6,47.5l-20.3-16.6s6.3-13.8,4.4-21.3c-1.1-4.6,1.4-19.4,5.2-31.2,2.9-9,6.5-14.8,15.5-11.9h.1Z" style="fill: #446eb1; stroke-width: 0px;"/>
  <circle cx="610.1" cy="214.1" r="21.5" style="fill: #ffb6b6; stroke-width: 0px;"/>
  <path d="M614.1,235.1c-6-1.5-6.2-3.2-12.2-4.7-1.9-.5-4.1-1.2-4.7-3.1-.3-1.4,0-2.8,1.1-3.9.9-1,1.8-2.1,2.6-3.3,1.8-3.1.8-7.1-2.3-9-.7-.4-1.5-.7-2.2-.8-1.9-.3-3.8.2-5.6,0-2.6-.3-6.3-9.8-4.7-11.8,1.6-1.9,4.2-3.1,5.1-5.4.6-1.5.3-3.3.5-4.9.4-2.4,5.2,4.3,4.6,1.9-1.6-5.8,25.3-6.7,28.1.7,1,2.8,3.9,3.2,6.1,5.2,1.4,1.3,4.8,5.5,5.3,7.7.4,2.3.3,4.6-.2,6.9-2.2,10.5-5.9,19.9-15.8,24.2" style="fill: #2f2e41; stroke-width: 0px;"/>
  <path d="M783.8,600.3l-389.7.3c-.7,0-1.2-.5-1.2-1.2s.5-1.2,1.2-1.2l389.7-.3c.7,0,1.2.5,1.2,1.2s-.5,1.2-1.2,1.2h0Z" style="fill: #cacaca; stroke-width: 0px;"/>
  <path d="M209,294.9c-6.9-6.9-16.2-10.7-25.9-10.6h-.4c-6.5,0-13-1.7-18.6-5l-.6-.3.5-.5c2.6-2.7,4.7-5.7,6.4-9-2.7,2.6-6.6,3.5-10.2,2.6-2.9-.8-5.4-2.7-6.9-5.3-3.5-5.6-9-13.6-7.4-19.4,2.2-8.4,31.8,5.2,12.1-27.4-3.4-5.7,7.7-10.7,7.6-17.2v-.5c0-4.3.5-8.5,1.6-12.7v-.4h.5c2.8,0,5.6-.1,8.3-.7-2.6-.3-5.1-1-7.4-2l-.5-.2.2-.5c10.8-6.7,35.3-3.2,49.5-35.7,11.5-26.3,52.1,23.4,52.1,52.1s-2.9,6.8-.7,8.7c23.5,21,7.3,34.4,2.2,48-1.2,3.2,1.4,6.7,1.4,10.2s0,1.2,0,1.8v.9l-.8-.5c-1.5-1-3-2.2-4.3-3.5,2.7,6.3,2.5,13.5-.7,19.5-2.5,4.6-5.5,12.4-7.1,9.9-11.2-18.4-26.8-51.5-25.7-12.9.4,13.1-15.6,20.1-24.8,10.7l-.2-.2h-.2Z" style="fill: #e6e6e6; stroke-width: 0px;"/>
  <ellipse cx="200.9" cy="198" rx="2.8" ry="4.1" transform="translate(-24 368.2) rotate(-81.7)" style="fill: #fff; stroke-width: 0px;"/>
  <ellipse cx="227.4" cy="195.4" rx="2.8" ry="4.1" transform="translate(1.3 392.2) rotate(-81.7)" style="fill: #3f3d56; stroke-width: 0px;"/>
  <ellipse cx="193.7" cy="176.6" rx="2.8" ry="4.1" transform="translate(-9 342.8) rotate(-81.7)" style="fill: #ff6584; stroke-width: 0px;"/>
  <ellipse cx="182.7" cy="168" rx="2.6" ry="1.8" transform="translate(13.5 349.6) rotate(-89.6)" style="fill: #e6e6e6; stroke-width: 0px;"/>
  <ellipse cx="178.8" cy="151.9" rx="2.6" ry="1.8" transform="translate(25.7 329.6) rotate(-89.6)" style="fill: #3f3d56; stroke-width: 0px;"/>
  <ellipse cx="209.1" cy="180.4" rx="2.6" ry="1.8" transform="translate(27.3 388.3) rotate(-89.6)" style="fill: #e6e6e6; stroke-width: 0px;"/>
  <ellipse cx="196.3" cy="186.8" rx="2.6" ry="1.8" transform="translate(8.1 381.9) rotate(-89.6)" style="fill: #ff6584; stroke-width: 0px;"/>
  <ellipse cx="214.2" cy="198.7" rx="2.6" ry="1.8" transform="translate(14 411.5) rotate(-89.6)" style="fill: #3f3d56; stroke-width: 0px;"/>
  <path d="M456.3,308.2c-.5-32.7-11.5-26.2-24-8.9-1.7,2.4-4.6-5.2-7.1-9.9-3.2-6.1-3.4-13.2-.7-19.5-1.3,1.3-2.7,2.5-4.3,3.5l-.8.5v-2.7c0-3.5,2.6-7,1.4-10.2-5.1-13.5-21.3-27,2.2-48,2.2-1.9-.7-5.8-.7-8.7,0-28.7,55.4-80.7,52.1-52.1-5.3,46.9,27.1,37.5,49.5,35.7l.2.5-.5.2c-2.4,1-4.9,1.7-7.4,2,2.7.6,5.5.8,8.3.7h.4v.4c1.1,4.1,1.7,8.4,1.7,12.7v.5c0,6.6,2.8,12.8,7.6,17.2,7.7,7,12.1,16.9,12.1,27.4s-4.1,14.1-7.6,19.7c-1.8,2.9-4.8,4.8-8.2,5.2-3.2.4-6.4-.6-8.8-2.8,1.6,3.3,3.8,6.3,6.4,9l.5.5-.6.3c-5.7,3.3-12.1,5-18.6,5h-.4c-9.7-.1-19,3.7-25.9,10.6-7,7.2-16.6,11.3-26.6,11.3h-.2Z" style="fill: #f2f2f2; stroke-width: 0px;"/>
  <path d="M442,286.3c-3.2,12.6-19.2,16.3-28.1,6.7-9.5-10.3-14.2-2.3-14.4,20.6,0,2.9-6.6-2.2-11.1-5-5.8-3.6-9.6-9.7-10.4-16.5-.5,1.8-1.1,3.5-1.9,5.2l-.4.8-.5-.8c-.3-.5-.7-1-1-1.5-1.8-3-1.3-7.4-3.9-9.5-11.2-9.1-32-12.6-22.3-42.5.9-2.8-2.5-5.8-5-7.2-41.9-22.5-14.6-87.4,18.8-71.3,31.9,15.4,48,5.6,60.8,5.9l.4.3-.3.4c-1.5,2.1-3.4,3.9-5.4,5.4,2.6-.9,5.2-2.1,7.5-3.6l.4-.2.3.3c3,3.1,5.6,6.5,7.7,10.2l.2.4c3.3,5.7,8.8,9.7,15.3,11,10.2,2.2,19,8.6,24.2,17.5,3,5.2,3.5,13.9,3.4,20.5,0,3.1-1.2,6-3.4,8.2-2.7,2.6-6.4,3.7-10.1,2.9,3.1,2,6.5,3.6,10,4.6l.7.2-.3.6c-3.2,5.7-7.9,10.4-13.6,13.7l-.3.2c-8.4,4.8-14.6,12.8-17,22.2v.3h-.3,0Z" style="fill: #e6e6e6; stroke-width: 0px;"/>
  <path d="M205,267.3s.2-.2.2-.3c-1.2-3.5-3.1-6.6-5.6-9.3-3.9-4.3-11-9.6-23-10.1,0,0-.3,0-.4.2v.2c3,7.5,7.9,14.1,20.4,11.6,6.1-1.2,7.9,7.6,7.9,7.7h.5,0Z" style="fill: #f2f2f2; stroke-width: 0px;"/>
  <path d="M386,272.3s.2-.2.2-.3c-1.2-3.5-3.1-6.6-5.6-9.3-3.9-4.3-11-9.6-23-10.1,0,0-.3,0-.4.2,0,.1.2.1,0,.2-14.6,12.6,4,13.1,20.4,11.6,6.2-.5,7.9,7.6,7.9,7.7h.5Z" style="fill: #f2f2f2; stroke-width: 0px;"/>
  <path d="M237.7,190.1s.3-.1.3,0c3,2.2,7.4-.4,2.2-10.6-2.6-5.1-1.7-14.5-10.2-22.9,0,0-.3-.1-.4-.1s-.2.1,0,.2c8.4,8.4,7.3,16.6,7.2,22.3,0,3.7.2,7.3.7,11,0,0,0,.2.2.2h0Z" style="fill: #f2f2f2; stroke-width: 0px;"/>
  <path d="M375,220.3s.2-.2.2-.3c-3.1-2.2-5.1-5.6-5.6-9.3-3.1-28.5-10.7-18.6-23-10.1,0,0-.3,0-.4.2s0,.2,0,.2c11.9.5,16.6,7.3,20.4,11.6,2.5,2.7,5.1,5.3,7.9,7.7h.5Z" style="fill: #f2f2f2; stroke-width: 0px;"/>
  <path d="M504.3,259.3c0,0-.2-.2-.2-.3,2.9-2.3,4.9-5.6,5.6-9.3,6.7-40.6,12.4-27.7,23-10.1,0,.1.3,0,.4.2v.2c-11.9.5-16.6,7.3-20.4,11.6-2.5,2.7-5.1,5.3-7.9,7.7h-.5Z" style="fill: #fff; stroke-width: 0px;"/>
  <path d="M242.3,251.3s-.2-.2-.2-.3c0,0,7.6-3.4,5.6-9.3-7.4-21.5,7.6-14.7,23-10.1,0,0,.3,0,.4.2v.2c-11.9.5-16.6,7.3-20.4,11.6-2.5,2.7-5.1,5.3-7.9,7.7h-.5Z" style="fill: #f2f2f2; stroke-width: 0px;"/>
  <path d="M429.3,241.3c0,0-.2-.2-.2-.3,2.2-2.9,4.1-6,5.6-9.3,14.1-31,17.3-26.2,23-10.1,0,.1.3,0,.4.2v.2c-11.9.5-16.6,7.3-20.4,11.6-2.5,2.7-5.1,5.3-7.9,7.7h-.5Z" style="fill: #f2f2f2; stroke-width: 0px;"/>
</svg>